<?xml version="1.0" standalone="no"?>
<!DOCTYPE svg PUBLIC "-//W3C//DTD SVG 1.1//EN" "http://www.w3.org/Graphics/SVG/1.1/DTD/svg11.dtd" >
<svg xmlns="http://www.w3.org/2000/svg" xmlns:xlink="http://www.w3.org/1999/xlink" version="1.1">
<metadata>
Created by FontForge 20170731 at Sun Apr 29 09:25:14 2018
 By Aleksey,,,
Copyright (c) 2015 by OH no Type Company, LLC. All rights reserved.
</metadata>
<defs>
<font id="ViktorScript-Regular" horiz-adv-x="408" >
  <font-face 
    font-family="Viktor Script"
    font-weight="400"
    font-stretch="condensed"
    units-per-em="1000"
    panose-1="3 6 6 2 3 6 7 7 10 4"
    ascent="750"
    descent="-250"
    x-height="502"
    cap-height="835"
    bbox="-315 -531 1284 1167"
    underline-thickness="0"
    underline-position="0"
    unicode-range="U+0020-2212"
  />
<missing-glyph horiz-adv-x="706" 
d="M13 529q13 50 96.5 138t126.5 100q39 14 151 6.5t142 -32.5q37 -30 91 -153q6 -14 26 -26q28 -13 30 -45q1 -12 10.5 -80t9.5 -95q0 -39 -37 -44q-38 -4 -34 -34q1 -12 9.5 -33t12.5 -39q2 -10 1 -30t0 -30q1 -6 11 -34t12 -36q7 -34 -24 -47q-15 -6 -91.5 -18.5
t-121.5 -12.5q-71 0 -105 19t-62 81q-6 14 -28 20q-42 8 -84.5 25.5t-58.5 39.5q-27 36 -61.5 174t-21.5 186zM234 437q0 -40 23 -77.5t67 -37.5q64 0 100.5 39.5t36.5 111.5q0 36 -25 61t-64 25q-67 0 -102.5 -38.5t-35.5 -83.5zM625 348q21 0 32.5 19t11.5 46
q0 49 -21.5 96t-38.5 47q-10 0 -1 -30t1 -30q-7 0 -16.5 12t-18 26.5t-22.5 26.5t-29 12q-20 0 -31 -18.5t-11 -49.5q0 -37 18 -74t36 -37q10 0 4.5 28.5t4.5 28.5q7 0 16.5 -16t18 -35.5t21 -35.5t25.5 -16zM347 463q16 3 15 21t9 22q10 3 16.5 -12.5t11.5 -45.5
q9 -48 -8 -51q-11 -3 -18.5 11.5t-18.5 13.5q-11 -2 -14 -20.5t-12 -20.5q-13 -3 -20.5 7.5t-12.5 35.5q-10 68 12 68q5 0 14 -16t26 -13zM547 491q0 18 14 18q15 0 33.5 -23.5t18.5 -40.5q0 -15 -17 -15q-20 0 -34.5 21t-14.5 40z" />
    <glyph glyph-name="arrowleft" unicode="&#x2d;&#x3c;" horiz-adv-x="575" 
d="M283 95q-46 72 -115 127t-142 56q-2 18 -2 25q0 26 24 33q48 15 122 68.5t131 117.5q12 -4 12 -25q0 -28 -26 -68t-85 -82q98 2 143 3.5t103 7.5t93 17q15 -33 15 -57q0 -56 -78 -56t-278 21q98 -98 98 -157q0 -21 -15 -31z" />
    <glyph glyph-name="arrowup" unicode="&#x2d;^" horiz-adv-x="488" 
d="M30 307q65 38 123.5 120t66.5 159q18 2 25 2q27 0 33 -22q32 -105 180 -270q-4 -10 -26 -10q-30 0 -71 28t-82 93q5 -266 19 -344q-44 -8 -55 -8q-28 0 -40.5 13t-12.5 46q1 65 25 295q-39 -55 -79 -88t-71 -33q-22 0 -35 19z" />
    <glyph glyph-name="arrowright" unicode="&#x2d;&#x3e;" horiz-adv-x="575" 
d="M297 525q46 -72 115 -127t142 -56q2 -18 2 -25q0 -26 -24 -33q-48 -15 -122 -68.5t-131 -117.5q-12 4 -12 25q0 28 26 68t85 82q-98 -2 -143 -3.5t-103 -7.5t-93 -17q-15 33 -15 57q0 56 78 56t278 -21q-98 98 -98 157q0 21 15 31z" />
    <glyph glyph-name="arrowdown" unicode="&#x2d;&#x2e;" horiz-adv-x="488" 
d="M461 355q-65 -38 -123.5 -120t-66.5 -159q-18 -2 -25 -2q-27 0 -33 22q-32 105 -180 270q4 10 26 10q30 0 71 -28t82 -93q-5 266 -19 344q44 8 55 8q28 0 40.5 -13t12.5 -46q-1 -65 -25 -295q39 55 79 88t71 33q22 0 35 -19z" />
    <glyph glyph-name="arrowdownleft" unicode="&#x2e;&#x2f;" horiz-adv-x="469" 
d="M393 178l-1 1q-66 20 -169 3t-162 -66q-14 12 -19 17q-19 19 -9 40q52 97 64 319q10 4 26 -12q54 -54 23 -194q183 190 230 256q40 -29 45 -34q20 -20 20 -38t-24 -42q-45 -44 -226 -191q147 24 191 -20q15 -15 11 -39z" />
    <glyph glyph-name="arrowdownright" unicode="&#x2e;\" horiz-adv-x="485" 
d="M392 488l-1 -1q-20 -66 -3 -169t66 -162q-12 -14 -17 -19q-19 -19 -40 -9q-97 52 -319 64q-4 10 12 26q54 54 194 23q-190 183 -256 230q29 40 34 45q20 20 38 20t42 -24q44 -45 191 -226q-24 147 20 191q15 15 39 11z" />
    <glyph glyph-name="arrowupleft" unicode="&#x3c;\" horiz-adv-x="485" 
d="M93 180l1 1q20 66 3 169t-66 162q12 14 17 19q19 19 40 9q97 -52 319 -64q4 -10 -12 -26q-54 -54 -194 -23q190 -183 256 -230q-29 -40 -34 -45q-20 -20 -38 -20t-42 24q-44 45 -191 226q24 -147 -20 -191q-15 -15 -39 -11z" />
    <glyph glyph-name="arrowupright" unicode="&#x2f;&#x3e;" horiz-adv-x="469" 
d="M76 486l1 -1q66 -20 169 -3t162 66q14 -12 19 -17q19 -19 9 -40q-52 -97 -64 -319q-10 -4 -26 12q-54 54 -23 194q-183 -190 -230 -256q-40 29 -45 34q-20 20 -20 38t24 42q45 44 226 191q-147 -24 -191 20q-15 15 -11 39z" />
    <glyph glyph-name=".notdef" horiz-adv-x="706" 
d="M13 529q13 50 96.5 138t126.5 100q39 14 151 6.5t142 -32.5q37 -30 91 -153q6 -14 26 -26q28 -13 30 -45q1 -12 10.5 -80t9.5 -95q0 -39 -37 -44q-38 -4 -34 -34q1 -12 9.5 -33t12.5 -39q2 -10 1 -30t0 -30q1 -6 11 -34t12 -36q7 -34 -24 -47q-15 -6 -91.5 -18.5
t-121.5 -12.5q-71 0 -105 19t-62 81q-6 14 -28 20q-42 8 -84.5 25.5t-58.5 39.5q-27 36 -61.5 174t-21.5 186zM234 437q0 -40 23 -77.5t67 -37.5q64 0 100.5 39.5t36.5 111.5q0 36 -25 61t-64 25q-67 0 -102.5 -38.5t-35.5 -83.5zM625 348q21 0 32.5 19t11.5 46
q0 49 -21.5 96t-38.5 47q-10 0 -1 -30t1 -30q-7 0 -16.5 12t-18 26.5t-22.5 26.5t-29 12q-20 0 -31 -18.5t-11 -49.5q0 -37 18 -74t36 -37q10 0 4.5 28.5t4.5 28.5q7 0 16.5 -16t18 -35.5t21 -35.5t25.5 -16zM347 463q16 3 15 21t9 22q10 3 16.5 -12.5t11.5 -45.5
q9 -48 -8 -51q-11 -3 -18.5 11.5t-18.5 13.5q-11 -2 -14 -20.5t-12 -20.5q-13 -3 -20.5 7.5t-12.5 35.5q-10 68 12 68q5 0 14 -16t26 -13zM547 491q0 18 14 18q15 0 33.5 -23.5t18.5 -40.5q0 -15 -17 -15q-20 0 -34.5 21t-14.5 40z" />
    <glyph glyph-name=".null" horiz-adv-x="0" 
 />
    <glyph glyph-name="nonmarkingreturn" horiz-adv-x="333" 
 />
    <glyph glyph-name="space" unicode=" " horiz-adv-x="185" 
 />
    <glyph glyph-name="exclam" unicode="!" horiz-adv-x="276" 
d="M319 825q27 10 47 10q55 0 55 -51q0 -43 -43.5 -129.5t-122.5 -227.5t-128 -249q-24 0 -24 16q0 6 12 40q12 33 52.5 138.5t79.5 218.5t72 234zM-4 48q0 21 22.5 53t49.5 32q30 0 52 -12t22 -31q0 -29 -29 -63.5t-59 -34.5q-20 0 -39 17t-19 39z" />
    <glyph glyph-name="quotedbl" unicode="&#x22;" horiz-adv-x="317" 
d="M223 820q6 1 19 1q31 0 49.5 -9.5t18.5 -26.5q0 -31 -69 -141q-38 -62 -46 -75q-14 -1 -20.5 3t-6.5 15q0 13 9 50.5t24.5 98t21.5 84.5zM343 820q6 1 19 1q31 0 49.5 -9.5t18.5 -26.5q0 -31 -69 -141q-38 -62 -46 -75q-14 -1 -20.5 3t-6.5 15q0 13 9 50.5t24.5 98
t21.5 84.5z" />
    <glyph glyph-name="numbersign" unicode="#" horiz-adv-x="424" 
d="M153 255h85q7 17 20 49t18 44q-56 2 -84 2q-6 -16 -19.5 -47.5t-19.5 -47.5zM304 163q-39 0 -60 1q-42 -96 -81 -180q-25 0 -25 12q0 4 3 13q15 39 61 156l-87 3q-44 -104 -82 -184q-25 2 -25 13q0 5 3 12q22 60 62 160q-59 0 -84 -1q-2 88 58 88h61q20 46 39 96h-45
q-35 0 -51 -1q0 88 58 88h74q74 176 101 232q28 2 28 -18q0 -11 -5 -21q-68 -169 -79 -194h85q71 171 101 233q27 2 27 -21q0 -9 -4 -18q-68 -169 -79 -194q42 2 62 3q0 -95 -54 -95q-30 0 -45 1q-4 -9 -38 -92l75 3q2 -95 -54 -95z" />
    <glyph glyph-name="dollar" unicode="$" horiz-adv-x="388" 
d="M31 -171q-5 -2 -18 -2q-42 0 -42 35q0 13 8 32.5t17.5 35t29.5 47t31 50.5q-41 14 -67 44t-26 66q0 35 23.5 56t64.5 21q33 0 33 -24q-36 -19 -36 -63q-1 -26 14.5 -48t44.5 -30q63 19 63 77q0 39 -37 94q-2 3 -12 18.5t-13 20.5t-11.5 19.5t-11.5 22.5t-9 23t-8.5 26.5
t-4.5 27t-2 30.5q0 75 66 152.5t133 77.5q10 0 26 -2q33 70 59 194q7 1 22 1q52 0 52 -38q0 -15 -14 -38.5t-43.5 -64t-44.5 -64.5q58 -30 58 -117q0 -71 -36.5 -133t-83.5 -62q-28 0 -33 21q27 26 48.5 95.5t21.5 121.5q0 44 -15 54q-46 -13 -83 -73t-37 -119
q0 -58 47 -132q2 -3 8 -12.5t8 -13t7 -12.5t7 -13t6.5 -12.5t6 -14t4.5 -14t4 -15t2 -15t1 -16.5q0 -57 -38.5 -92t-105.5 -35q-10 0 -28 2q-38 -100 -56 -190z" />
    <glyph glyph-name="percent" unicode="%" horiz-adv-x="726" 
d="M98 -7q-24 0 -24 9q0 7 8 16q174 232 484 675q-74 -63 -157 -63q-27 0 -57 8q0 -63 -29.5 -155.5t-83.5 -168.5t-110 -76q-41 0 -64.5 27t-22.5 78q0 53 26.5 126.5t63.5 126.5q23 33 55 33q21 0 33 -13q-37 -59 -70 -159t-33 -147q-2 -24 13 -34q20 3 55.5 68.5
t63.5 154t27 146.5q-37 7 -56.5 23.5t-19.5 35.5q0 12 16 28t32 16q28 0 57 -24.5t41 -58.5q156 -8 273 104q23 2 23 -16q0 -7 -8 -23q-117 -207 -261 -402.5t-275 -334.5zM461 -7h1q-44 0 -73.5 28.5t-29.5 79.5q0 59 32.5 142.5t75.5 146.5q15 25 53 25q6 0 9 -1
q21 26 49 26q38 0 67 -23t29 -60q0 -53 -34 -145t-79 -156q-44 -63 -100 -63zM571 404h-1q-41 -42 -86 -153t-45 -176q0 -41 23 -48q38 35 86.5 146.5t48.5 189.5q0 35 -26 41z" />
    <glyph glyph-name="ampersand" unicode="&#x26;" horiz-adv-x="518" 
d="M162 -171q-10 -2 -16 -2q-40 0 -40 33q0 9 3 19t11 24t14.5 25t20.5 33t22 35q-66 13 -99 55t-33 97q0 74 54 134.5t139 66.5q-69 52 -69 163q0 106 65.5 188.5t182.5 82.5q12 0 30 -2q36 86 52 178q16 2 26 2q49 0 49 -42q0 -17 -12 -37t-38.5 -53.5t-40.5 -53.5
q50 -14 74.5 -50t24.5 -83q0 -73 -50 -137.5t-116 -64.5q-46 0 -70.5 26.5t-24.5 62.5q0 40 18 64t41 24q14 0 24 -9q-14 -44 -14 -95q0 -25 6 -39q34 17 62 68t28 100q0 73 -60 107q-68 -20 -114.5 -108.5t-46.5 -179.5q0 -66 28 -104q75 17 101 27q19 -13 19 -38
q0 -19 -14 -34t-38 -15q-51 0 -92 30q-51 -23 -82 -77t-31 -112q0 -70 45 -108q52 2 88.5 47.5t36.5 91.5q0 39 -29 52q12 40 54 40q30 0 53 -22.5t23 -68.5q0 -67 -51.5 -123.5t-140.5 -56.5q-17 0 -25 1q-10 -25 -48 -162z" />
    <glyph glyph-name="quotesingle" unicode="'" horiz-adv-x="198" 
d="M223 820q6 1 19 1q31 0 49.5 -9.5t18.5 -26.5q0 -31 -69 -141q-38 -62 -46 -75q-14 -1 -20.5 3t-6.5 15q0 13 9 50.5t24.5 98t21.5 84.5z" />
    <glyph glyph-name="parenleft" unicode="(" horiz-adv-x="253" 
d="M27 114q0 151 58.5 317t148.5 277t175 111q19 0 32.5 -6.5t15.5 -15.5q-86 -25 -171 -164t-134.5 -308t-49.5 -295q0 -78 23 -119q-8 -5 -17 -5q-31 0 -56 54t-25 154z" />
    <glyph glyph-name="parenright" unicode=")" horiz-adv-x="313" 
d="M306 611q0 -151 -58.5 -317t-148.5 -277t-175 -111q-19 0 -32.5 6.5t-15.5 15.5q86 25 171 164t134.5 308t49.5 295q0 78 -23 119q8 5 17 5q31 0 56 -54t25 -154z" />
    <glyph glyph-name="asterisk" unicode="*" horiz-adv-x="527" 
d="M453 630q-3 3 -3 8q0 6 12 17q61 55 109 86q12 -11 12 -23q0 -21 -43 -47.5t-87 -40.5zM477 400q-16 13 -35 42.5t-28.5 49t-35.5 74.5q-27 -120 -65 -213q-58 4 -58 26q0 27 91 195q-114 -18 -186 -18q-2 8 -2 22q0 44 36 44t158 -15q-35 42 -52 64.5t-31.5 50.5
t-14.5 49q0 27 20 29q65 -118 91 -183q37 134 60 189q63 -5 63 -26q0 -25 -90 -176q130 16 181 17q8 -18 8 -34q0 -38 -30 -38q-25 0 -163 22q10 -11 35 -37t34.5 -37.5t19.5 -30t10 -34.5q0 -24 -16 -32zM297 550q3 -2 3 -5q0 -7 -13 -19q-56 -50 -110 -83q-10 10 -10 19
q0 23 42.5 49t87.5 39z" />
    <glyph glyph-name="plus" unicode="+" horiz-adv-x="361" 
d="M277 301q-12 0 -39.5 5.5t-42.5 7.5q-12 -32 -26.5 -82t-17.5 -61q-17 1 -22.5 2t-12.5 6t-7 15q0 9 4.5 24t9 26.5t15.5 35.5t15 35q-9 0 -108 -8q-2 10 -2 14q0 43 50 43q22 0 75 -11q35 96 45 142q46 -3 46 -30q0 -9 -7 -26.5t-21.5 -47.5t-19.5 -40q26 2 67 7t50 6
q2 -8 2 -15q0 -48 -53 -48z" />
    <glyph glyph-name="comma" unicode="," horiz-adv-x="227" 
d="M31 90q0 7 -2 25q13 11 31 11q21 0 36.5 -13.5t15.5 -36.5q0 -55 -62.5 -123.5t-103.5 -68.5q-14 0 -17 13q102 92 102 193z" />
    <glyph glyph-name="hyphen" unicode="-" horiz-adv-x="305" 
d="M271 309q2 -8 2 -16q0 -47 -53 -47q-24 0 -81 3.5t-82 3.5q-20 0 -29 -1q-2 8 -2 14q0 43 65 43q21 0 62 -1.5t61 -1.5q30 0 57 3z" />
    <glyph glyph-name="period" unicode="." horiz-adv-x="227" 
d="M-4 48q0 21 22.5 53t49.5 32q30 0 52 -12t22 -31q0 -29 -29 -63.5t-59 -34.5q-20 0 -39 17t-19 39z" />
    <glyph glyph-name="slash" unicode="/" horiz-adv-x="295" 
d="M395 829q27 2 27 -20q0 -5 -4 -19q-89 -260 -214 -506.5t-249 -416.5q-26 2 -26 13q0 5 4 12q82 154 231.5 459t230.5 478z" />
    <glyph glyph-name="zero" unicode="0" horiz-adv-x="369" 
d="M276 626q-53 -46 -145 -275q-79 -200 -79 -271q0 -40 14 -51q25 9 68.5 92.5t88.5 197.5q76 201 74 267q-1 34 -21 40zM42 391q49 115 93 178t99 71q4 25 48 25q40 0 68.5 -25.5t28.5 -73.5q0 -120 -72 -293q-67 -161 -132 -230q-49 -52 -109 -52q-41 0 -69.5 32.5
t-28.5 89.5q0 104 74 278z" />
    <glyph glyph-name="one" unicode="1" horiz-adv-x="294" 
d="M76 -5q-87 8 -87 33q0 12 10 38t31 72.5t31 70.5q27 61 77.5 176t57.5 130q-73 -101 -120 -149q-50 -50 -71 -50q-10 0 -16 9t-5 22q26 15 53 39.5t46 44t47.5 58t40.5 55.5t43 63.5l37 55.5q74 0 74 -28q0 -4 -22 -59q-177 -445 -227 -581z" />
    <glyph glyph-name="two" unicode="2" horiz-adv-x="374" 
d="M-18 34q-30 0 -51 -43q-12 0 -19 9t-7 21q0 22 17.5 39t58.5 45q106 60 214 218t108 282q0 18 -8 24q-29 -6 -72.5 -65t-78 -142.5t-34.5 -147.5q0 -10 2 -26q-9 -6 -22 -6q-22 0 -38 21.5t-16 66.5q0 122 75.5 228.5t164.5 106.5q53 0 82.5 -28t29.5 -74
q0 -30 -9.5 -69.5t-35 -91.5t-62.5 -102t-99 -103.5t-138 -94.5q15 -1 44.5 -4.5t42.5 -3.5q47 0 79 38q17 -5 17 -31q0 -37 -29.5 -72.5t-77.5 -35.5q-30 0 -74.5 20.5t-63.5 20.5z" />
    <glyph glyph-name="three" unicode="3" horiz-adv-x="363" 
d="M5 -180q-69 0 -99.5 35t-30.5 88q0 51 26.5 81t59.5 30q22 0 37 -15q-15 -18 -27 -51t-12 -64q0 -44 23 -67q47 8 87 87t40 150q0 37 -13 56q-37 -52 -74 -52q-21 0 -33.5 11.5t-12.5 32.5q0 17 9 38q66 -6 93.5 4.5t56.5 46.5q77 92 126 201.5t47 165.5q-2 25 -9 31
q-21 -4 -52 -39t-58.5 -83t-47.5 -106.5t-20 -104.5q0 -20 2 -30q-9 -3 -18 -3q-27 0 -43.5 28t-16.5 81q0 110 70 201.5t147 91.5q63 0 96 -28t33 -75q0 -59 -30 -135t-92 -148.5t-138 -104.5q65 -22 65 -110q0 -85 -56.5 -164.5t-134.5 -79.5z" />
    <glyph glyph-name="four" unicode="4" horiz-adv-x="389" 
d="M131 -171q-16 -4 -40 -4q-32 0 -38.5 18t5.5 51q16 55 44 128q-90 38 -113 43q-46 -52 -63 -63q-32 9 -32 42q0 44 66 51q58 81 116.5 259t58.5 254q0 34 -22 50q15 20 49 20q36 0 53 -23t17 -61q0 -81 -69 -237t-152 -264q35 -5 105 -32q37 96 109.5 274t80.5 197
q31 -3 55.5 -13.5t24.5 -28.5q0 -7 -8.5 -28t-25.5 -62t-27 -65q-94 -235 -119 -300q26 0 48 13q9 -9 9 -22q0 -14 -12 -24t-34 -10q-8 0 -26 2q-28 -72 -60 -165z" />
    <glyph glyph-name="five" unicode="5" horiz-adv-x="354" 
d="M-7 -181q-59 0 -87.5 38t-28.5 91t25 86.5t64 33.5q19 0 39 -14q-41 -75 -41 -143q-2 -41 20 -54q57 10 105.5 122t49.5 205q0 45 -14 63q-17 -8 -32.5 -24.5t-41.5 -52t-39 -51.5q-26 0 -41 6.5t-14 26.5q0 17 43 123q101 240 136 378q18 4 34 4q19 0 35.5 -35.5t40 -83
t56.5 -67.5q20 37 20 94q0 54 -18 82q10 14 26 14q26 0 41 -27t15 -64q1 -62 -35.5 -114.5t-94.5 -52.5q-20 0 -40 22t-31 44t-26 58q-58 -160 -128 -325q21 29 34 44t32 27t39 12q44 0 69 -33t25 -85q0 -79 -31 -159t-87 -134.5t-119 -54.5z" />
    <glyph glyph-name="six" unicode="6" horiz-adv-x="406" 
d="M323 343q8 -52 -19 -135t-80.5 -150.5t-111.5 -67.5q-126 0 -126 135q0 75 31.5 184.5t82.5 216.5t128 182.5t157 75.5q35 0 65 -20.5t30 -52.5q0 -87 -56.5 -188t-120.5 -101q-31 0 -33 27q65 73 98.5 162t26.5 135q-64 -12 -150 -150t-144 -300q31 53 64.5 78t60.5 25
q39 0 66 -14t31 -42zM81 37q24 -6 50.5 22t45.5 71.5t33.5 92t14 85.5t-12.5 51q-50 -4 -95.5 -90.5t-45.5 -174.5q0 -45 10 -57z" />
    <glyph glyph-name="seven" unicode="7" horiz-adv-x="343" 
d="M138 616q16 -65 16 -127q0 -68 -23 -108t-68 -40q-37 0 -45 22q86 113 81 290q9 10 18 10q15 0 32 -10q57 -29 114 -29q65 0 111 33q20 -1 38.5 -14.5t18.5 -28.5q0 -7 -6.5 -17t-19 -26t-17.5 -24q-124 -180 -229 -371t-105 -271q0 -48 30 -68q-15 -23 -52 -23
q-45 0 -64.5 29t-19.5 68q0 36 22.5 90.5t53 107t91.5 137.5t106 144.5t128 167.5q-45 -34 -87 -34q-66 0 -124 92z" />
    <glyph glyph-name="eight" unicode="8" horiz-adv-x="351" 
d="M54 -10q-49 0 -82.5 36t-33.5 77q0 63 50 129.5t132 113.5q-2 19 -8 59.5t-9 69t-3 55.5q0 120 65 187t141 67q52 0 86.5 -27.5t34.5 -71.5q0 -84 -59 -182.5t-150 -144.5q11 -82 11 -131q0 -102 -41 -169.5t-134 -67.5zM199 546q0 -49 14 -155q54 64 87 146.5t33 143.5
q0 54 -26 71q-36 -10 -72 -68.5t-36 -137.5zM52 23q76 28 76 212q0 45 -4 77q-44 -41 -68.5 -98.5t-25.5 -109.5q0 -67 22 -81z" />
    <glyph glyph-name="nine" unicode="9" horiz-adv-x="361" 
d="M287 584q0 39 -25 44q-27 -23 -61.5 -90t-62.5 -146q-31 -85 -42.5 -151t2.5 -83q25 6 63 65t68 136q58 151 58 225zM-36 -181q-48 0 -72.5 27t-24.5 68q0 46 23 84.5t58 38.5q32 0 44 -19q-24 -30 -41.5 -78.5t-10.5 -77.5q46 7 107 93.5t127 239.5q-54 -89 -98 -89
q-35 0 -57 26.5t-23 63.5q-2 93 48 224q39 103 95 173.5t116 70.5q109 0 109 -114q0 -101 -70 -294q-29 -80 -63.5 -153t-77 -139t-92 -105.5t-97.5 -39.5z" />
    <glyph glyph-name="colon" unicode=":" horiz-adv-x="269" 
d="M-4 46q0 16 21.5 44t42.5 28q27 0 47 -11t20 -28q0 -25 -26 -56t-53 -31q-19 0 -35.5 16t-16.5 38zM115 346q0 16 21.5 44t42.5 28q27 0 47 -11t20 -28q0 -25 -26 -56t-53 -31q-19 0 -35.5 15.5t-16.5 38.5z" />
    <glyph glyph-name="semicolon" unicode=";" horiz-adv-x="269" 
d="M115 342q0 18 20 47t44 29q27 0 47 -11t20 -28q0 -25 -26 -56t-53 -31q-18 0 -35 15.5t-17 34.5zM31 90q0 7 -2 25q13 11 31 11q21 0 36.5 -13.5t15.5 -36.5q0 -55 -62.5 -123.5t-103.5 -68.5q-14 0 -17 13q102 92 102 193z" />
    <glyph glyph-name="less" unicode="&#x3c;" horiz-adv-x="442" 
d="M279 106q-15 0 -34.5 15t-32 29.5t-37.5 45.5q-66 82 -106 97q10 47 44 58q171 58 315 171q10 -3 9 -19q-2 -78 -252 -205q16 -25 42.5 -69.5t42 -67t31.5 -40.5q-7 -15 -22 -15z" />
    <glyph glyph-name="equal" unicode="=" horiz-adv-x="362" 
d="M301 305q2 -8 2 -15q0 -17 -12 -30t-41 -13q-16 0 -99.5 4t-112.5 2q-2 10 -2 16q0 36 50 36q32 0 80.5 -1t80 -1t54.5 2zM342 423q2 -8 2 -15q0 -43 -53 -43q-16 0 -100 4t-112 2q-2 8 -2 14q0 38 50 38q32 0 80.5 -1t80 -1t54.5 2z" />
    <glyph glyph-name="greater" unicode="&#x3e;" horiz-adv-x="442" 
d="M31 85q-9 2 -9 19q0 73 250 200q-7 11 -60 101q-34 59 -54 81q7 15 22 15q22 0 46.5 -23t60.5 -69q68 -83 101 -100q-10 -47 -44 -58q-179 -61 -313 -166z" />
    <glyph glyph-name="question" unicode="?" horiz-adv-x="555" 
d="M242 166q-32 0 -54.5 17t-22.5 54q0 32 27.5 64t83.5 80q39 34 56.5 50t51 52.5t49.5 64t30 67.5t14 81q0 65 -41 102q-86 -1 -154.5 -82t-68.5 -169q0 -33 14 -61q44 17 64 55.5t20 79.5q0 19 -5 34q11 14 33 14q41 0 41 -55t-39.5 -107.5t-101.5 -53.5
q-54 -1 -79.5 27.5t-25.5 80.5q0 64 31 125.5t94.5 104.5t143.5 43q73 0 122.5 -46.5t49.5 -124.5q0 -24 -5 -48t-11.5 -43.5t-21 -42t-24 -37t-31 -36t-31 -31.5t-35.5 -30.5t-33.5 -26.5t-35 -26t-31.5 -23q-42 -31 -63 -52t-21 -39q0 -29 43 -37q0 -25 -33 -25zM101 48
q0 21 22.5 53t49.5 32q30 0 52 -12t22 -31q0 -29 -29 -63.5t-59 -34.5q-20 0 -39 17t-19 39z" />
    <glyph glyph-name="at" unicode="@" horiz-adv-x="661" 
d="M197 -104q-112 0 -168 67t-56 174q0 66 20 136.5t58.5 135t89.5 116t119 82.5t142 31q121 0 178 -60t57 -162q1 -81 -34.5 -165.5t-100.5 -143t-138 -58.5q-20 0 -38 19.5t-18 40.5q0 8 4.5 23t12 37.5t11.5 36.5q-75 -147 -133 -147q-28 0 -54 25t-26 58q0 73 37 163
q72 182 153 182q31 0 57 -26.5t32 -62.5q6 17 14.5 46t9.5 33q18 1 33 1t25 -6.5t10 -19.5q0 -24 -58 -178t-64 -187q32 -8 77 47t79 138.5t36 149.5q2 82 -33.5 130.5t-109.5 48.5q-104 0 -192 -76.5t-134.5 -188.5t-46.5 -225q0 -80 32 -128.5t93 -48.5q40 0 74.5 19
t49.5 47q40 3 40 -29q0 -34 -41.5 -54.5t-98.5 -20.5zM330 252q51 87 51 119q0 22 -14 38t-27 16q-30 0 -96 -165q-19 -46 -29 -91t-7 -61q55 27 122 144z" />
    <glyph glyph-name="A" unicode="A" horiz-adv-x="827" 
d="M504 200q-10 -27 -28 -75q16 1 102 4q30 90 102 271.5t103.5 281.5t6.5 114q-54 -36 -124 -191t-162 -405zM660 -210q-129 0 -129 129q0 54 27 145q-99 6 -105 6q-35 -79 -66 -128.5t-66 -76t-69.5 -36t-83.5 -9.5q-85 0 -126.5 58.5t-41.5 150.5q0 87 32.5 174t93 146.5
t130.5 59.5q57 0 87 -38t30 -95q0 -54 -26.5 -107.5t-75.5 -88.5q51 23 117 35q13 28 37 88q130 333 219 485.5t170 152.5q34 0 57 -27t23 -65q0 -46 -32 -143.5t-90 -248t-84 -225.5q35 1 70 8q2 -4 2 -9q0 -17 -25.5 -37t-67.5 -28q-34 -110 -34 -171q0 -58 46 -58
q33 0 62 37q14 -3 14 -15q0 -23 -26.5 -46t-68.5 -23zM186 -141q86 21 180 211q-83 -7 -152 -32q-16 -4 -21 -4q-15 0 -20 13q35 22 78 108t43 152q0 48 -31 66q-64 -21 -114 -131t-50 -219q0 -139 87 -164z" />
    <glyph glyph-name="B" unicode="B" horiz-adv-x="738" 
d="M381 -130q60 23 120 118.5t60 175.5q0 42 -20 68q-65 -29 -91 -3q-13 -34 -14 -36q-74 -182 -141 -270q46 -40 86 -53zM379 -181q-56 0 -120 62q-60 -62 -123 -62t-99.5 38t-36.5 88q0 44 31 74.5t88 30.5q47 0 117 -70q25 48 55 120.5t52 130t58 156t54 146.5
q42 113 104 113q21 0 44 -12q-9 -16 -30 -72t-53.5 -147.5t-51.5 -140.5q21 9 62 -5q65 58 107.5 159t42.5 193q0 130 -84 167q-11 2 -27 2q-66 0 -126 -46.5t-99.5 -117.5t-63 -153.5t-23.5 -155.5q0 -88 34 -135q-10 -23 -39 -23q-41 0 -67.5 41t-26.5 121
q0 79 27.5 167.5t75.5 166.5t123 129t160 51q126 0 184 -57t58 -156q0 -90 -67.5 -206.5t-144.5 -166.5q63 -42 63 -135q0 -119 -78 -207t-180 -88zM137 -148q35 16 74 82q-4 5 -11 13.5t-11 13t-10.5 12t-10 12t-9 10t-9.5 9t-9 7.5t-9 6t-8 3q-17 -8 -29 -32.5t-12 -52.5
q0 -64 54 -83z" />
    <glyph glyph-name="C" unicode="C" horiz-adv-x="824" 
d="M600 199q28 6 78 103.5t89.5 224.5t39.5 203q0 48 -17 65q-75 -22 -157 -126.5t-161 -297.5q-36 -88 -62 -170q104 87 161 220q30 69 59.5 99t70.5 4q-43 -90 -74.5 -177t-31.5 -128q0 -15 5 -20zM623 45q-3 -75 -68.5 -151.5t-161.5 -76.5q-123 0 -123 172q0 49 11 112
q-44 -11 -85 -11q-106 0 -152.5 53.5t-43.5 146.5q3 82 36 166t92 143.5t125 59.5q50 0 74.5 -27.5t24.5 -73.5q0 -59 -19 -114.5t-46 -92.5t-55.5 -59t-48.5 -22q-16 0 -23 14q37 46 79.5 149.5t42.5 158.5q1 27 -13 35q-54 -20 -111 -132t-60 -202q-3 -89 33.5 -129.5
t93.5 -38.5q31 0 63 9q26 120 82 255q48 118 101.5 206t103.5 137.5t95.5 73t87.5 23.5q67 0 103.5 -39t36.5 -112q0 -83 -41 -205t-108.5 -218.5t-128.5 -96.5q-28 0 -54.5 21t-30.5 55q-3 32 7 74q-55 -96 -146 -155q-28 -101 -28 -175q0 -108 56 -124q88 49 132 243
q9 3 19 3q21 0 35 -14t13 -41z" />
    <glyph glyph-name="D" unicode="D" horiz-adv-x="764" 
d="M366 -181q-38 0 -97 59q-56 -59 -133 -59q-63 0 -99.5 38t-36.5 88q0 44 30.5 74.5t88.5 30.5q47 0 114 -67q40 82 117.5 292t106.5 280q26 65 48 90t49 25q26 0 46 -20q-43 -111 -117.5 -309t-82.5 -218q-51 -135 -99 -206q38 -31 69 -40q43 18 114.5 150t119.5 290
q58 194 58 313q0 127 -66 158q-7 1 -14 1q-88 0 -164 -78.5t-116.5 -187.5t-40.5 -210q-2 -77 26 -127q-12 -19 -40 -19q-35 0 -62 37t-27 118q0 59 18 128.5t51.5 137t78 123t102.5 89.5t119 34q46 0 86 -12.5t74.5 -39t54 -73.5t19.5 -110q0 -91 -45 -259
q-34 -124 -89 -241t-126 -198.5t-135 -81.5zM137 -148q33 16 74 88q-64 73 -87 80q-17 -8 -29 -33t-12 -54q0 -62 54 -81z" />
    <glyph glyph-name="E" unicode="E" horiz-adv-x="694" 
d="M658 797q-57 0 -109.5 -61.5t-83 -150.5t-34.5 -176q15 20 49 82q49 91 70 111q16 15 30 15q9 0 18 -6q-19 -58 -19 -104q0 -57 29 -97q40 28 69 110.5t29 159.5q0 96 -48 117zM561 41q0 -48 -24 -98t-75 -87t-115 -37q-86 0 -129 48t-43 120q0 93 61.5 171t156.5 86
q-17 18 -32 52q-83 -56 -173 -56q-98 0 -143 51t-45 139q0 100 61.5 192t147.5 92q50 0 76.5 -29t26.5 -75q0 -63 -40 -132.5t-86 -69.5q-22 0 -27 18q25 30 51.5 105.5t26.5 119.5q0 25 -11 31q-55 -21 -91.5 -100.5t-36.5 -160.5q0 -69 28.5 -106.5t82.5 -37.5
q72 0 141 52q-12 45 -12 99q0 96 34 188.5t102 157t153 64.5q86 0 128 -53t42 -135q0 -103 -56.5 -190.5t-135.5 -87.5q-46 0 -71.5 26t-29.5 66q-28 -59 -73 -107q5 -64 28 -103q64 19 124 52q15 -21 15 -42q0 -32 -25.5 -52.5t-62.5 -20.5q-43 0 -84 25
q-70 -27 -107.5 -104.5t-37.5 -157.5q0 -77 32 -95q52 2 89.5 48.5t53 101.5t18.5 111q14 2 19 2q33 0 50.5 -22.5t17.5 -58.5z" />
    <glyph glyph-name="F" unicode="F" horiz-adv-x="671" 
d="M193 -181q-62 0 -117 48t-55 112q0 49 39 79.5t79 30.5q25 0 35.5 -7t9.5 -27q-32 -7 -51 -31.5t-19 -55.5q0 -59 66 -104q55 25 124 195q31 75 58 146q-76 -3 -132.5 -17t-101.5 -53q-19 17 -19 47q0 34 30.5 60t93.5 26q25 0 149 -12q75 197 153 425q16 46 25 66
q-179 40 -260 50q-54 -22 -89.5 -97.5t-35.5 -156.5q0 -123 76 -150q76 59 76 225q0 27 -2 47q19 8 36 8q30 0 46 -27t16 -69q0 -80 -47 -149.5t-125 -69.5q-83 0 -127.5 53.5t-44.5 133.5q0 71 29.5 137t90.5 112t140 46q33 0 180 -13t222 -13q69 0 111 13q6 -9 6 -23
q0 -31 -30 -57.5t-87 -26.5q-37 0 -114 14q14 -19 9 -35q-78 -236 -157 -449q39 -2 57 -1q24 93 84 156q33 -13 33 -43q0 -32 -18.5 -70t-48.5 -58q-10 -25 -17 -106q-3 -1 -8 -1q-35 0 -35 57q0 10 2 30q-30 -4 -64 -6q-48 -125 -73 -182q-91 -207 -198 -207z" />
    <glyph glyph-name="G" unicode="G" horiz-adv-x="723" 
d="M702 793q-46 -13 -103 -102.5t-105 -205.5t-77 -228q73 27 133.5 88.5t96 132.5t54.5 138t19 117q0 49 -18 60zM352 -294q-70 0 -121.5 35.5t-51.5 87.5q0 49 37 73t79 24q25 0 35 -6t10 -28q-69 -16 -69 -62q0 -41 55 -79q44 30 71.5 82t99.5 231q-52 -90 -103 -90
q-48 0 -76 40t-28 107q0 37 6 77h-23q-134 0 -203.5 46t-69.5 150q0 78 30 161t87 142t123 59q50 0 76.5 -29t26.5 -75q0 -117 -55.5 -202.5t-100.5 -85.5q-18 0 -24 17q34 46 71.5 146.5t37.5 156.5q0 32 -15 40q-53 -20 -106 -132t-53 -202q0 -91 45 -122.5t160 -31.5
q25 127 84 265t139.5 237.5t149.5 99.5q55 0 92.5 -39.5t37.5 -93.5q0 -71 -24.5 -146.5t-72 -145.5t-126.5 -124.5t-177 -76.5q-17 -74 -17 -124q0 -52 20 -65q32 1 69.5 54t65.5 126q30 5 45 5q38 0 38 -22q0 -41 -107 -310q-30 -75 -78 -122.5t-90 -47.5z" />
    <glyph glyph-name="H" unicode="H" horiz-adv-x="763" 
d="M484 -171q-53 0 -53 32q0 95 -18 192q-22 -4 -70 -8q-43 -114 -78 -212q-11 -4 -25 -4q-42 0 -42 29q0 40 49 190q-81 12 -124 56t-43 104q0 64 40.5 108t115.5 44q59 0 107 -46q5 13 19 49t22 55q98 247 141 332q-129 -117 -186 -158q-97 -68 -159 -68q-49 0 -74 32.5
t-25 73.5q0 26 10 43.5t27 17.5q13 -31 30.5 -46.5t52.5 -15.5q40 0 98.5 25t103 53t93 61t56.5 38q24 -3 45.5 -19.5t21.5 -33.5q0 -3 -3 -10t-8 -19t-8 -20q-14 -36 -82 -209t-110 -281q25 -57 38 -121q32 6 63 15l6 18q69 207 217 576q27 67 64 100t92 33q35 0 54 -11.5
t19 -26.5q0 -8 -6 -14q-20 10 -44 10q-42 0 -70 -68q-73 -172 -216 -567q49 30 73 64q18 -4 18 -19q0 -47 -109 -96q-88 -244 -100 -276q-8 -2 -23 -2zM179 207q0 -42 21 -75.5t59 -45.5q25 72 53 147q2 6 6.5 17.5t6.5 17.5q-42 50 -98 53q-48 -47 -48 -114zM357 81
q18 1 49 5q-11 44 -20 70q-20 -50 -29 -75zM463 -41q13 49 33 111q-14 -4 -44 -10q10 -54 11 -101z" />
    <glyph glyph-name="I" unicode="I" horiz-adv-x="548" 
d="M311 -182q-35 0 -95 18q-45 13 -63 13q-37 0 -69 -28q-23 3 -23 30q0 29 27 56.5t72 27.5q35 0 91 -29q-12 19 -12 41q0 59 86 286q76 202 224 491q-43 6 -136 36t-150 37q-59 -22 -110.5 -157.5t-51.5 -247.5q0 -95 42 -109q51 41 80.5 162.5t28.5 202.5q0 15 -1 20
q6 2 19 2q31 1 50.5 -26.5t19.5 -88.5q0 -66 -23 -135.5t-69.5 -120.5t-104.5 -51q-67 0 -101 51.5t-33 133.5q1 89 37 180t109 156.5t163 65.5q44 0 167.5 -8.5t156.5 -8.5q75 0 103 17q11 -9 11 -27q0 -32 -35 -58.5t-104 -29.5q-189 -468 -313 -838q14 -4 21 -4
q46 0 70 36q17 -5 17 -19q0 -26 -27 -51.5t-74 -25.5z" />
    <glyph glyph-name="J" unicode="J" horiz-adv-x="575" 
d="M149 -214q-69 0 -109 35.5t-40 85.5q0 74 71.5 118.5t247.5 73.5q13 32 56 144.5t68.5 176t62 150t64.5 140.5q-193 -90 -309 -206q-56 -56 -93 -137t-37 -139q0 -53 30 -69q54 38 100 156.5t48 183.5q7 3 17 3q47 0 47 -70q0 -59 -25.5 -129.5t-74.5 -124.5t-103 -54
q-62 0 -91.5 42t-29.5 108q0 74 30 139.5t84.5 116.5t121 91t148.5 72q25 10 160 59q27 47 58.5 82.5t55.5 35.5q18 0 36.5 -20.5t18.5 -43.5q0 -46 -120 -70q-32 -85 -102.5 -292t-98.5 -284q33 29 70 69q22 -3 22 -25t-22.5 -42.5t-39.5 -28.5t-47 -20q-21 -59 -48 -121
q-50 -111 -98.5 -158.5t-128.5 -47.5zM91 -82h1q0 -35 18.5 -61.5t50.5 -31.5q29 17 58.5 63.5t44.5 79t39 91.5q-16 -6 -48.5 -19t-46.5 -18.5t-37.5 -16.5t-34 -19t-23.5 -19t-17.5 -23t-4.5 -26z" />
    <glyph glyph-name="K" unicode="K" horiz-adv-x="822" 
d="M685 -125q0 -22 -29 -42t-65 -20q-35 0 -52 27t-16.5 66.5t1.5 84.5q4 42 2.5 83.5t-14.5 60.5q-21 -53 -48 -109q-103 -207 -260 -207q-101 0 -152.5 64t-51.5 160q0 78 31 150t92 120t138 48q56 0 84.5 -35.5t28.5 -91.5q0 -55 -19 -99t-48 -69t-58.5 -38t-54.5 -13
q-35 0 -35 22q59 49 99 120t40 124q0 34 -20 52q-76 -22 -125.5 -107.5t-49.5 -182.5q0 -65 26 -116t79 -73q89 47 164 197q22 48 127 319t157 365q-20 -3 -67.5 -10t-77 -12.5t-74.5 -15t-74.5 -21.5t-61 -29.5t-51.5 -42t-28 -54.5q36 -6 70 -6q110 0 160 52
q32 -16 32 -46q0 -33 -36.5 -60t-93.5 -27q-82 0 -131.5 37t-49.5 105q0 29 10 53t32.5 40.5t44 28.5t61 19.5t66 12t75.5 6.5t72.5 2.5t74.5 1.5q12 0 35.5 0.5t33.5 0.5q37 49 72 74q17 0 31.5 -11.5t14.5 -26.5q0 -32 -59 -53q-30 -76 -103.5 -285t-108.5 -299
q31 11 60 38.5t50 57.5t46 82.5t39 87t38 95.5q21 54 30.5 77.5t29 68t33 65t32.5 45.5t37.5 35t39.5 10q43 0 51 -31q-32 -18 -61 -69t-64 -138q-73 -180 -101 -234q-95 -183 -211 -212q-15 -4 -30 -5q72 -34 74 -129v-41t0.5 -41.5t2.5 -36.5t6 -25q24 5 43 24
q15 -3 15 -18z" />
    <glyph glyph-name="L" unicode="L" horiz-adv-x="743" 
d="M489 293q-22 -58 -39 -101q67 25 124 94t90.5 152t52 161.5t18.5 134.5q0 50 -15 59q-20 -8 -48.5 -57t-66 -140t-59 -147.5t-57.5 -155.5zM464 -188v1q-28 0 -57 15.5t-47 31.5t-47 47q-67 -86 -170 -86q-68 0 -105.5 35t-37.5 86t33.5 84t93.5 33q46 0 135 -47
q9 19 56 135q-113 14 -181.5 78t-68.5 170q0 78 30 161t87 142t123 59q50 0 76.5 -29t26.5 -75q0 -74 -29.5 -143.5t-66 -107t-62.5 -37.5q-16 0 -22 17q34 45 71.5 146.5t37.5 157.5q0 32 -15 39q-54 -21 -106.5 -129.5t-52.5 -204.5q0 -88 37.5 -137t129.5 -69
q160 407 221 519q74 135 140 135q55 0 92.5 -39.5t37.5 -93.5q0 -74 -26 -162t-73.5 -172.5t-124.5 -147t-168 -77.5q-60 -143 -85 -187q89 -53 150 -53q65 0 93 73q20 0 20 -29q0 -47 -38.5 -93t-107.5 -46zM93 -64q0 -29 14 -51.5t39 -28.5q53 29 96 114q-55 40 -103 48
q-46 -18 -46 -82z" />
    <glyph glyph-name="M" unicode="M" horiz-adv-x="1026" 
d="M846 -210q-121 0 -121 125q0 70 41 183t90.5 211t90.5 197t41 145q0 30 -15 45q-37 -36 -74.5 -87.5t-66.5 -101t-62 -120t-53.5 -119t-48 -124.5t-39.5 -111t-34.5 -104t-25.5 -78q-47 -2 -67 6t-20 33q0 11 4 29t15 51t21.5 63.5t32 92.5t38.5 112q15 44 37 103.5
t37 100.5t31.5 89t25.5 81.5t14.5 65t2 53t-14.5 33.5q-84 -67 -260 -522q-41 -106 -96 -253t-61 -163q-81 0 -81 43q0 40 38.5 147t84.5 219.5t84.5 242t38.5 207.5q0 67 -28 99q-64 6 -122 -21t-99.5 -74.5t-72.5 -107t-46.5 -118.5t-15.5 -109q0 -70 31 -94
q54 5 94 101.5t40 186.5q0 30 -6 48q15 12 38 12q32 0 48.5 -25t16.5 -67q0 -59 -26.5 -125.5t-76 -115.5t-105.5 -49q-73 0 -108.5 47.5t-35.5 125.5q0 69 27.5 146t74 143t115 109t142.5 43q64 0 107.5 -27.5t62 -74t21.5 -107t-15 -126.5q22 55 36 87t33 74t34.5 65.5
t34 46.5t37.5 33t39 10q41 0 64.5 -25.5t23.5 -58.5q0 -81 -92 -327q67 152 128.5 245.5t101.5 93.5q48 0 79 -24t31 -68t-42.5 -151.5t-93.5 -216.5t-93.5 -226.5t-42.5 -177.5q0 -61 96 -61q1 -3 1 -6q0 -6 -5 -12t-20.5 -11t-38.5 -5z" />
    <glyph glyph-name="N" unicode="N" horiz-adv-x="876" 
d="M692 -188q-15 -7 -31 -7q-39 0 -51 33q-28 77 -26 225q0 235 62 658q-15 -49 -36 -138.5t-40 -166.5t-45 -169t-57 -164t-69.5 -134t-89 -96t-109.5 -34q-99 0 -149.5 67t-50.5 169q0 84 31.5 164t94 135t140.5 55q52 0 76.5 -35t24.5 -90q-1 -74 -40 -139t-92 -65
q-35 0 -47 33q42 36 75.5 107t33.5 120q0 30 -14 41q-78 -22 -129.5 -119.5t-51.5 -205.5q0 -71 25.5 -123.5t77.5 -72.5q27 13 52 34t45.5 42t42.5 58t36 61t34.5 74t30.5 75t29.5 85t27 83t27.5 89q9 28 13 42q51 166 83 247q-103 -93 -212 -164.5t-178 -71.5
q-59 0 -88 33.5t-29 77.5q0 24 10 40.5t25 17.5q13 -33 30.5 -48.5t52.5 -15.5q66 0 169 46.5t170 89.5t95 66q30 -6 54 -25.5t24 -40.5q0 -11 -3 -27.5t-11 -55t-15 -79.5q-27 -151 -39 -339.5t-3 -296.5q133 571 205 744q30 72 61.5 102t67.5 30q28 0 45.5 -12t22.5 -28
q-96 -53 -183.5 -265t-194.5 -618q-15 -54 -10 -98z" />
    <glyph glyph-name="O" unicode="O" horiz-adv-x="634" 
d="M204 -183q-129 0 -129 151q0 48 15 116q-88 43 -88 181q0 84 35.5 182.5t93.5 183t141.5 141t169.5 56.5q91 0 152.5 -52.5t61.5 -163.5q0 -64 -25 -164.5t-70.5 -208.5t-101 -203.5t-124 -157t-131.5 -61.5zM203 -144q50 12 137.5 161t157 337.5t69.5 296.5t-65 138
q-86 1 -168 -59t-137.5 -148.5t-89 -186t-33.5 -174.5q0 -64 25 -95q22 88 58 179t82.5 173t103.5 134t112 52q31 0 35 -18q-78 -54 -166 -218t-133 -324q34 12 68.5 53t62 95t48 104.5t33.5 94.5q4 1 9 1q14 0 23 -17.5t7 -57.5q-3 -45 -20 -95t-47 -98.5t-80.5 -81
t-112.5 -35.5q-18 -69 -18 -123q0 -73 39 -88z" />
    <glyph glyph-name="P" unicode="P" horiz-adv-x="716" 
d="M106 -181q-58 0 -88.5 28.5t-30.5 64.5q0 44 37 59q68 -86 121 -97q16 19 34 54.5t29.5 64t27.5 69t20 50.5q8 19 74 191.5t105 260.5q45 103 108 103q21 0 34 -15q-4 -10 -17.5 -43.5t-16.5 -40.5q-19 -46 -88.5 -223t-109.5 -271h9q68 0 138 97t111 219.5t41 208.5
q0 89 -38.5 141t-111.5 63q-93 -6 -172.5 -54t-131 -120.5t-80.5 -158.5t-29 -171q0 -96 37 -104q48 39 88.5 160.5t40.5 207.5q0 17 -1 24q8 4 18 4q24 0 41 -27t17 -80q0 -61 -25 -134.5t-74 -131.5t-105 -58q-61 0 -91.5 46t-30.5 122q0 82 32.5 170t90 163.5t146 124.5
t189.5 49q143 0 216.5 -65t73.5 -184q1 -110 -51.5 -241.5t-132 -222t-148.5 -90.5q-30 0 -79 15q-3 -6 -8 -18.5t-8 -18.5q-20 -46 -34.5 -72.5t-40 -58t-59 -46t-77.5 -14.5z" />
    <glyph glyph-name="Q" unicode="Q" horiz-adv-x="655" 
d="M268 -362q-107 0 -107 134q0 24 5 56q-71 31 -71 142q0 62 23 159q-99 39 -99 180q0 79 33.5 170t89 168.5t136 129t165.5 51.5q99 0 159.5 -55t60.5 -171q0 -82 -36.5 -212t-94 -256.5t-139 -219.5t-159.5 -97q-2 -24 -2 -33q0 -46 17.5 -70.5t47.5 -24.5q34 0 53 29
q12 0 12 -10q0 -24 -28 -47t-66 -23zM350 75q-35 -32 -65.5 -96t-44.5 -128q69 50 149 204.5t132 322t52 264.5q0 115 -68 147q-85 1 -164.5 -53.5t-132.5 -135t-84.5 -169.5t-31.5 -161q0 -73 35 -104q23 87 57 171.5t77 159.5t96 121t105 46q29 0 35 -18
q-71 -50 -158 -197.5t-136 -298.5q43 8 79 34.5t56.5 60.5t35 72.5t14 69.5t-5.5 52q15 23 42 23q20 1 32.5 -15.5t11.5 -48.5q-2 -61 -36.5 -125t-99 -110.5t-139.5 -46.5q-28 -95 -28 -164q0 -61 9 -87q23 86 73 155t83 69q18 0 20 -14z" />
    <glyph glyph-name="R" unicode="R" horiz-adv-x="858" 
d="M702 -125q0 -22 -29 -42t-65 -20q-35 0 -52 27.5t-16.5 67.5t1.5 86q6 113 -12 141q-8 -1 -23 -1q-58 -150 -129.5 -232.5t-176.5 -82.5q-99 0 -150 68t-50 171q1 84 32.5 163t94 133.5t139.5 54.5q54 0 82 -38t28 -96q0 -96 -53 -179.5t-130 -83.5q-33 0 -39 23
q61 50 104 138t43 154q0 39 -18 54q-78 -22 -129.5 -122t-51.5 -209q0 -70 25.5 -122.5t76.5 -73.5q33 18 62 45.5t56 72t45.5 79t44.5 102t38.5 103t40.5 116.5q49 137 58 161q41 109 103 109q25 0 31 -18q-6 -5 -12 -13t-11 -19.5t-8.5 -19.5t-7.5 -20.5t-5 -14.5
q-20 -58 -57.5 -178.5t-57.5 -176.5q12 -5 20 -14q88 53 168.5 224t81.5 304q0 67 -26 94q-39 0 -92.5 -29.5t-107.5 -71.5t-109 -84t-113 -71.5t-105 -29.5q-55 0 -81.5 32t-26.5 82q0 23 9.5 38.5t26.5 16.5q9 -29 25.5 -46.5t50.5 -17.5q41 0 111 35.5t134 77.5
t135.5 77.5t115.5 35.5q79 0 118 -47t39 -113q0 -53 -24 -132t-64.5 -160t-103.5 -149t-131 -90q66 -44 61 -181q-2 -74 8 -94q24 5 43 24q15 -3 15 -18z" />
    <glyph glyph-name="S" unicode="S" horiz-adv-x="617" 
d="M521 136q0 -129 -75 -222.5t-203 -93.5q-123 0 -183 70t-60 175q0 111 63.5 199t162.5 88q66 0 101.5 -50.5t35.5 -120.5q0 -72 -33.5 -124.5t-91.5 -52.5q-35 0 -49 23q33 33 56 91t23 110q0 64 -38 84q-50 -13 -86 -89.5t-36 -165.5q0 -77 35 -131.5t106 -64.5
q71 16 120.5 96t49.5 160q0 73 -19 143.5t-42 117.5t-42 113.5t-19 132.5q0 96 52.5 153.5t118.5 57.5q80 0 124 -41t56 -104q-2 44 -2 70q0 177 74 177q23 0 43 -15t28 -41q-25 -13 -45 -34t-32 -39t-24 -51t-16.5 -49t-14.5 -54q-14 -55 -28 -90q-16 -37 -41.5 -59.5
t-51.5 -22.5q-25 0 -44 19q62 70 64 168q0 98 -62 133q-40 -2 -68.5 -45t-28.5 -109q0 -61 19 -127t42 -116t42 -123t19 -146z" />
    <glyph glyph-name="T" unicode="T" horiz-adv-x="580" 
d="M153 -181q-72 0 -112.5 44t-40.5 115q0 69 38 110.5t89 41.5q28 0 40 -13t10 -28q-37 -15 -61 -48.5t-24 -82.5q0 -41 16.5 -68.5t41.5 -35.5q48 18 81.5 65t72.5 140q50 122 148.5 392.5t103.5 282.5q-12 3 -98.5 29.5t-139.5 33.5q-59 -22 -110.5 -158t-51.5 -248
q0 -94 42 -108q49 39 78.5 150.5t29.5 193.5q0 25 -3 36q10 13 31 13q30 0 46 -31.5t16 -81.5q0 -67 -23 -138t-70 -124t-105 -53q-67 0 -101 51t-33 133q0 89 36.5 180.5t109.5 157t163 65.5q30 0 159.5 -8.5t164.5 -8.5q59 0 78 18q15 -10 15 -30q0 -86 -131 -86
q-14 0 -38 2q14 -26 8 -41q-15 -43 -71 -204.5t-96.5 -272t-70.5 -178.5q-50 -111 -102 -159t-136 -48z" />
    <glyph glyph-name="U" unicode="U" horiz-adv-x="736" 
d="M571 -210q-110 0 -110 137q0 69 28 175q-49 -143 -100 -212.5t-113 -69.5q-39 0 -64.5 27t-25.5 80q0 58 30.5 136.5t88.5 198.5q97 200 123 272q31 87 31 145q0 82 -46 108q-68 -5 -129.5 -57.5t-101 -126t-63 -153.5t-23.5 -145q0 -91 41 -107q40 47 65.5 131.5
t25.5 157.5q0 32 -6 56q8 10 25 10q27 0 48.5 -25t21.5 -75q0 -55 -24.5 -122.5t-74 -120.5t-108.5 -53q-54 0 -82 41t-28 105q0 121 48 243.5t133 205t180 82.5q72 0 131 -54t59 -136q0 -42 -26.5 -121.5t-48 -130t-73.5 -166.5q-56 -126 -85.5 -204.5t-29.5 -124.5
q0 -22 7 -33q47 12 135.5 190t180.5 406q114 283 107 360q20 6 41 6q58 0 58 -48q0 -47 -29 -132t-86 -228q-49 -121 -74.5 -188t-52 -163t-26.5 -155q0 -75 48 -75q40 0 59 41q15 0 15 -18q0 -24 -27.5 -47t-72.5 -23z" />
    <glyph glyph-name="V" unicode="V" horiz-adv-x="663" 
d="M287 -179q-36 0 -60.5 29t-24.5 71q0 34 19.5 103.5t39.5 126t59 160.5t58 158.5t38.5 124t19.5 104.5q0 68 -26 88q-55 -5 -105.5 -41t-87.5 -89t-65 -116t-42 -125t-14 -112q-2 -87 40 -105q44 56 76.5 165t32.5 189q0 39 -9 60q13 13 34 13q26 0 44.5 -27t18.5 -73
q0 -65 -30.5 -150.5t-84 -151.5t-108.5 -66q-54 0 -82 41t-28 105q0 121 48 243.5t133 205t180 82.5q65 0 117.5 -48t52.5 -120q0 -35 -19.5 -104t-45 -138t-60.5 -161q-11 -28 -16 -41q-98 -256 -98 -317q0 -30 14 -40q35 31 80.5 124.5t79.5 183t95 258.5q54 160 99.5 250
t83.5 122t85 32q34 0 50.5 -13t16.5 -29q0 -9 -5 -14q-16 8 -32 8q-15 0 -29.5 -7.5t-29 -24.5t-27 -34.5t-26.5 -47.5t-25 -53.5t-25.5 -62.5t-23.5 -64t-24 -67q-44 -114 -75.5 -190.5t-65 -151t-59 -118.5t-53.5 -79.5t-54.5 -50.5t-54.5 -15z" />
    <glyph glyph-name="W" unicode="W" horiz-adv-x="905" 
d="M535 -181q-63 0 -75 117q-97 -116 -175 -116q-36 0 -59 33t-23 97q0 27 8.5 65.5t32.5 106.5t35 96.5t47 121.5q36 92 55 144.5t37 116t18 97.5q0 68 -26 88q-67 -6 -128 -59t-100.5 -127t-62.5 -153t-23 -142q0 -90 41 -108q54 61 54 174q0 39 -10 61q14 17 34 17
q27 0 40.5 -23t13.5 -59q0 -73 -44.5 -141.5t-114.5 -68.5q-54 0 -82 41t-28 105q0 121 48 243.5t133 205t180 82.5q65 0 117.5 -48.5t52.5 -122.5t-107 -352q-44 -112 -64.5 -166.5t-42.5 -128.5t-22 -110q0 -26 9 -42q69 23 153 124q0 136 42 311.5t105.5 302t118.5 126.5
q30 0 47.5 -22.5t15.5 -54.5q-4 -68 -64 -221q-88 -227 -177 -372q-7 -68 -7 -105q0 -74 20 -93q28 21 52 55.5t40 65.5t36.5 92.5t31 97.5t33.5 122.5t35 128.5q46 165 85 253t78.5 121.5t94.5 33.5q39 0 65.5 -13.5t26.5 -30.5q0 -4 -3 -9q-17 5 -37 5q-68 0 -116.5 -85
t-105.5 -273q-100 -332 -175 -468.5t-164 -136.5zM737 688q-40 -38 -94 -205t-84 -342q76 159 130 315.5t54 211.5q0 17 -6 20z" />
    <glyph glyph-name="X" unicode="X" horiz-adv-x="631" 
d="M330 -181q-40 0 -69 24.5t-29 75.5q0 81 35 252q-90 -180 -151.5 -265.5t-115.5 -85.5q-18 0 -34.5 10t-24.5 19t-24 30q-32 42 -59 55q34 62 66 62q26 0 45.5 -35t25.5 -84q239 299 283 350q4 18 21 99t22.5 112t16 89.5t14.5 98t4 72.5q0 74 -7 92q-77 -14 -138 -87
t-90 -164t-29 -176q0 -76 26 -119q29 30 44 80t15 97q0 41 -10 63q14 17 34 17q55 0 55 -88q0 -72 -41 -138t-102 -66q-50 0 -80.5 37.5t-30.5 112.5q0 107 40.5 216.5t114 184t157.5 74.5q58 0 97.5 -36.5t39.5 -93.5q0 -129 -48 -363q224 256 224 397q0 42 -18 68
q18 25 49 25q27 0 48 -23.5t21 -67.5q0 -180 -335 -457q-51 -250 -56 -331q-2 -22 -2 -41q0 -30 4 -50q48 34 72 105t24 142q0 56 -13 76q20 25 48 25q27 0 44.5 -24t17.5 -74q0 -60 -28.5 -128t-76 -116t-96.5 -48z" />
    <glyph glyph-name="Y" unicode="Y" horiz-adv-x="688" 
d="M628 324q-28 -69 -45 -111t-41.5 -97t-43 -87.5t-42.5 -71t-46.5 -60t-49.5 -41.5t-56.5 -28t-63.5 -8q-85 0 -128.5 47.5t-42.5 115.5q1 66 46 116t117 50q54 0 82.5 -31.5t28.5 -73.5q0 -26 -13.5 -44.5t-36.5 -18.5q-9 0 -19 3q8 94 -29 137q-35 -19 -59.5 -61.5
t-24.5 -87.5q0 -87 94 -120q34 16 65 49t55.5 70.5t53 100t49.5 115.5t53 138q-86 -168 -152 -168q-39 0 -63 22.5t-24 56.5q0 49 82 226q36 80 50 113t32.5 89.5t18.5 88.5q0 29 -31 45q-62 -6 -119 -39.5t-99.5 -82t-74.5 -105t-48 -113t-16 -102.5q0 -83 48 -99
q47 58 73.5 133.5t26.5 136.5q0 41 -12 65q14 11 34 11q27 0 46 -24t19 -69q0 -53 -28 -120.5t-79 -120t-105 -52.5t-82 41t-28 105q0 107 56 216.5t150.5 182t193.5 72.5q69 0 108 -35t39 -79q0 -95 -87 -289q-68 -153 -77 -191q-3 -14 -3 -24q0 -13 7 -19
q78 46 167.5 225.5t161.5 399.5q44 0 67 -11.5t15 -36.5q-39 -122 -170 -450z" />
    <glyph glyph-name="Z" unicode="Z" horiz-adv-x="560" 
d="M439 6q0 -69 -51.5 -128t-117.5 -59q-38 0 -84.5 21t-84.5 41.5t-57 20.5q-21 -1 -39.5 -20.5t-29.5 -52.5q-14 -2 -21.5 4t-7.5 26q0 49 65 134.5t189 213.5q-78 -5 -128 -33q-9 15 -9 29q0 22 19.5 37t52.5 15q37 0 100 -13q21 21 63 64t63 64q132 136 245 302
q-68 10 -171.5 59t-137.5 53q-50 -56 -89 -152.5t-39 -180.5q0 -77 36 -89q42 33 69.5 116.5t27.5 147.5q0 26 -6 38q18 12 35 12q57 0 57 -76q0 -53 -26.5 -116t-74.5 -110t-100 -47q-55 0 -84.5 44.5t-29.5 114.5q0 58 20 118t56 112t95 85.5t129 33.5q20 0 43.5 -7.5
t52 -23.5t49.5 -29.5t56 -37.5t52 -35q43 59 76 123q33 3 47.5 -14.5t14.5 -44.5q0 -35 -36 -66t-88 -31q-37 -169 -213 -357q-26 -28 -80 -82q39 1 138 21q4 -9 4 -20q0 -26 -26.5 -39t-54.5 -13q-48 0 -99 14q-66 -62 -165.5 -148.5t-119.5 -107.5q33 19 71 19
q47 0 124.5 -40t98.5 -46q27 64 27 100q0 70 -80 70q-15 0 -35 -3q-1 4 -1 8q0 21 30 35t70 14q52 0 81 -25.5t29 -62.5z" />
    <glyph glyph-name="bracketleft" unicode="[" horiz-adv-x="310" 
d="M166 -90q-34 8 -85 15q-30 4 -46.5 23t-16.5 64q0 89 120 378q85 207 131 300t67.5 114.5t51.5 21.5q11 0 48.5 -1.5t59.5 -0.5q0 -50 -44 -50q-12 0 -33.5 3.5t-25.5 3.5q-302 -681 -302 -800q0 -16 4 -21q7 1 18 3t18 3.5t11 1.5q31 0 31 -31q0 -15 -7 -27z" />
    <glyph glyph-name="backslash" unicode="\" horiz-adv-x="295" 
d="M135 -177q-8 -2 -12 -2q-21 0 -21 34q0 171 61.5 504.5t131.5 509.5q1 0 7.5 1.5t9.5 1.5q12 0 12 -12q0 -1 -14 -71q-104 -523 -175 -966z" />
    <glyph glyph-name="bracketright" unicode="]" horiz-adv-x="310" 
d="M217 821q34 -8 85 -15q30 -4 46.5 -23t16.5 -64q0 -89 -120 -378q-85 -207 -131 -300t-67.5 -114.5t-51.5 -21.5q-11 0 -48.5 1.5t-59.5 0.5q0 50 44 50q12 0 33.5 -3.5t25.5 -3.5q302 681 302 800q0 16 -4 21q-7 -1 -18 -3t-18 -3.5t-11 -1.5q-31 0 -31 31q0 15 7 27z
" />
    <glyph glyph-name="asciicircum" unicode="^" horiz-adv-x="500" 
d="M470 343q-29 0 -57 31t-48 88q-62 -51 -125.5 -81.5t-95.5 -30.5q-14 0 -14 14q31 16 63 38.5t56 42t50 44t40.5 39.5t32.5 34.5t21 22.5q16 0 21 -5.5t8 -19.5q8 -55 12.5 -80t19.5 -62.5t39 -60.5q-9 -14 -23 -14z" />
    <glyph glyph-name="underscore" unicode="_" horiz-adv-x="280" 
d="M193 -31h-1q2 -12 2 -27.5t-14 -29t-39 -13.5q-24 0 -109.5 4.5t-122.5 1.5q2 14 4.5 22.5t9 19.5t19 16.5t30.5 5.5q26 0 72.5 -2t83 -2t65.5 4z" />
    <glyph glyph-name="grave" unicode="`" horiz-adv-x="199" 
d="M89 730q24 -118 111 -171q-2 -12 -15 -12q-35 0 -88 47.5t-53 90.5q0 41 45 45z" />
    <glyph glyph-name="a" unicode="a" horiz-adv-x="380" 
d="M198 -10q-22 0 -40.5 19.5t-18.5 40.5q0 11 5.5 30t18 53.5t18.5 52.5q-26 -51 -40.5 -78t-35 -59t-38 -45.5t-34.5 -13.5q-28 0 -54 23.5t-26 56.5q0 85 52 215q88 225 170 225q29 0 53.5 -23.5t28.5 -63.5q7 16 18 45t12 32q37 1 55 -6.5t18 -32.5q0 -34 -62 -197
q-14 -38 -46.5 -115.5t-40.5 -103.5q60 51 132.5 162.5t125.5 241.5q21 4 21 -12q0 -26 -33.5 -106t-68.5 -143q-112 -198 -190 -198zM38 36q50 23 142 212q2 5 14 30t16 34.5t11.5 28t10 30.5t2.5 23q1 24 -8.5 39t-23.5 15q-16 0 -40 -43.5t-73 -164.5
q-26 -64 -40.5 -123.5t-10.5 -80.5z" />
    <glyph glyph-name="b" unicode="b" horiz-adv-x="336" 
d="M86 -10q-43 0 -75.5 29t-32.5 93q0 113 73 315q25 68 48 122.5t53.5 110t60.5 92.5t67 60t76 23t61 -20.5t22 -48.5q0 -37 -32 -113.5t-80 -157t-112.5 -148t-120.5 -83.5q-26 -98 -27 -157q-2 -47 15 -71q36 18 68 68.5t32 106.5q0 29 -14 55q10 12 29 12q39 0 64 -36
q47 24 92 82t72 123q21 3 21 -12q0 -32 -54.5 -120.5t-119.5 -116.5q-4 -79 -63.5 -143t-122.5 -65zM134 387q-15 -42 -27 -81q72 60 161.5 225t90.5 242q0 25 -8 30q-38 -16 -78.5 -84t-63.5 -126t-65 -178q-7 -19 -10 -28z" />
    <glyph glyph-name="c" unicode="c" horiz-adv-x="320" 
d="M90 35q58 11 161 142t160 277q21 4 21 -12q0 -14 -18.5 -63.5t-52 -115t-74.5 -127t-92 -104t-98 -42.5q-59 0 -99.5 32.5t-40.5 83.5q0 94 45.5 215t111.5 172q24 18 70 18q48 0 80.5 -29t32.5 -82q0 -60 -34.5 -132t-85.5 -72q-30 0 -40 27q26 30 56.5 106t30.5 119
q0 21 -8 26q-25 -1 -63.5 -67t-67.5 -154t-29 -147q0 -53 34 -71z" />
    <glyph glyph-name="d" unicode="d" horiz-adv-x="381" 
d="M202 448q-15 0 -37.5 -38.5t-62.5 -137.5q-78 -188 -69 -236q58 9 147 212q5 12 17.5 39t18.5 41.5t12 33.5t6 32q1 24 -8.5 39t-23.5 15zM178 178q-89 -191 -150 -191q-26 0 -50.5 25t-24.5 58q0 85 52 215q88 225 170 225q29 0 54 -24.5t28 -64.5q110 273 169 405
q75 2 75 -23q0 -9 -6 -25.5t-19.5 -48t-19.5 -48.5q-124 -310 -160 -402q-12 -31 -33 -83.5t-36 -91t-24 -65.5q47 26 128 148t139 262q21 4 21 -13q0 -21 -29 -91.5t-71 -150t-98.5 -142t-102.5 -62.5q-20 0 -36.5 18t-16.5 39q0 15 5 32t17.5 48.5t18.5 50.5z" />
    <glyph glyph-name="e" unicode="e" horiz-adv-x="321" 
d="M226 473q-34 -2 -91.5 -110.5t-79.5 -204.5q42 7 85 65t68 123.5t25 103.5q0 17 -7 23zM90 35q67 15 165 144t156 271q21 4 21 -12q0 -19 -26.5 -87.5t-68.5 -151t-108 -146t-132 -63.5q-60 0 -101 32t-41 83q0 79 39 185t96 170q44 51 105 51q44 0 75.5 -24t31.5 -74
q0 -45 -29.5 -111t-84 -121t-111.5 -55q-15 0 -28 4q-2 -22 -2 -30q0 -48 43 -65z" />
    <glyph glyph-name="f" unicode="f" horiz-adv-x="238" 
d="M157 166q0 -69 -35.5 -187t-88 -213.5t-93.5 -95.5q-35 0 -65 23.5t-30 60.5q0 75 171 520q-26 5 -40 9q0 21 20 21h31q125 326 222 523q31 1 53.5 -9t22.5 -25q0 -5 -3.5 -16.5t-11 -29.5t-14.5 -33.5t-18.5 -42t-18.5 -41.5q-103 -245 -135 -329q74 3 122.5 35.5
t86.5 127.5q18 0 18 -17q0 -22 -11.5 -51.5t-33.5 -60t-63.5 -51.5t-92.5 -21q-10 0 -32 2q22 -7 30.5 -30t8.5 -69zM-61 -287q24 11 65 100t74 204.5t32 187.5q0 32 -6 42q-15 -40 -34 -90t-34.5 -89t-32 -83t-28.5 -77t-22 -66.5t-15 -57.5t-5 -42.5t6 -28.5z" />
    <glyph glyph-name="g" unicode="g" horiz-adv-x="374" 
d="M-29 -331q-64 0 -101.5 35.5t-37.5 84.5q0 116 176 152q10 3 40.5 9.5t49.5 11.5q9 24 20.5 56.5t19.5 54t12 31.5l31 82q-46 -92 -80.5 -139.5t-67.5 -47.5q-28 0 -54 25t-26 58q0 76 52 203q88 225 170 225q29 0 53.5 -23.5t28.5 -63.5q7 16 18 45t12 32q37 1 55 -6.5
t18 -32.5q0 -11 -8 -37.5t-26.5 -80t-27.5 -79.5q-38 -110 -89 -245q142 155 254 430q21 4 21 -12q0 -11 -12.5 -51.5t-39 -101.5t-60 -122t-83 -116t-100.5 -80q-16 -41 -50 -127q-30 -75 -78 -122.5t-90 -47.5zM234 394q1 24 -8.5 39t-23.5 15q-16 0 -40 -43.5t-73 -164.5
q-25 -63 -40 -118t-11 -74q27 13 71 75t71 125q4 10 17.5 38t19 42t11.5 33.5t6 32.5zM-5 -280q22 23 90 205q-97 -36 -122 -54q-40 -28 -40 -71q0 -32 19.5 -55.5t52.5 -24.5z" />
    <glyph glyph-name="h" unicode="h" 
d="M207 -10q-27 0 -49 24t-22 57q0 56 76 203q8 15 26.5 49.5t26 49.5t18.5 38t14.5 36.5t2.5 22.5q-34 -1 -138 -179t-156 -297q-23 1 -35.5 3t-23.5 10.5t-11 23.5q0 42 61 202q18 48 72 185q111 276 161 382q-29 -7 -52 -7q-35 0 -37 19q0 7 5 19q26 -1 60.5 2.5
t44.5 3.5q25 0 44 -20t19 -41q0 -9 -8.5 -30.5t-26.5 -61.5t-26 -58q-94 -220 -153 -384q68 131 116 198.5t90 67.5q31 0 57.5 -16t26.5 -47q0 -44 -80 -202q-85 -170 -83 -207l1 2q37 10 124.5 140.5t144.5 270.5q21 2 21 -12q0 -15 -28 -84t-70.5 -151.5t-101.5 -147
t-111 -64.5z" />
    <glyph glyph-name="i" unicode="i" horiz-adv-x="198" 
d="M187 716q24 -1 34.5 -1.5t25 -3.5t20 -10.5t5.5 -19.5q0 -37 -91 -107q-34 -26 -40 -32q-15 2 -15 17q0 10 11 30q30 56 50 127zM12 -10q-29 0 -52.5 18t-23.5 43q0 42 36.5 133.5t75 178.5t41.5 113q-26 -9 -46 -9q-23 0 -23 15q0 8 3 15q16 -1 45 2t40 3q64 0 64 -54
q0 -38 -69 -199.5t-77 -206.5q43 24 124.5 149.5t136.5 257.5q21 4 21 -13q0 -21 -36 -103t-70 -144q-50 -88 -102.5 -143.5t-87.5 -55.5z" />
    <glyph glyph-name="j" unicode="j" horiz-adv-x="202" 
d="M185 719q80 -2 80 -49q0 -18 -18 -39.5t-34 -33t-45 -31.5q-26 -18 -31 -24q-15 0 -15 15q0 3 2 7.5t6 12t7 14.5q28 54 48 128zM-191 -331q-57 0 -90.5 34.5t-33.5 83.5q0 54 34 96t113 58q10 2 35.5 7.5t40.5 9.5q131 354 181 517q-32 -9 -47 -9q-26 0 -26 17q0 7 3 14
q16 -1 45 2t40 3q64 0 64 -54q0 -65 -144 -443q148 155 267 444q21 4 21 -13q0 -16 -22.5 -78t-60 -141.5t-98 -154t-124.5 -101.5q-9 -21 -19.5 -47.5t-17 -42.5t-9.5 -23q-35 -80 -75.5 -129.5t-76.5 -49.5zM-215 -293q13 6 25 20.5t23 37t17.5 38.5t16.5 44.5t13 36.5
q3 7 7.5 20t6.5 18q-35 -12 -53 -20t-38 -23.5t-28 -40t-8 -61.5q0 -47 18 -70z" />
    <glyph glyph-name="k" unicode="k" horiz-adv-x="403" 
d="M276 470q-17 3 -71.5 -84.5t-114.5 -205.5q71 1 131 98.5t60 167.5q0 14 -5 24zM222 92q60 0 135.5 107t134.5 250q22 4 22 -14q0 -12 -17 -59t-49 -112.5t-71.5 -126.5t-91.5 -104t-101 -43q-60 0 -110 157q-51 -104 -66 -146q-16 -5 -45.5 -2t-29.5 23q0 49 136 396
q40 102 103.5 248.5t72.5 170.5q37 4 64 -4t18 -29q-3 -7 -89.5 -208.5t-146.5 -352.5q85 165 118 210q41 55 73 55q33 0 61.5 -25.5t28.5 -59.5q0 -74 -39 -146q-70 -127 -177 -127q-32 0 -70 15q8 -4 33.5 -24t52 -34.5t50.5 -14.5z" />
    <glyph glyph-name="l" unicode="l" horiz-adv-x="253" 
d="M42 -10q-31 0 -56 24t-25 57q0 93 62.5 275t153.5 334.5t158 152.5q17 0 29 -10t12 -22q0 -23 -16 -78.5t-43 -117.5q-49 -112 -111.5 -213t-114.5 -129q-56 -178 -32 -224q51 23 139 148.5t144 261.5q21 4 21 -12q0 -14 -38 -102t-68 -144q-55 -98 -106.5 -149.5
t-108.5 -51.5zM134 387q-1 -3 -11 -32t-15 -43q50 64 97 157q58 113 101.5 216t34.5 114q-26 -12 -91 -140.5t-116 -271.5z" />
    <glyph glyph-name="m" unicode="m" horiz-adv-x="592" 
d="M389 -10q-27 0 -49 24t-22 57q0 53 76 203l25 50t25 50.5t18.5 39t14.5 36t3 21.5q-27 4 -129.5 -172.5t-145.5 -297.5q-12 -2 -23 -2q-57 0 -57 32q0 52 74 235q11 27 29.5 69t28.5 65.5t18 47.5t7 35q-26 4 -131.5 -184t-144.5 -299q-5 0 -13.5 -0.5t-12.5 -0.5
q-46 0 -46 36q0 37 61 198q11 29 48.5 117t46.5 124q-25 -8 -44 -8q-28 0 -28 19q0 6 3 12q16 -1 45 2t40 3q56 0 56 -52q0 -34 -73 -202q13 22 33.5 60t32 58.5t28.5 49.5t28.5 44.5t25.5 31.5t26.5 22.5t24.5 6.5q28 0 51.5 -15t23.5 -45q0 -32 -76 -220q23 44 36 69.5
t33.5 61.5t35 56.5t31.5 41.5t32.5 30t30.5 9q31 0 57.5 -16t26.5 -47q0 -45 -78 -203q-72 -145 -82 -185q-3 -15 -3 -25q41 18 129 148t145 268q21 4 21 -12q0 -23 -31 -94t-75 -150.5t-102.5 -141t-104.5 -61.5z" />
    <glyph glyph-name="n" unicode="n" 
d="M207 -10q-27 0 -49 24t-22 57q0 53 76 203q10 20 25.5 50t25 49t19.5 40t14.5 35t3.5 22q-19 3 -73.5 -71.5t-117.5 -187.5t-100 -208q-16 -4 -27 -4q-20 0 -34 7.5t-14 22.5q0 38 63 204q11 29 46 114t46 119q-19 -5 -43 -5t-26 18q0 9 3 18q16 -1 45 2t40 3
q56 0 56 -52q0 -23 -67 -202q26 46 38.5 67.5t35 58.5t36.5 55.5t33 40t35 30t31 8.5q31 0 57.5 -16t26.5 -47q0 -44 -80 -202l-14 -28t-14 -27.5t-13.5 -27t-12 -25.5l-10.5 -24t-8.5 -22.5t-6.5 -20t-3.5 -17t0.5 -13.5q40 20 126.5 147.5t142.5 263.5q20 2 20 -12
q0 -21 -27.5 -91t-69 -150.5t-100.5 -143t-113 -62.5z" />
    <glyph glyph-name="o" unicode="o" horiz-adv-x="350" 
d="M129 278q0 -76 31 -121q74 157 74 263q0 46 -37 58q-27 -17 -47.5 -76.5t-20.5 -123.5zM82 30q27 25 61 92q-43 53 -47 164q-44 -111 -44 -189q0 -57 30 -67zM198 64q-51 -73 -116 -73q-51 0 -85.5 33t-34.5 92q0 69 29.5 154t76.5 153q23 36 41 36q7 0 14 -4
q31 54 95 54q43 0 77 -29.5t34 -77.5q0 -49 -29.5 -133.5t-72.5 -158.5q98 48 212 339q21 3 21 -16q0 -24 -18 -79.5t-47.5 -117t-75 -108t-91.5 -46.5q-12 0 -17 1q-2 -3 -6.5 -9.5t-6.5 -9.5z" />
    <glyph glyph-name="p" unicode="p" horiz-adv-x="391" 
d="M98 49q20 0 43 41.5t69 165.5q60 161 52 205q-39 -5 -90 -92.5t-125 -277.5q28 -42 51 -42zM-102 -320q-67 -3 -67 36q0 63 171 517q132 351 139 376q37 -1 51.5 -8t14.5 -26q0 -14 -15.5 -58t-38.5 -103t-31 -82q83 178 145 178q28 0 54 -25t26 -58q0 -87 -43 -209
t-101 -185q45 21 132.5 148.5t144.5 267.5q21 3 21 -15q0 -17 -14 -64.5t-46 -112.5t-74 -124.5t-106 -101t-135 -41.5q-56 0 -91 70q-54 -140 -137 -380z" />
    <glyph glyph-name="q" unicode="q" horiz-adv-x="380" 
d="M50 36q28 3 62 57t78 149q3 6 10.5 22.5t11.5 24.5t10 22.5t9.5 24t7.5 21t5.5 20.5t1.5 17q1 24 -8.5 39t-23.5 15q-20 0 -43.5 -41.5t-69.5 -163.5q-24 -65 -40 -129t-11 -78zM90 -317q-17 -5 -36 -5q-25 0 -39.5 10t-7.5 31q13 41 72.5 194t72.5 192
q-60 -118 -107 -118q-28 0 -54 25t-26 58q0 75 30 177t82 182.5t104 80.5q27 0 53 -21.5t33 -57.5q9 28 18 67q8 0 23 1.5t22 1.5q38 0 38 -26q0 -39 -64 -211q-56 -149 -155 -416q28 55 82.5 140t83.5 139q103 187 154 322q21 2 21 -10q0 -24 -45.5 -137t-91.5 -202
q-32 -62 -83.5 -127t-98.5 -133.5t-81 -156.5z" />
    <glyph glyph-name="r" unicode="r" horiz-adv-x="273" 
d="M72 -10q-29 0 -50.5 24t-21.5 56q0 27 71.5 162.5t71.5 148.5q0 14 -21 28q-26 17 -35.5 35.5t-9.5 51.5q0 74 23.5 111.5t55.5 37.5t49 -29q-42 -59 -81 -136q-7 -14 -7 -25q0 -12 9 -15q10 -3 25 -8t21.5 -7t16.5 -5.5t14 -6.5t9.5 -7t7 -9t3 -11.5t1.5 -15.5
q0 -32 -75 -192q-47 -98 -56 -139q51 31 133 155t136 255q21 2 21 -12q0 -21 -30 -91.5t-74 -150.5t-102 -142.5t-105 -62.5z" />
    <glyph glyph-name="s" unicode="s" horiz-adv-x="248" 
d="M36 -10q-53 0 -82 24.5t-29 57.5q0 19 9 32t25 14q38 -67 66 -85q58 55 68 346q1 14 -7 25.5t-8 15.5q0 1 2 7q53 133 81.5 178t65.5 45q26 0 44.5 -23t26.5 -58q-28 -13 -40.5 -19t-40 -21t-41 -27t-25.5 -29t-12 -34q0 -13 16.5 -99.5t15.5 -140.5q0 -48 -11 -90
q93 133 177 340q21 2 21 -13q0 -10 -14 -56t-43 -112t-66.5 -128t-90.5 -106t-108 -44z" />
    <glyph glyph-name="t" unicode="t" horiz-adv-x="214" 
d="M38 -10q-32 0 -58 23t-26 56q0 73 132 394q-25 1 -53 5q-1 4 -1 8q0 19 18 20q16 1 50 1q43 101 55 126q75 3 75 -39q0 -19 -32 -87q12 0 35 -0.5t34 -0.5q4 -7 4 -12q0 -21 -88 -24q-53 -130 -121 -318q-15 -44 -15 -67q-1 -16 6 -29q48 36 121 153t129 250q21 2 21 -12
q0 -19 -37 -99.5t-72 -145.5q-51 -91 -98 -146.5t-79 -55.5z" />
    <glyph glyph-name="u" unicode="u" horiz-adv-x="393" 
d="M166 139q-82 -152 -142 -152q-29 0 -53.5 17t-24.5 50q0 46 33 134.5t69.5 173.5t40.5 111q-25 -7 -43 -7q-26 0 -26 17q0 7 3 14q16 -1 45 2t40 3q23 0 42.5 -16t19.5 -50q0 -25 -69.5 -185.5t-69.5 -204.5q0 -7 1 -10q28 1 73.5 63.5t91.5 156.5q41 84 96 241
q17 4 37 4q39 0 39 -26q0 -43 -64 -211q-18 -47 -52 -126t-41 -99q51 25 131.5 147t138.5 263q21 4 21 -12q0 -19 -37 -99.5t-72 -145.5q-113 -202 -192 -202q-24 0 -44 17t-20 42q0 20 28 90z" />
    <glyph glyph-name="v" unicode="v" horiz-adv-x="316" 
d="M28 -10q-35 0 -63 15t-28 49q0 56 69 216q5 12 16.5 37.5t17 38t14.5 33t13.5 32.5t9 26t6 23.5t0.5 15.5q-19 -14 -48 -14q-30 0 -30 19q0 6 3 15q11 0 36 3t47 3q30 0 50 -18.5t20 -49.5q0 -28 -63 -168q-66 -153 -66 -201q0 -20 7 -31q38 36 84 112t79 162
q4 81 23.5 147.5t52.5 66.5q19 0 31.5 -22.5t12.5 -47.5q0 -83 -67 -222v-1q28 3 74 75t76 145q21 4 21 -12q0 -17 -25.5 -77.5t-68 -120.5t-78.5 -60q-11 0 -22 6q-47 -86 -101 -140.5t-103 -54.5z" />
    <glyph glyph-name="w" unicode="w" horiz-adv-x="513" 
d="M231 -10q-27 0 -56.5 22t-29.5 45q0 14 2 29t4.5 24.5t8 30.5t8.5 31q-24 -47 -38 -72.5t-34.5 -54.5t-39.5 -42t-40 -13q-31 0 -56 15.5t-25 48.5q0 60 78 230q64 138 68 167q1 11 -1 16q-4 0 -16 -3.5t-19 -3.5q-28 0 -28 20q0 7 3 16q16 0 44.5 3t37.5 3
q25 0 41 -17.5t16 -48.5q0 -6 -1.5 -14t-4.5 -19t-6 -21t-8.5 -25t-9.5 -25t-11.5 -29t-11.5 -28.5t-13 -30.5t-12 -29q-64 -153 -60 -179q40 2 114.5 144t124.5 298h40q41 0 41 -26q0 -18 -35 -129q-64 -203 -64 -269q0 -14 1 -20q37 28 76 99t69 156q13 233 77 233
q19 0 31.5 -22.5t12.5 -47.5q0 -84 -61 -221q31 11 79.5 82t74.5 136q21 4 21 -13q0 -18 -24.5 -78t-68.5 -120t-84 -60q-12 0 -21 4q-44 -85 -95 -138.5t-99 -53.5z" />
    <glyph glyph-name="x" unicode="x" horiz-adv-x="438" 
d="M228 -10q-104 0 -97 168q-71 -167 -145 -167q-17 0 -27.5 16t-10.5 41q0 18 8 42q16 -2 23 -2q55 0 90 41.5t63 118.5q27 73 33 142.5t-13 81.5q-28 -20 -47.5 -67t-19.5 -102q0 -27 6 -54q-14 -6 -28 -6q-28 0 -46.5 22t-18.5 69q0 70 42 121t123 51q89 0 87 -133
q0 -42 -10 -130q99 132 94 261q12 2 17 2q30 0 50.5 -20t20.5 -56t-12.5 -66t-43 -59t-56 -48t-75.5 -52q-7 -58 -7 -93q-2 -48 14 -71q64 37 147 155.5t138 252.5q22 4 22 -15t-28 -88t-70.5 -150t-104 -143.5t-118.5 -62.5z" />
    <glyph glyph-name="y" unicode="y" horiz-adv-x="372" 
d="M-32 -331q-64 0 -101.5 35.5t-37.5 84.5q0 116 176 152q5 1 38 8.5t54 13.5q78 215 81 223q-84 -185 -152 -185q-29 0 -55 17t-26 51q0 43 34.5 128.5t69.5 165.5t36 109q-15 -4 -38 -6q-27 0 -27 18q0 6 3 13q16 -1 45 2t40 3q20 0 36.5 -19t16.5 -57q0 -34 -67 -191.5
t-63 -184.5q43 2 119.5 144.5t129.5 303.5q9 1 27 1q52 0 52 -24q0 -12 -9.5 -41.5t-28.5 -83t-30 -86.5q-57 -166 -87 -248q143 155 257 433q21 2 21 -13q0 -19 -20.5 -78t-55.5 -134.5t-94.5 -149t-125.5 -107.5q-46 -118 -50 -128q-30 -75 -78 -122.5t-90 -47.5zM-8 -280
q25 22 91 205q-8 -4 -24 -9.5t-18 -6.5q-62 -22 -91.5 -45.5t-29.5 -63.5q0 -32 19.5 -55.5t52.5 -24.5z" />
    <glyph glyph-name="z" unicode="z" horiz-adv-x="331" 
d="M165 -10q-17 0 -33.5 13.5t-25.5 27t-23 37.5q-71 -78 -119 -78q-20 0 -20 29q0 36 21.5 68t56.5 32q17 0 44 -5q36 37 79 96q-53 4 -78 -4q-8 12 -8 29q0 25 19.5 41.5t58.5 16.5q2 0 62 -5q48 75 65 120q-102 -27 -175 -27q-62 0 -62 46q0 35 30 83q71 -22 159 -24
q66 0 98 13q17 -5 22.5 -8.5t5.5 -12.5q0 -5 -5 -18q-20 -53 -96 -176q29 -2 42 -1q2 -6 2 -9q0 -24 -24 -45.5t-69 -21.5q-45 -65 -78 -104q50 -10 66 -9q57 2 117 97q48 79 123 258q22 4 22 -10t-28 -84t-68 -152t-91.5 -147.5t-89.5 -65.5z" />
    <glyph glyph-name="braceleft" unicode="{" horiz-adv-x="353" 
d="M73 -159q-38 0 -67.5 24.5t-29.5 69.5q0 25 7.5 48t26.5 49.5t28.5 38.5t37.5 43q27 30 42 48.5t28.5 46.5t13.5 53q0 11 -3 23q-33 -9 -62 -9q-63 0 -63 48q0 18 10 41q112 -19 143 -19q23 0 40 4q29 42 29 144q0 24 -2 76t-2 77q0 35 3 62t11.5 53.5t23.5 43.5t41 27.5
t61 10.5q26 0 39 -6.5t12 -19.5q-82 -24 -100 -205l-4.5 -40.5l-5 -45t-6 -41t-9.5 -43.5t-12.5 -37t-17.5 -36.5t-23 -28.5q-31 -31 -79 -47q25 -49 25 -93q0 -32 -13 -67.5t-27.5 -58t-38.5 -56.5q-24 -33 -33 -45.5t-20 -35.5t-11 -40q0 -22 34 -39q0 -18 -27 -18z" />
    <glyph glyph-name="bar" unicode="|" horiz-adv-x="247" 
d="M298 829q27 2 27 -20q0 -10 -4 -19q-270 -664 -393 -923q-25 0 -25 11q0 5 3 14q47 133 184.5 460.5t207.5 476.5z" />
    <glyph glyph-name="braceright" unicode="}" horiz-adv-x="353" 
d="M154 114q-5 -39 -9 -63.5t-12 -60.5t-19 -58t-26.5 -44.5t-38 -33t-51.5 -10.5q-77 0 -77 29q0 6 3 12q45 3 73 49t49 123q26 93 55 152t74 86q-45 42 -45 105q0 31 16 72.5t31 68.5t45 77q73 121 73 166q0 22 -23 35q2 18 22 18q34 0 70.5 -29t36.5 -67q0 -31 -23.5 -70
t-68.5 -96q-4 -5 -11 -14q-37 -47 -55.5 -72.5t-37 -63t-18.5 -64.5q0 -14 4 -25q26 -3 76.5 -0.5t83.5 9.5q7 -14 7 -25q0 -25 -21.5 -43.5t-63.5 -18.5q-41 0 -74 19q-28 -34 -45 -163z" />
    <glyph glyph-name="asciitilde" unicode="~" horiz-adv-x="398" 
d="M106 360q-12 -2 -20 5t-8 21q0 38 29 80.5t72 42.5q16 0 31.5 -9.5t22.5 -17t22 -26.5q35 -41 60 -48q35 41 45 105q27 5 27 -26q0 -45 -30 -95t-67 -50q-19 0 -40 13.5t-31.5 24.5t-30.5 35q-30 35 -38 37q-35 -32 -44 -92z" />
    <glyph glyph-name="uni00A0" unicode="&#xa0;" horiz-adv-x="185" 
 />
    <glyph glyph-name="exclamdown" unicode="&#xa1;" horiz-adv-x="276" 
d="M98 2q-27 -10 -47 -10q-55 0 -55 51q0 43 43.5 129.5t122.5 227.5t128 249q24 0 24 -16q0 -6 -12 -40q-12 -33 -52.5 -138.5t-79.5 -218.5t-72 -234zM421 779q0 -21 -22.5 -53t-49.5 -32q-30 0 -52 12t-22 31q0 29 29 63.5t59 34.5q20 0 39 -17t19 -39z" />
    <glyph glyph-name="cent" unicode="&#xa2;" horiz-adv-x="370" 
d="M58 -67q-5 -2 -18 -2q-42 0 -42 35q0 13 8 31.5t17 34t28.5 45.5t30.5 49q-64 26 -64 125q0 78 36.5 160.5t91.5 136.5t107 54q9 0 14 -1q28 68 52 179q6 1 19 1q48 -2 48 -32q0 -9 -3.5 -20t-14 -29.5t-17 -29t-24.5 -38.5t-24 -38q56 -20 56 -76q0 -53 -38.5 -102
t-76.5 -49q-27 0 -32 23q39 43 56 103.5t-8 72.5q-22 -3 -57 -51.5t-63 -121t-28 -130.5q0 -68 48 -68q58 0 83 54q30 4 30 -20q0 -31 -46 -71.5t-99 -40.5q-11 0 -16 1q-36 -97 -54 -185z" />
    <glyph glyph-name="sterling" unicode="&#xa3;" horiz-adv-x="428" 
d="M200 -10q-50 0 -138 77q-48 -77 -95 -77q-23 0 -37 22t-14 51q0 27 12.5 44.5t36.5 17.5q22 0 67 -14q12 28 24 86q-9 1 -39 2.5t-42 2.5q0 30 32 33q5 1 57 3q32 170 44 211q49 180 151 208q21 6 45 6q54 0 86 -33t32 -105q0 -80 -46.5 -156t-103.5 -76q-27 0 -32 23
q50 55 77.5 134.5t27.5 139.5q0 34 -12 41q-15 -2 -30.5 -15t-30 -37.5t-27 -50.5t-27.5 -66t-26 -71t-27 -77.5t-27 -75.5q42 -1 140 -6q3 -8 3 -15q-2 -17 -21 -20q-32 -6 -138 -2q-23 -60 -43 -98q74 -22 92 -22q47 0 68 54q22 3 32 -9t10 -33q0 -34 -24 -65.5t-57 -31.5
z" />
    <glyph glyph-name="yen" unicode="&#xa5;" horiz-adv-x="519" 
d="M280 -20q-8 -1 -21 -1q-30 0 -38.5 11.5t2.5 52.5q1 2 3 9t5 14t6 15q-79 4 -110 1v8q0 16 18.5 21.5t64.5 5.5q26 0 40 -1q2 6 9.5 24.5t12.5 29.5q-73 3 -114 2v9q0 26 67 26q17 0 61 -2q13 33 53 130q-66 -98 -116 -98q-25 0 -50 17t-25 45q0 37 63.5 166.5
t63.5 160.5q-38 2 -81.5 -51t-69.5 -139q-29 -2 -49.5 7.5t-20.5 30.5q0 57 69 124t136 67q36 0 63 -21.5t27 -51.5q0 -26 -33.5 -100.5t-61.5 -140.5t-19 -79q51 18 122.5 138.5t116.5 245.5q76 2 76 -30q0 -9 -91 -215q-61 -136 -92 -210q52 0 74 1q3 -8 3 -15
q0 -22 -53 -22q-25 0 -39 1q-2 -5 -22 -53q29 -1 80 -1q3 -8 3 -14q0 -12 -10.5 -17.5t-38.5 -5.5q-6 0 -23 0.5t-26 0.5q-24 -59 -35 -96z" />
    <glyph glyph-name="brokenbar" unicode="&#xa6;" horiz-adv-x="247" 
d="M120 309q0 -5 -8 -26q-100 -241 -184 -416q-25 0 -25 12q0 4 3 13q48 133 176 438q38 -6 38 -21zM298 829q27 2 27 -20q0 -10 -4 -19q-76 -188 -166 -404q-22 6 -30 13t-2 23q76 199 175 407z" />
    <glyph glyph-name="section" unicode="&#xa7;" horiz-adv-x="516" 
d="M160 356q0 -44 15.5 -95t41 -114t35.5 -96q62 23 62 100q0 54 -43 154t-49 160q-62 -26 -62 -109zM123 -182q-67 0 -106 48.5t-39 108.5q0 38 17 63.5t49 25.5q16 0 33 -7q-5 -34 -5 -75q0 -111 59 -128q16 7 26 29t10 50q0 68 -25.5 139.5t-51 136.5t-25.5 115
q0 42 14.5 74t40 52.5t48.5 32.5t53 21q3 114 74 197t143 83q48 0 84.5 -31t36.5 -83q0 -81 -44 -174.5t-89 -93.5q-23 0 -38 25q35 48 58 125t23 136q0 54 -21 66q-40 -10 -84 -87.5t-44 -154.5q0 -58 48 -167.5t48 -168.5q0 -61 -36.5 -104.5t-118.5 -54.5q7 -35 7 -60
q0 -65 -41.5 -102t-103.5 -37z" />
    <glyph glyph-name="dieresis" unicode="&#xa8;" horiz-adv-x="234" 
d="M0 619q0 18 17.5 37.5t36.5 19.5q18 0 32 -10.5t14 -25.5q0 -20 -19 -41.5t-40 -21.5q-16 0 -28.5 12.5t-12.5 29.5zM131 625q0 19 17.5 39.5t38.5 20.5q20 0 33.5 -10t13.5 -27q0 -23 -18.5 -44t-42.5 -21q-18 0 -30 12.5t-12 29.5z" />
    <glyph glyph-name="copyright" unicode="&#xa9;" horiz-adv-x="711" 
d="M22 273q0 119 44.5 239.5t125 204t171.5 89.5q0 30 82 30q119 0 192.5 -71t73.5 -208q0 -94 -29 -191.5t-81.5 -182t-137 -138.5t-184.5 -54q-110 0 -183.5 70.5t-73.5 211.5zM621 551q0 223 -207 238q-83 -22 -154.5 -103t-111 -189t-39.5 -213q0 -100 46 -166.5
t134 -89.5q91 16 169 101t120.5 199t42.5 223zM459 271q-1 -36 -47.5 -79.5t-78.5 -43.5q-60 0 -101 36t-41 93q0 90 46 206.5t113 167.5q24 18 70 18q48 0 80.5 -29t32.5 -82q0 -50 -30 -119.5t-63 -69.5q-30 0 -53 36q21 21 47 92.5t26 111.5q0 19 -9 23q-36 0 -77 -63.5
t-66.5 -145.5t-25.5 -140q0 -56 44 -88q54 23 108 110q25 -11 25 -34z" />
    <glyph glyph-name="ordfeminine" unicode="&#xaa;" horiz-adv-x="358" 
d="M437 384q0 -28 -38 -74.5t-72 -46.5q-22 0 -41 18.5t-19 41.5q0 11 5.5 30t18 53.5t18.5 52.5q-26 -51 -40.5 -78t-35 -59t-38 -45.5t-34.5 -13.5q-28 0 -54 23.5t-26 56.5q0 69 28.5 159.5t75.5 158.5t92 68q29 0 53.5 -23.5t28.5 -63.5q7 16 18 45t12 32q20 0 30 -1
t21.5 -4.5t16.5 -12t5 -21.5q0 -40 -69 -223q-8 -23 -21.5 -56t-22.5 -56t-13 -37q49 19 87 87q14 2 14 -11zM166 309q40 20 105 129t65 175q1 24 -8.5 39t-23.5 15q-33 0 -87.5 -132t-55.5 -201q0 -19 5 -25z" />
    <glyph glyph-name="guillemotleft" unicode="&#xab;" horiz-adv-x="467" 
d="M353 98q-14 -14 -24 -12q-21 5 -69 106q-29 60 -46 73q2 13 10 21.5t28 21.5q49 32 92.5 73.5t111.5 115.5q9 -2 9 -18q0 -62 -166 -210q6 -19 22.5 -79.5t31.5 -91.5zM199 98q-21 0 -78 87q-5 7 -7 10q-40 60 -61 75q2 30 37 48q103 50 212 162q8 -3 8 -18
q0 -66 -160 -188q38 -104 69 -162q-6 -14 -20 -14z" />
    <glyph glyph-name="registered" unicode="&#xae;" horiz-adv-x="711" 
d="M380 168q-20 0 -36.5 33.5t-28 70t-17.5 39.5q-45 -112 -52 -137q-12 -2 -17 -2q-41 0 -38 40q1 19 24 82t62.5 164.5t52.5 136.5q-16 -8 -52 -28q-23 22 -23 48q0 30 54.5 46.5t108.5 16.5q59 0 96.5 -29t37.5 -90q0 -83 -61 -154.5t-141 -89.5q36 -63 102 -102
q-32 -45 -72 -45zM392 556q-36 -106 -77 -204l6 -3q59 17 106 93t47 144q0 18 -5 36q-13 4 -31 4q-26 0 -59 -11q26 -19 13 -59zM22 273q0 119 44.5 239.5t125 204t171.5 89.5q0 30 82 30q119 0 192.5 -71t73.5 -208q0 -94 -29 -191.5t-81.5 -182t-137 -138.5t-184.5 -54
q-110 0 -183.5 70.5t-73.5 211.5zM621 551q0 223 -207 238q-83 -22 -154.5 -103t-111 -189t-39.5 -213q0 -100 46 -166.5t134 -89.5q91 16 169 101t120.5 199t42.5 223z" />
    <glyph glyph-name="macron" unicode="&#xaf;" horiz-adv-x="252" 
d="M252 668q-3 -38 -12.5 -50.5t-48.5 -12.5q-31 0 -191 5q7 37 16.5 47.5t43.5 10.5h192z" />
    <glyph glyph-name="degree" unicode="&#xb0;" horiz-adv-x="243" 
d="M120 695q0 51 36.5 95t89.5 44q48 0 79.5 -24t31.5 -64q0 -51 -43 -99t-98 -48q-41 0 -68.5 28.5t-27.5 67.5zM281 724q0 32 -15 53.5t-46 25.5q-33 -48 -33 -99q0 -66 60 -70q34 37 34 90z" />
    <glyph glyph-name="plusminus" unicode="&#xb1;" horiz-adv-x="376" 
d="M285 351q-12 0 -39.5 5.5t-42.5 7.5q-12 -32 -26.5 -82t-17.5 -61q-17 1 -22.5 2t-12.5 6t-7 15q0 9 4.5 24t9 26.5t15.5 35.5t15 35q-9 0 -108 -8q-2 10 -2 14q0 43 50 43q22 0 75 -11q35 96 45 142q46 -3 46 -30q0 -9 -7 -26.5t-21.5 -47.5t-19.5 -40q26 2 67 7t50 6
q2 -8 2 -15q0 -48 -53 -48zM277 194q2 -8 2 -13q0 -45 -53 -45q-22 0 -95 3.5t-105 3.5q-23 0 -32 -1q-2 10 -2 15q2 37 50 37q35 0 92 -1.5t79 -1.5q35 0 64 3z" />
    <glyph glyph-name="two.sups" unicode="&#xb2;" horiz-adv-x="342" 
d="M215 252q-52 0 -133 68q-24 -24 -39 -62q-32 8 -32 40q0 41 53 56q75 21 145.5 108t70.5 171q0 50 -20 62q-39 -7 -67 -62t-29 -119q0 -22 3 -43q-19 -9 -37 -9q-21 0 -34 14.5t-13 38.5q0 90 49.5 151t111.5 61q59 0 87.5 -32.5t28.5 -82.5t-22 -95t-58.5 -78t-78 -57
t-85.5 -39q49 -15 92 -15q51 0 69 35q9 1 13.5 -6t4.5 -20q0 -29 -21.5 -57t-58.5 -28z" />
    <glyph glyph-name="three.sups" unicode="&#xb3;" horiz-adv-x="337" 
d="M146 248q-47 0 -79 19t-32 54q0 24 17 37t44 14q10 -36 30 -56t44 -20q48 0 48 54q0 44 -31 87q-24 -23 -52 -23q-15 0 -24.5 8t-9.5 21q0 14 8 29q22 -5 36 -5q69 0 113 56.5t44 118.5q0 34 -15 53q-52 -3 -78.5 -43t-26.5 -90q0 -9 2 -25q-12 -9 -35 -9q-21 0 -34 12.5
t-13 36.5q0 60 47.5 105t115.5 45q52 0 82 -28.5t30 -76.5q0 -62 -44.5 -115.5t-116.5 -59.5q41 -8 61 -31t20 -54q0 -50 -44 -82t-107 -32z" />
    <glyph glyph-name="acute" unicode="&#xb4;" horiz-adv-x="252" 
d="M0 562q119 32 226 155q26 -10 26 -30q0 -45 -89 -93.5t-145 -48.5q-18 0 -18 17z" />
    <glyph glyph-name="paragraph" unicode="&#xb6;" horiz-adv-x="728" 
d="M398 194q-89 -257 -103 -291q30 -1 91 -1q-22 29 29 163q192 516 259 658q-42 6 -65 11q-121 -293 -211 -540zM137 -259q-74 0 -131 52t-57 117q0 49 30 83.5t66.5 47t74.5 12.5q25 0 35 -6t10 -28q-61 -15 -96 -43.5t-35 -68.5q0 -29 22 -63.5t55 -57.5q19 13 38.5 43
t41.5 82.5t37.5 93.5t42 116.5t39.5 111.5q23 63 53 134q-36 -55 -71.5 -87t-79.5 -32q-56 0 -83.5 46t-27.5 121q0 87 35 183t103 166.5t148 70.5q49 0 172 -29.5t150 -33.5q6 6 23.5 25.5t26.5 28t23 21t25 18t20 5.5q18 0 36.5 -20.5t18.5 -43.5q0 -24 -44.5 -53
t-95.5 -33q-25 -62 -76.5 -210t-116.5 -335t-96 -274q125 0 140 19q17 -7 17 -23q0 -24 -34 -46.5t-101 -22.5q-32 0 -209 20q-29 -50 -63.5 -78.5t-65.5 -28.5z" />
    <glyph glyph-name="periodcentered" unicode="&#xb7;" horiz-adv-x="227" 
d="M70 243q0 21 22.5 53t49.5 32q30 0 52 -12t22 -31q0 -29 -29 -63.5t-59 -34.5q-20 0 -39 17t-19 39z" />
    <glyph glyph-name="cedilla" unicode="&#xb8;" horiz-adv-x="320" 
d="M13 -225q-43 0 -64.5 13.5t-21.5 34.5q0 20 20 38q43 -38 99 -51q18 14 31.5 38.5t13.5 44.5q0 15 -10 24q-41 -10 -57 -30q-33 0 -33 18q0 12 46 121h35q-10 -25 -39 -96q24 8 45 8q32 0 50 -18t18 -45q0 -39 -35 -69.5t-98 -30.5z" />
    <glyph glyph-name="one.sups" unicode="&#xb9;" horiz-adv-x="271" 
d="M118 251q-26 0 -39 10t-9 31q4 18 28 74t59.5 133.5t49.5 109.5q-49 -52 -80.5 -78.5t-56.5 -26.5t-23 39q62 24 127 77t102 115q36 -1 36 -22q0 -16 -63 -165q-86 -202 -99 -294q-16 -3 -32 -3z" />
    <glyph glyph-name="ordmasculine" unicode="&#xba;" horiz-adv-x="337" 
d="M203 270q-51 0 -85.5 33t-34.5 92q0 58 30 139t71 141q19 29 61 29q8 0 13 -1q25 30 57 30q43 0 77 -26.5t34 -69.5q0 -52 -32 -142.5t-75 -151.5q-51 -73 -116 -73zM305 691q-52 -45 -92 -149t-40 -174q0 -50 37 -58q43 48 84 151t41 182q0 41 -30 48z" />
    <glyph glyph-name="guillemotright" unicode="&#xbb;" horiz-adv-x="467" 
d="M207 95q-8 3 -8 18q0 49 166 175q-8 24 -23.5 89.5t-32.5 97.5q6 14 20 14q13 0 25.5 -20t33.5 -62q17 -35 25 -51.5t23 -38t28 -27.5q-3 -35 -38 -52q-129 -63 -219 -143zM28 95q-9 2 -9 18q0 24 41.5 64.5t143.5 111.5q-9 29 -21 91.5t-27 94.5q14 14 24 12
q16 -4 61 -107q34 -78 48 -89q-4 -26 -38 -43q-100 -54 -223 -153z" />
    <glyph glyph-name="onequarter" unicode="&#xbc;" horiz-adv-x="799" 
d="M118 251q-26 0 -39 10t-9 31q4 18 28 74t59.5 133.5t49.5 109.5q-49 -52 -80.5 -78.5t-56.5 -26.5t-23 39q62 24 127 77t102 115q36 -1 36 -22q0 -16 -63 -165q-86 -202 -99 -294q-16 -3 -32 -3zM567 775q23 2 23 -16q0 -8 -6 -23q-107 -216 -234.5 -414.5t-242.5 -329.5
q-25 2 -25 10q0 5 7 15q94 138 478 758zM585 -5q-22 -2 -29 -2q-46 0 -46 27q0 24 37 111q-106 14 -154 10q-4 9 -4 20q0 15 9 26q47 50 86 128.5t45 147.5q17 6 34 6q43 0 43 -39q0 -48 -50.5 -125t-111.5 -125q73 -7 121 -7q18 41 65.5 146t59.5 137q32 1 45.5 -4
t13.5 -19q0 -15 -12.5 -48t-39 -91t-36.5 -81q-2 -6 -7 -18.5t-8 -18.5q53 6 84 20q6 -16 6 -30q0 -45 -88 -45q-15 0 -24 1q-28 -71 -39 -127z" />
    <glyph glyph-name="onehalf" unicode="&#xbd;" horiz-adv-x="775" 
d="M118 251q-26 0 -39 10t-9 31q4 18 28 74t59.5 133.5t49.5 109.5q-49 -52 -80.5 -78.5t-56.5 -26.5t-23 39q62 24 127 77t102 115q36 -1 36 -22q0 -16 -63 -165q-86 -202 -99 -294q-16 -3 -32 -3zM567 775q23 2 23 -16q0 -8 -6 -23q-107 -216 -234.5 -414.5t-242.5 -329.5
q-25 2 -25 10q0 5 7 15q94 138 478 758zM568 -6q-52 0 -133 68q-24 -24 -39 -62q-32 8 -32 40q0 41 53 56q75 21 145.5 108t70.5 171q0 50 -20 62q-39 -7 -67 -62t-29 -119q0 -22 3 -43q-20 -9 -37 -9q-21 0 -34 14.5t-13 38.5q0 90 49.5 151t111.5 61q59 0 87.5 -32.5
t28.5 -82.5t-22 -95t-58.5 -78t-78 -57t-85.5 -39q49 -15 92 -15q51 0 69 35q9 1 13.5 -6t4.5 -20q0 -29 -21.5 -57t-58.5 -28z" />
    <glyph glyph-name="threequarters" unicode="&#xbe;" horiz-adv-x="865" 
d="M146 248q-47 0 -79 19t-32 54q0 24 17 37t44 14q10 -36 30 -56t44 -20q48 0 48 54q0 44 -31 87q-24 -23 -52 -23q-15 0 -24.5 8t-9.5 21q0 14 8 29q22 -5 36 -5q69 0 113 56.5t44 118.5q0 34 -15 53q-52 -3 -78.5 -43t-26.5 -90q0 -9 2 -25q-12 -9 -35 -9q-21 0 -34 12.5
t-13 36.5q0 60 47.5 105t115.5 45q52 0 82 -28.5t30 -76.5q0 -62 -44.5 -115.5t-116.5 -59.5q41 -8 61 -31t20 -54q0 -50 -44 -82t-107 -32zM633 775q23 2 23 -16q0 -8 -6 -23q-107 -216 -234.5 -414.5t-242.5 -329.5q-25 2 -25 10q0 5 7 15q94 138 478 758zM651 -5
q-22 -2 -29 -2q-46 0 -46 27q0 24 37 111q-106 14 -154 10q-4 9 -4 20q0 15 9 26q47 50 86 128.5t45 147.5q17 6 34 6q43 0 43 -39q0 -48 -50.5 -125t-111.5 -125q73 -7 121 -7q18 41 65.5 146t59.5 137q32 1 45.5 -4t13.5 -19q0 -15 -12.5 -48t-39 -91t-36.5 -81
q-2 -6 -7 -18.5t-8 -18.5q53 6 84 20q6 -16 6 -30q0 -45 -88 -45q-15 0 -24 1q-28 -71 -39 -127z" />
    <glyph glyph-name="questiondown" unicode="&#xbf;" horiz-adv-x="461" 
d="M295 660q32 0 54.5 -17t22.5 -54q0 -32 -27.5 -64t-83.5 -80q-39 -34 -56.5 -50t-51 -52.5t-49.5 -64t-30 -67.5t-14 -81q0 -65 41 -102q86 1 154.5 82t68.5 169q0 33 -14 61q-44 -17 -64 -55.5t-20 -79.5q0 -19 5 -34q-11 -14 -33 -14q-41 0 -41 55t39.5 107.5
t101.5 53.5q54 1 79.5 -27.5t25.5 -80.5q0 -64 -31 -125.5t-94.5 -104.5t-143.5 -43q-73 0 -122.5 46.5t-49.5 124.5q0 24 5 48t11.5 43.5t21 42t24 37t31 36t31 31.5t35.5 30.5t33.5 26.5t35 26t31.5 23q42 31 63 52t21 39q0 29 -43 37q0 25 33 25zM436 778
q0 -21 -22.5 -53t-49.5 -32q-30 0 -52 12t-22 31q0 29 29 63.5t59 34.5q20 0 39 -17t19 -39z" />
    <glyph glyph-name="Agrave" unicode="&#xc0;" horiz-adv-x="827" 
d="M504 200q-10 -27 -28 -75q16 1 102 4q30 90 102 271.5t103.5 281.5t6.5 114q-54 -36 -124 -191t-162 -405zM660 -210q-129 0 -129 129q0 54 27 145q-99 6 -105 6q-35 -79 -66 -128.5t-66 -76t-69.5 -36t-83.5 -9.5q-85 0 -126.5 58.5t-41.5 150.5q0 87 32.5 174t93 146.5
t130.5 59.5q57 0 87 -38t30 -95q0 -54 -26.5 -107.5t-75.5 -88.5q51 23 117 35q13 28 37 88q130 333 219 485.5t170 152.5q34 0 57 -27t23 -65q0 -46 -32 -143.5t-90 -248t-84 -225.5q35 1 70 8q2 -4 2 -9q0 -17 -25.5 -37t-67.5 -28q-34 -110 -34 -171q0 -58 46 -58
q33 0 62 37q14 -3 14 -15q0 -23 -26.5 -46t-68.5 -23zM186 -141q86 21 180 211q-83 -7 -152 -32q-16 -4 -21 -4q-15 0 -20 13q35 22 78 108t43 152q0 48 -31 66q-64 -21 -114 -131t-50 -219q0 -139 87 -164zM779 1084q24 -118 111 -171q-2 -12 -15 -12q-35 0 -88 47.5
t-53 90.5q0 41 45 45z" />
    <glyph glyph-name="Aacute" unicode="&#xc1;" horiz-adv-x="827" 
d="M504 200q-10 -27 -28 -75q16 1 102 4q30 90 102 271.5t103.5 281.5t6.5 114q-54 -36 -124 -191t-162 -405zM660 -210q-129 0 -129 129q0 54 27 145q-99 6 -105 6q-35 -79 -66 -128.5t-66 -76t-69.5 -36t-83.5 -9.5q-85 0 -126.5 58.5t-41.5 150.5q0 87 32.5 174t93 146.5
t130.5 59.5q57 0 87 -38t30 -95q0 -54 -26.5 -107.5t-75.5 -88.5q51 23 117 35q13 28 37 88q130 333 219 485.5t170 152.5q34 0 57 -27t23 -65q0 -46 -32 -143.5t-90 -248t-84 -225.5q35 1 70 8q2 -4 2 -9q0 -17 -25.5 -37t-67.5 -28q-34 -110 -34 -171q0 -58 46 -58
q33 0 62 37q14 -3 14 -15q0 -23 -26.5 -46t-68.5 -23zM186 -141q86 21 180 211q-83 -7 -152 -32q-16 -4 -21 -4q-15 0 -20 13q35 22 78 108t43 152q0 48 -31 66q-64 -21 -114 -131t-50 -219q0 -139 87 -164zM790 916q119 32 226 155q26 -10 26 -30q0 -45 -89 -93.5
t-145 -48.5q-18 0 -18 17z" />
    <glyph glyph-name="Acircumflex" unicode="&#xc2;" horiz-adv-x="827" 
d="M504 200q-10 -27 -28 -75q16 1 102 4q30 90 102 271.5t103.5 281.5t6.5 114q-54 -36 -124 -191t-162 -405zM660 -210q-129 0 -129 129q0 54 27 145q-99 6 -105 6q-35 -79 -66 -128.5t-66 -76t-69.5 -36t-83.5 -9.5q-85 0 -126.5 58.5t-41.5 150.5q0 87 32.5 174t93 146.5
t130.5 59.5q57 0 87 -38t30 -95q0 -54 -26.5 -107.5t-75.5 -88.5q51 23 117 35q13 28 37 88q130 333 219 485.5t170 152.5q34 0 57 -27t23 -65q0 -46 -32 -143.5t-90 -248t-84 -225.5q35 1 70 8q2 -4 2 -9q0 -17 -25.5 -37t-67.5 -28q-34 -110 -34 -171q0 -58 46 -58
q33 0 62 37q14 -3 14 -15q0 -23 -26.5 -46t-68.5 -23zM186 -141q86 21 180 211q-83 -7 -152 -32q-16 -4 -21 -4q-15 0 -20 13q35 22 78 108t43 152q0 48 -31 66q-64 -21 -114 -131t-50 -219q0 -139 87 -164zM954 897q-21 0 -41 22.5t-34 62.5q-45 -36 -89.5 -58t-67.5 -22
q-10 0 -11 10q26 14 52.5 32.5t49 38t37 34t31 32t18.5 19.5q11 0 15 -4t5 -13q5 -38 9 -56.5t14.5 -45t27.5 -42.5q-6 -10 -16 -10z" />
    <glyph glyph-name="Atilde" unicode="&#xc3;" horiz-adv-x="827" 
d="M504 200q-10 -27 -28 -75q16 1 102 4q30 90 102 271.5t103.5 281.5t6.5 114q-54 -36 -124 -191t-162 -405zM660 -210q-129 0 -129 129q0 54 27 145q-99 6 -105 6q-35 -79 -66 -128.5t-66 -76t-69.5 -36t-83.5 -9.5q-85 0 -126.5 58.5t-41.5 150.5q0 87 32.5 174t93 146.5
t130.5 59.5q57 0 87 -38t30 -95q0 -54 -26.5 -107.5t-75.5 -88.5q51 23 117 35q13 28 37 88q130 333 219 485.5t170 152.5q34 0 57 -27t23 -65q0 -46 -32 -143.5t-90 -248t-84 -225.5q35 1 70 8q2 -4 2 -9q0 -17 -25.5 -37t-67.5 -28q-34 -110 -34 -171q0 -58 46 -58
q33 0 62 37q14 -3 14 -15q0 -23 -26.5 -46t-68.5 -23zM186 -141q86 21 180 211q-83 -7 -152 -32q-16 -4 -21 -4q-15 0 -20 13q35 22 78 108t43 152q0 48 -31 66q-64 -21 -114 -131t-50 -219q0 -139 87 -164zM721 941q-9 -1 -14 5t-5 16q0 28 27 57.5t67 29.5q19 0 70 -34
q2 -2 11.5 -8.5t13 -8.5t11 -6t13.5 -5.5t12 -1.5q18 9 36 42q9 1 13 -4t4 -16q0 -28 -26.5 -53t-54.5 -25q-21 0 -68 33q-50 34 -73 34q-22 -20 -37 -55z" />
    <glyph glyph-name="Adieresis" unicode="&#xc4;" horiz-adv-x="827" 
d="M504 200q-10 -27 -28 -75q16 1 102 4q30 90 102 271.5t103.5 281.5t6.5 114q-54 -36 -124 -191t-162 -405zM660 -210q-129 0 -129 129q0 54 27 145q-99 6 -105 6q-35 -79 -66 -128.5t-66 -76t-69.5 -36t-83.5 -9.5q-85 0 -126.5 58.5t-41.5 150.5q0 87 32.5 174t93 146.5
t130.5 59.5q57 0 87 -38t30 -95q0 -54 -26.5 -107.5t-75.5 -88.5q51 23 117 35q13 28 37 88q130 333 219 485.5t170 152.5q34 0 57 -27t23 -65q0 -46 -32 -143.5t-90 -248t-84 -225.5q35 1 70 8q2 -4 2 -9q0 -17 -25.5 -37t-67.5 -28q-34 -110 -34 -171q0 -58 46 -58
q33 0 62 37q14 -3 14 -15q0 -23 -26.5 -46t-68.5 -23zM186 -141q86 21 180 211q-83 -7 -152 -32q-16 -4 -21 -4q-15 0 -20 13q35 22 78 108t43 152q0 48 -31 66q-64 -21 -114 -131t-50 -219q0 -139 87 -164zM738 973q0 18 17.5 37.5t36.5 19.5q18 0 32 -10.5t14 -25.5
q0 -20 -19 -41.5t-40 -21.5q-16 0 -28.5 12.5t-12.5 29.5zM869 979q0 19 17.5 39.5t38.5 20.5q20 0 33.5 -10t13.5 -27q0 -23 -18.5 -44t-42.5 -21q-18 0 -30 12.5t-12 29.5z" />
    <glyph glyph-name="Aring" unicode="&#xc5;" horiz-adv-x="827" 
d="M504 200q-10 -27 -28 -75q16 1 102 4q30 90 102 271.5t103.5 281.5t6.5 114q-54 -36 -124 -191t-162 -405zM660 -210q-129 0 -129 129q0 54 27 145q-99 6 -105 6q-35 -79 -66 -128.5t-66 -76t-69.5 -36t-83.5 -9.5q-85 0 -126.5 58.5t-41.5 150.5q0 87 32.5 174t93 146.5
t130.5 59.5q57 0 87 -38t30 -95q0 -54 -26.5 -107.5t-75.5 -88.5q51 23 117 35q13 28 37 88q130 333 219 485.5t170 152.5q34 0 57 -27t23 -65q0 -46 -32 -143.5t-90 -248t-84 -225.5q35 1 70 8q2 -4 2 -9q0 -17 -25.5 -37t-67.5 -28q-34 -110 -34 -171q0 -58 46 -58
q33 0 62 37q14 -3 14 -15q0 -23 -26.5 -46t-68.5 -23zM186 -141q86 21 180 211q-83 -7 -152 -32q-16 -4 -21 -4q-15 0 -20 13q35 22 78 108t43 152q0 48 -31 66q-64 -21 -114 -131t-50 -219q0 -139 87 -164zM787 978q0 40 27.5 72t67.5 32q35 0 54.5 -18.5t19.5 -53.5
q0 -37 -27 -70.5t-73 -33.5q-31 0 -50 19.5t-19 52.5zM828 965q0 -15 4 -24q32 0 58 23.5t26 55.5q0 16 -6 29q-37 7 -59.5 -21t-22.5 -63z" />
    <glyph glyph-name="AE" unicode="&#xc6;" horiz-adv-x="1033" 
d="M609 422q28 78 42 117.5t31 105t24 119.5q-78 -88 -131 -203.5t-106 -273.5q45 -17 81 -35q17 56 59 170zM672 -183q-80 0 -123 50t-42 148q0 89 34 210q-37 10 -86 19q-17 -52 -25.5 -76t-25 -69.5t-26.5 -67.5t-27.5 -57.5t-31.5 -53.5t-34 -41t-39.5 -33.5
t-43.5 -18.5t-51 -8q-66 0 -105 44.5t-39 114.5q0 69 38 110.5t89 41.5q28 0 40 -13t10 -28q-37 -15 -61 -48.5t-24 -82.5q0 -78 57 -105q12 7 23.5 18t24 29t23 33.5t24.5 43.5t23.5 46t25.5 54t24.5 55.5t27 61.5t26.5 61q-27 3 -51 3q-90 1 -133 -42q-21 15 -21 45t25 53
t73 23q57 0 132 -25q69 163 132 277t134 179q-11 -2 -24.5 -4.5t-31.5 -5t-28 -4.5q-162 -27 -249 -65t-114 -116q39 -15 79 -15q73 0 121 48q31 -16 33 -46t-28.5 -54.5t-80.5 -24.5q-80 0 -125.5 33.5t-45.5 102.5q0 182 357 178q110 -2 197 14q35 -86 16 -197
q39 113 96.5 168.5t124.5 55.5q85 0 127.5 -53t42.5 -134q0 -104 -56.5 -191.5t-135.5 -87.5q-51 0 -80 33.5t-29 87.5q0 51 21.5 82t51.5 31q14 0 29 -9q-22 -38 -22 -100q0 -59 24 -92q42 21 74 107t32 168q0 96 -48 117q-160 -11 -328 -528q-3 -8 -8 -23t-7 -23
q17 -4 38 -4q45 0 80 21t48 53q41 -10 41 -56q0 -34 -23 -53t-66 -19q-54 0 -126 33q-46 -149 -46 -218q0 -85 54 -117q69 25 103.5 92t38.5 144q12 3 23 3q32 0 48 -20t16 -54q0 -72 -59.5 -140.5t-151.5 -68.5z" />
    <glyph glyph-name="Ccedilla" unicode="&#xc7;" horiz-adv-x="824" 
d="M600 199q28 6 78 103.5t89.5 224.5t39.5 203q0 48 -17 65q-75 -22 -157 -126.5t-161 -297.5q-36 -88 -62 -170q104 87 161 220q30 69 59.5 99t70.5 4q-43 -90 -74.5 -177t-31.5 -128q0 -15 5 -20zM326 -391q-43 0 -64.5 13.5t-21.5 34.5q0 20 20 38q43 -38 99 -51
q18 14 31.5 38.5t13.5 44.5q0 15 -10 24q-41 -10 -57 -30q-33 0 -33 18q0 10 33 90q-67 34 -67 160q0 49 11 112q-44 -11 -85 -11q-106 0 -152.5 53.5t-43.5 146.5q3 82 36 166t92 143.5t125 59.5q50 0 74.5 -27.5t24.5 -73.5q0 -59 -19 -114.5t-46 -92.5t-55.5 -59
t-48.5 -22q-16 0 -23 14q37 46 79.5 149.5t42.5 158.5q1 27 -13 35q-54 -20 -111 -132t-60 -202q-3 -89 33.5 -129.5t93.5 -38.5q31 0 63 9q26 120 82 255q48 118 101.5 206t103.5 137.5t95.5 73t87.5 23.5q67 0 103.5 -39t36.5 -112q0 -83 -41 -205t-108.5 -218.5
t-128.5 -96.5q-28 0 -54.5 21t-30.5 55q-3 32 7 74q-55 -96 -146 -155q-28 -101 -28 -175q0 -108 56 -124q88 49 132 243q9 3 19 3q21 0 35 -14t13 -41q-3 -75 -68.5 -151.5t-161.5 -76.5q-10 0 -24 2q-2 -6 -10.5 -26t-12.5 -29q24 8 45 8q32 0 50 -18t18 -45
q0 -39 -35 -69.5t-98 -30.5z" />
    <glyph glyph-name="Egrave" unicode="&#xc8;" horiz-adv-x="694" 
d="M658 797q-57 0 -109.5 -61.5t-83 -150.5t-34.5 -176q15 20 49 82q49 91 70 111q16 15 30 15q9 0 18 -6q-19 -58 -19 -104q0 -57 29 -97q40 28 69 110.5t29 159.5q0 96 -48 117zM561 41q0 -48 -24 -98t-75 -87t-115 -37q-86 0 -129 48t-43 120q0 93 61.5 171t156.5 86
q-17 18 -32 52q-83 -56 -173 -56q-98 0 -143 51t-45 139q0 100 61.5 192t147.5 92q50 0 76.5 -29t26.5 -75q0 -63 -40 -132.5t-86 -69.5q-22 0 -27 18q25 30 51.5 105.5t26.5 119.5q0 25 -11 31q-55 -21 -91.5 -100.5t-36.5 -160.5q0 -69 28.5 -106.5t82.5 -37.5
q72 0 141 52q-12 45 -12 99q0 96 34 188.5t102 157t153 64.5q86 0 128 -53t42 -135q0 -103 -56.5 -190.5t-135.5 -87.5q-46 0 -71.5 26t-29.5 66q-28 -59 -73 -107q5 -64 28 -103q64 19 124 52q15 -21 15 -42q0 -32 -25.5 -52.5t-62.5 -20.5q-43 0 -84 25
q-70 -27 -107.5 -104.5t-37.5 -157.5q0 -77 32 -95q52 2 89.5 48.5t53 101.5t18.5 111q14 2 19 2q33 0 50.5 -22.5t17.5 -58.5zM622 1081q24 -118 111 -171q-1 -12 -15 -12q-35 0 -88 47.5t-53 90.5q0 41 45 45z" />
    <glyph glyph-name="Eacute" unicode="&#xc9;" horiz-adv-x="694" 
d="M658 797q-57 0 -109.5 -61.5t-83 -150.5t-34.5 -176q15 20 49 82q49 91 70 111q16 15 30 15q9 0 18 -6q-19 -58 -19 -104q0 -57 29 -97q40 28 69 110.5t29 159.5q0 96 -48 117zM561 41q0 -48 -24 -98t-75 -87t-115 -37q-86 0 -129 48t-43 120q0 93 61.5 171t156.5 86
q-17 18 -32 52q-83 -56 -173 -56q-98 0 -143 51t-45 139q0 100 61.5 192t147.5 92q50 0 76.5 -29t26.5 -75q0 -63 -40 -132.5t-86 -69.5q-22 0 -27 18q25 30 51.5 105.5t26.5 119.5q0 25 -11 31q-55 -21 -91.5 -100.5t-36.5 -160.5q0 -69 28.5 -106.5t82.5 -37.5
q72 0 141 52q-12 45 -12 99q0 96 34 188.5t102 157t153 64.5q86 0 128 -53t42 -135q0 -103 -56.5 -190.5t-135.5 -87.5q-46 0 -71.5 26t-29.5 66q-28 -59 -73 -107q5 -64 28 -103q64 19 124 52q15 -21 15 -42q0 -32 -25.5 -52.5t-62.5 -20.5q-43 0 -84 25
q-70 -27 -107.5 -104.5t-37.5 -157.5q0 -77 32 -95q52 2 89.5 48.5t53 101.5t18.5 111q14 2 19 2q33 0 50.5 -22.5t17.5 -58.5zM633 913q119 32 226 155q26 -10 26 -30q0 -45 -89 -93.5t-145 -48.5q-18 0 -18 17z" />
    <glyph glyph-name="Ecircumflex" unicode="&#xca;" horiz-adv-x="694" 
d="M658 797q-57 0 -109.5 -61.5t-83 -150.5t-34.5 -176q15 20 49 82q49 91 70 111q16 15 30 15q9 0 18 -6q-19 -58 -19 -104q0 -57 29 -97q40 28 69 110.5t29 159.5q0 96 -48 117zM561 41q0 -48 -24 -98t-75 -87t-115 -37q-86 0 -129 48t-43 120q0 93 61.5 171t156.5 86
q-17 18 -32 52q-83 -56 -173 -56q-98 0 -143 51t-45 139q0 100 61.5 192t147.5 92q50 0 76.5 -29t26.5 -75q0 -63 -40 -132.5t-86 -69.5q-22 0 -27 18q25 30 51.5 105.5t26.5 119.5q0 25 -11 31q-55 -21 -91.5 -100.5t-36.5 -160.5q0 -69 28.5 -106.5t82.5 -37.5
q72 0 141 52q-12 45 -12 99q0 96 34 188.5t102 157t153 64.5q86 0 128 -53t42 -135q0 -103 -56.5 -190.5t-135.5 -87.5q-46 0 -71.5 26t-29.5 66q-28 -59 -73 -107q5 -64 28 -103q64 19 124 52q15 -21 15 -42q0 -32 -25.5 -52.5t-62.5 -20.5q-43 0 -84 25
q-70 -27 -107.5 -104.5t-37.5 -157.5q0 -77 32 -95q52 2 89.5 48.5t53 101.5t18.5 111q14 2 19 2q33 0 50.5 -22.5t17.5 -58.5zM797 894q-21 0 -41 22.5t-34 62.5q-45 -36 -89.5 -58t-67.5 -22q-10 0 -11 10q26 14 52.5 32.5t49 38t37 34t31 32t18.5 19.5q11 0 15 -4t5 -13
q5 -38 9 -56.5t14.5 -45t27.5 -42.5q-6 -10 -16 -10z" />
    <glyph glyph-name="Edieresis" unicode="&#xcb;" horiz-adv-x="694" 
d="M658 797q-57 0 -109.5 -61.5t-83 -150.5t-34.5 -176q15 20 49 82q49 91 70 111q16 15 30 15q9 0 18 -6q-19 -58 -19 -104q0 -57 29 -97q40 28 69 110.5t29 159.5q0 96 -48 117zM561 41q0 -48 -24 -98t-75 -87t-115 -37q-86 0 -129 48t-43 120q0 93 61.5 171t156.5 86
q-17 18 -32 52q-83 -56 -173 -56q-98 0 -143 51t-45 139q0 100 61.5 192t147.5 92q50 0 76.5 -29t26.5 -75q0 -63 -40 -132.5t-86 -69.5q-22 0 -27 18q25 30 51.5 105.5t26.5 119.5q0 25 -11 31q-55 -21 -91.5 -100.5t-36.5 -160.5q0 -69 28.5 -106.5t82.5 -37.5
q72 0 141 52q-12 45 -12 99q0 96 34 188.5t102 157t153 64.5q86 0 128 -53t42 -135q0 -103 -56.5 -190.5t-135.5 -87.5q-46 0 -71.5 26t-29.5 66q-28 -59 -73 -107q5 -64 28 -103q64 19 124 52q15 -21 15 -42q0 -32 -25.5 -52.5t-62.5 -20.5q-43 0 -84 25
q-70 -27 -107.5 -104.5t-37.5 -157.5q0 -77 32 -95q52 2 89.5 48.5t53 101.5t18.5 111q14 2 19 2q33 0 50.5 -22.5t17.5 -58.5zM581 970q0 18 17.5 37.5t36.5 19.5t32.5 -10.5t13.5 -25.5q0 -20 -19 -41.5t-40 -21.5q-16 0 -28.5 12.5t-12.5 29.5zM712 976q0 19 17.5 39.5
t38.5 20.5q20 0 33.5 -10t13.5 -27q0 -23 -18.5 -44t-42.5 -21q-18 0 -30 12.5t-12 29.5z" />
    <glyph glyph-name="Igrave" unicode="&#xcc;" horiz-adv-x="551" 
d="M311 -182q-35 0 -95 18q-45 13 -63 13q-37 0 -69 -28q-23 3 -23 30q0 29 27 56.5t72 27.5q35 0 91 -29q-12 19 -12 41q0 59 86 286q76 202 224 491q-43 6 -136 36t-150 37q-59 -22 -110.5 -157.5t-51.5 -247.5q0 -95 42 -109q51 41 80.5 162.5t28.5 202.5q0 15 -1 20
q6 2 19 2q31 1 50.5 -26.5t19.5 -88.5q0 -66 -23 -135.5t-69.5 -120.5t-104.5 -51q-67 0 -101 51.5t-33 133.5q1 89 37 180t109 156.5t163 65.5q44 0 167.5 -8.5t156.5 -8.5q75 0 103 17q11 -9 11 -27q0 -32 -35 -58.5t-104 -29.5q-189 -468 -313 -838q14 -4 21 -4
q46 0 70 36q17 -5 17 -19q0 -26 -27 -51.5t-74 -25.5zM636 1078q24 -118 111 -171q-1 -12 -15 -12q-35 0 -88 47.5t-53 90.5q0 41 45 45z" />
    <glyph glyph-name="Iacute" unicode="&#xcd;" horiz-adv-x="552" 
d="M311 -182q-35 0 -95 18q-45 13 -63 13q-37 0 -69 -28q-23 3 -23 30q0 29 27 56.5t72 27.5q35 0 91 -29q-12 19 -12 41q0 59 86 286q76 202 224 491q-43 6 -136 36t-150 37q-59 -22 -110.5 -157.5t-51.5 -247.5q0 -95 42 -109q51 41 80.5 162.5t28.5 202.5q0 15 -1 20
q6 2 19 2q31 1 50.5 -26.5t19.5 -88.5q0 -66 -23 -135.5t-69.5 -120.5t-104.5 -51q-67 0 -101 51.5t-33 133.5q1 89 37 180t109 156.5t163 65.5q44 0 167.5 -8.5t156.5 -8.5q75 0 103 17q11 -9 11 -27q0 -32 -35 -58.5t-104 -29.5q-189 -468 -313 -838q14 -4 21 -4
q46 0 70 36q17 -5 17 -19q0 -26 -27 -51.5t-74 -25.5zM578 910q119 32 226 155q26 -10 26 -30q0 -45 -89 -93.5t-145 -48.5q-18 0 -18 17z" />
    <glyph glyph-name="Icircumflex" unicode="&#xce;" horiz-adv-x="552" 
d="M311 -182q-35 0 -95 18q-45 13 -63 13q-37 0 -69 -28q-23 3 -23 30q0 29 27 56.5t72 27.5q35 0 91 -29q-12 19 -12 41q0 59 86 286q76 202 224 491q-43 6 -136 36t-150 37q-59 -22 -110.5 -157.5t-51.5 -247.5q0 -95 42 -109q51 41 80.5 162.5t28.5 202.5q0 15 -1 20
q6 2 19 2q31 1 50.5 -26.5t19.5 -88.5q0 -66 -23 -135.5t-69.5 -120.5t-104.5 -51q-67 0 -101 51.5t-33 133.5q1 89 37 180t109 156.5t163 65.5q44 0 167.5 -8.5t156.5 -8.5q75 0 103 17q11 -9 11 -27q0 -32 -35 -58.5t-104 -29.5q-189 -468 -313 -838q14 -4 21 -4
q46 0 70 36q17 -5 17 -19q0 -26 -27 -51.5t-74 -25.5zM767 891q-21 0 -41 22.5t-34 62.5q-45 -36 -89.5 -58t-67.5 -22q-10 0 -11 10q26 14 52.5 32.5t49 38t37 34t31 32t18.5 19.5q11 0 15 -4t5 -13q5 -38 9 -56.5t14.5 -45t27.5 -42.5q-6 -10 -16 -10z" />
    <glyph glyph-name="Idieresis" unicode="&#xcf;" horiz-adv-x="552" 
d="M311 -182q-35 0 -95 18q-45 13 -63 13q-37 0 -69 -28q-23 3 -23 30q0 29 27 56.5t72 27.5q35 0 91 -29q-12 19 -12 41q0 59 86 286q76 202 224 491q-43 6 -136 36t-150 37q-59 -22 -110.5 -157.5t-51.5 -247.5q0 -95 42 -109q51 41 80.5 162.5t28.5 202.5q0 15 -1 20
q6 2 19 2q31 1 50.5 -26.5t19.5 -88.5q0 -66 -23 -135.5t-69.5 -120.5t-104.5 -51q-67 0 -101 51.5t-33 133.5q1 89 37 180t109 156.5t163 65.5q44 0 167.5 -8.5t156.5 -8.5q75 0 103 17q11 -9 11 -27q0 -32 -35 -58.5t-104 -29.5q-189 -468 -313 -838q14 -4 21 -4
q46 0 70 36q17 -5 17 -19q0 -26 -27 -51.5t-74 -25.5zM553 967q0 18 17.5 37.5t36.5 19.5t32.5 -10.5t13.5 -25.5q0 -20 -19 -41.5t-40 -21.5q-16 0 -28.5 12.5t-12.5 29.5zM684 973q0 19 17.5 39.5t38.5 20.5q20 0 33.5 -10t13.5 -27q0 -23 -18.5 -44t-42.5 -21
q-18 0 -30 12.5t-12 29.5z" />
    <glyph glyph-name="Eth" unicode="&#xd0;" horiz-adv-x="764" 
d="M366 -181q-39 0 -98 59q-56 -59 -132 -59q-62 0 -99 38t-37 88q0 45 30.5 75t88.5 30q47 0 114 -67q42 87 120 299q-59 -2 -84 -5q-2 10 -2 15q0 36 50 36q28 0 52 -3q62 166 88 230q26 65 48 90t49 25q26 0 46 -20q-2 -4 -17 -42t-19 -49q-35 -90 -88 -236q15 1 50 5
q2 -8 2 -15q0 -39 -47 -39q-8 0 -22 2q-54 -145 -88.5 -225.5t-70.5 -132.5q40 -33 70 -41q43 18 112.5 147t124.5 304.5t55 301.5q0 127 -66 158q-6 1 -17 1q-74 0 -141 -47t-112 -119.5t-71.5 -157.5t-26.5 -162q0 -76 27 -127q-12 -19 -40 -19q-36 0 -62.5 37t-26.5 118
t31 172t83 169t128.5 129.5t158.5 51.5q46 0 86 -12.5t74.5 -39t54 -73.5t19.5 -110q0 -72 -22.5 -174t-62 -206t-88.5 -194.5t-108 -148t-114 -57.5zM137 -148q33 16 74 88q-64 73 -87 80q-17 -8 -29 -33t-12 -53q0 -63 54 -82z" />
    <glyph glyph-name="Ntilde" unicode="&#xd1;" horiz-adv-x="876" 
d="M692 -188q-15 -7 -31 -7q-39 0 -51 33q-28 77 -26 225q0 235 62 658q-15 -49 -36 -138.5t-40 -166.5t-45 -169t-57 -164t-69.5 -134t-89 -96t-109.5 -34q-99 0 -149.5 67t-50.5 169q0 84 31.5 164t94 135t140.5 55q52 0 76.5 -35t24.5 -90q-1 -74 -40 -139t-92 -65
q-35 0 -47 33q42 36 75.5 107t33.5 120q0 30 -14 41q-78 -22 -129.5 -119.5t-51.5 -205.5q0 -71 25.5 -123.5t77.5 -72.5q27 13 52 34t45.5 42t42.5 58t36 61t34.5 74t30.5 75t29.5 85t27 83t27.5 89q9 28 13 42q51 166 83 247q-103 -93 -212 -164.5t-178 -71.5
q-59 0 -88 33.5t-29 77.5q0 24 10 40.5t25 17.5q13 -33 30.5 -48.5t52.5 -15.5q66 0 169 46.5t170 89.5t95 66q30 -6 54 -25.5t24 -40.5q0 -11 -3 -27.5t-11 -55t-15 -79.5q-27 -151 -39 -339.5t-3 -296.5q133 571 205 744q30 72 61.5 102t67.5 30q28 0 45.5 -12t22.5 -28
q-96 -53 -183.5 -265t-194.5 -618q-15 -54 -10 -98zM749 923q-9 -1 -14 5t-5 16q0 28 27 57.5t67 29.5q19 0 70 -34q2 -2 11.5 -8.5t13 -8.5t11 -6t13.5 -5.5t12 -1.5q18 9 36 42q9 1 13 -4t4 -16q0 -28 -26.5 -53t-54.5 -25q-21 0 -68 33q-50 34 -73 34q-22 -20 -37 -55z
" />
    <glyph glyph-name="Ograve" unicode="&#xd2;" horiz-adv-x="634" 
d="M204 -183q-129 0 -129 151q0 48 15 116q-88 43 -88 181q0 84 35.5 182.5t93.5 183t141.5 141t169.5 56.5q91 0 152.5 -52.5t61.5 -163.5q0 -64 -25 -164.5t-70.5 -208.5t-101 -203.5t-124 -157t-131.5 -61.5zM203 -144q50 12 137.5 161t157 337.5t69.5 296.5t-65 138
q-86 1 -168 -59t-137.5 -148.5t-89 -186t-33.5 -174.5q0 -64 25 -95q22 88 58 179t82.5 173t103.5 134t112 52q31 0 35 -18q-78 -54 -166 -218t-133 -324q34 12 68.5 53t62 95t48 104.5t33.5 94.5q4 1 9 1q14 0 23 -17.5t7 -57.5q-3 -45 -20 -95t-47 -98.5t-80.5 -81
t-112.5 -35.5q-18 -69 -18 -123q0 -73 39 -88zM474 1071q24 -118 111 -171q-1 -12 -15 -12q-35 0 -88 47.5t-53 90.5q0 41 45 45z" />
    <glyph glyph-name="Oacute" unicode="&#xd3;" horiz-adv-x="634" 
d="M204 -183q-129 0 -129 151q0 48 15 116q-88 43 -88 181q0 84 35.5 182.5t93.5 183t141.5 141t169.5 56.5q91 0 152.5 -52.5t61.5 -163.5q0 -64 -25 -164.5t-70.5 -208.5t-101 -203.5t-124 -157t-131.5 -61.5zM203 -144q50 12 137.5 161t157 337.5t69.5 296.5t-65 138
q-86 1 -168 -59t-137.5 -148.5t-89 -186t-33.5 -174.5q0 -64 25 -95q22 88 58 179t82.5 173t103.5 134t112 52q31 0 35 -18q-78 -54 -166 -218t-133 -324q34 12 68.5 53t62 95t48 104.5t33.5 94.5q4 1 9 1q14 0 23 -17.5t7 -57.5q-3 -45 -20 -95t-47 -98.5t-80.5 -81
t-112.5 -35.5q-18 -69 -18 -123q0 -73 39 -88zM485 903q119 32 226 155q26 -10 26 -30q0 -45 -89 -93.5t-145 -48.5q-18 0 -18 17z" />
    <glyph glyph-name="Ocircumflex" unicode="&#xd4;" horiz-adv-x="634" 
d="M204 -183q-129 0 -129 151q0 48 15 116q-88 43 -88 181q0 84 35.5 182.5t93.5 183t141.5 141t169.5 56.5q91 0 152.5 -52.5t61.5 -163.5q0 -64 -25 -164.5t-70.5 -208.5t-101 -203.5t-124 -157t-131.5 -61.5zM203 -144q50 12 137.5 161t157 337.5t69.5 296.5t-65 138
q-86 1 -168 -59t-137.5 -148.5t-89 -186t-33.5 -174.5q0 -64 25 -95q22 88 58 179t82.5 173t103.5 134t112 52q31 0 35 -18q-78 -54 -166 -218t-133 -324q34 12 68.5 53t62 95t48 104.5t33.5 94.5q4 1 9 1q14 0 23 -17.5t7 -57.5q-3 -45 -20 -95t-47 -98.5t-80.5 -81
t-112.5 -35.5q-18 -69 -18 -123q0 -73 39 -88zM649 884q-21 0 -41 22.5t-34 62.5q-45 -36 -89.5 -58t-67.5 -22q-10 0 -11 10q26 14 52.5 32.5t49 38t37 34t31 32t18.5 19.5q11 0 15 -4t5 -13q5 -38 9 -56.5t14.5 -45t27.5 -42.5q-6 -10 -16 -10z" />
    <glyph glyph-name="Otilde" unicode="&#xd5;" horiz-adv-x="634" 
d="M204 -183q-129 0 -129 151q0 48 15 116q-88 43 -88 181q0 84 35.5 182.5t93.5 183t141.5 141t169.5 56.5q91 0 152.5 -52.5t61.5 -163.5q0 -64 -25 -164.5t-70.5 -208.5t-101 -203.5t-124 -157t-131.5 -61.5zM203 -144q50 12 137.5 161t157 337.5t69.5 296.5t-65 138
q-86 1 -168 -59t-137.5 -148.5t-89 -186t-33.5 -174.5q0 -64 25 -95q22 88 58 179t82.5 173t103.5 134t112 52q31 0 35 -18q-78 -54 -166 -218t-133 -324q34 12 68.5 53t62 95t48 104.5t33.5 94.5q4 1 9 1q14 0 23 -17.5t7 -57.5q-3 -45 -20 -95t-47 -98.5t-80.5 -81
t-112.5 -35.5q-18 -69 -18 -123q0 -73 39 -88zM436 928q-9 -1 -14 5t-5 16q0 28 27 57.5t67 29.5q19 0 70 -34q2 -2 11.5 -8.5t13 -8.5t11 -6t13.5 -5.5t12 -1.5q18 9 36 42q9 1 13 -4t4 -16q0 -28 -26.5 -53t-54.5 -25q-21 0 -68 33q-50 34 -73 34q-22 -20 -37 -55z" />
    <glyph glyph-name="Odieresis" unicode="&#xd6;" horiz-adv-x="634" 
d="M204 -183q-129 0 -129 151q0 48 15 116q-88 43 -88 181q0 84 35.5 182.5t93.5 183t141.5 141t169.5 56.5q91 0 152.5 -52.5t61.5 -163.5q0 -64 -25 -164.5t-70.5 -208.5t-101 -203.5t-124 -157t-131.5 -61.5zM203 -144q50 12 137.5 161t157 337.5t69.5 296.5t-65 138
q-86 1 -168 -59t-137.5 -148.5t-89 -186t-33.5 -174.5q0 -64 25 -95q22 88 58 179t82.5 173t103.5 134t112 52q31 0 35 -18q-78 -54 -166 -218t-133 -324q34 12 68.5 53t62 95t48 104.5t33.5 94.5q4 1 9 1q14 0 23 -17.5t7 -57.5q-3 -45 -20 -95t-47 -98.5t-80.5 -81
t-112.5 -35.5q-18 -69 -18 -123q0 -73 39 -88zM433 960q0 18 17.5 37.5t36.5 19.5t32.5 -10.5t13.5 -25.5q0 -20 -19 -41.5t-40 -21.5q-16 0 -28.5 12.5t-12.5 29.5zM564 966q0 19 17.5 39.5t38.5 20.5q20 0 33.5 -10t13.5 -27q0 -23 -18.5 -44t-42.5 -21q-18 0 -30 12.5
t-12 29.5z" />
    <glyph glyph-name="multiply" unicode="&#xd7;" horiz-adv-x="325" 
d="M254 222q-25 -23 -37 -23q-17 0 -39 52q-3 6 -10.5 24.5t-12.5 29.5q-106 -93 -116 -103q-28 18 -28 36q0 6 3.5 13t11 14t15 13.5t21 15t23 15t25.5 16.5t26 16q-9 14 -28.5 46.5t-31 50t-21.5 28.5q28 23 43 23q17 0 30.5 -25t41.5 -97q29 26 70.5 72t42.5 47
q31 -21 31 -39q0 -16 -22 -34q-76 -61 -106 -83q13 -24 68 -108z" />
    <glyph glyph-name="Oslash" unicode="&#xd8;" horiz-adv-x="634" 
d="M490 646q-91 -64 -192 -270.5t-128 -364.5q148 228 395 672q-9 80 -63 106q-69 1 -136.5 -38.5t-118.5 -102.5t-91 -138.5t-61 -151t-21 -135.5q0 -66 25 -98q23 88 59 178.5t82.5 173.5t103 135t111.5 52q31 0 35 -18zM202 -140q47 9 130.5 145.5t150.5 308.5
q69 176 81 288q-210 -401 -400 -666q2 -66 38 -76zM204 -183q-66 0 -99 39q-5 -8 -46 -59q-27 4 -27 13q0 6 7 14q26 33 48 64q-13 32 -13 81q0 46 15 115q-87 45 -87 181q0 85 36 183t93.5 182.5t141 141t169.5 56.5q109 0 166 -67q5 9 14 24.5t15 27t11 20.5q22 0 22 -15
q0 -10 -6 -20l-34 -68q26 -50 26 -118q0 -122 -75 -320q-36 -92 -77.5 -173.5t-90 -151t-103 -110t-106.5 -40.5z" />
    <glyph glyph-name="Ugrave" unicode="&#xd9;" horiz-adv-x="736" 
d="M571 -210q-110 0 -110 137q0 69 28 175q-49 -143 -100 -212.5t-113 -69.5q-39 0 -64.5 27t-25.5 80q0 58 30.5 136.5t88.5 198.5q97 200 123 272q31 87 31 145q0 82 -46 108q-68 -5 -129.5 -57.5t-101 -126t-63 -153.5t-23.5 -145q0 -91 41 -107q40 47 65.5 131.5
t25.5 157.5q0 32 -6 56q8 10 25 10q27 0 48.5 -25t21.5 -75q0 -55 -24.5 -122.5t-74 -120.5t-108.5 -53q-54 0 -82 41t-28 105q0 121 48 243.5t133 205t180 82.5q72 0 131 -54t59 -136q0 -42 -26.5 -121.5t-48 -130t-73.5 -166.5q-56 -126 -85.5 -204.5t-29.5 -124.5
q0 -22 7 -33q47 12 135.5 190t180.5 406q114 283 107 360q20 6 41 6q58 0 58 -48q0 -47 -29 -132t-86 -228q-49 -121 -74.5 -188t-52 -163t-26.5 -155q0 -75 48 -75q40 0 59 41q15 0 15 -18q0 -24 -27.5 -47t-72.5 -23zM582 1077q24 -118 111 -171q-1 -12 -15 -12
q-35 0 -88 47.5t-53 90.5q0 41 45 45z" />
    <glyph glyph-name="Uacute" unicode="&#xda;" horiz-adv-x="736" 
d="M571 -210q-110 0 -110 137q0 69 28 175q-49 -143 -100 -212.5t-113 -69.5q-39 0 -64.5 27t-25.5 80q0 58 30.5 136.5t88.5 198.5q97 200 123 272q31 87 31 145q0 82 -46 108q-68 -5 -129.5 -57.5t-101 -126t-63 -153.5t-23.5 -145q0 -91 41 -107q40 47 65.5 131.5
t25.5 157.5q0 32 -6 56q8 10 25 10q27 0 48.5 -25t21.5 -75q0 -55 -24.5 -122.5t-74 -120.5t-108.5 -53q-54 0 -82 41t-28 105q0 121 48 243.5t133 205t180 82.5q72 0 131 -54t59 -136q0 -42 -26.5 -121.5t-48 -130t-73.5 -166.5q-56 -126 -85.5 -204.5t-29.5 -124.5
q0 -22 7 -33q47 12 135.5 190t180.5 406q114 283 107 360q20 6 41 6q58 0 58 -48q0 -47 -29 -132t-86 -228q-49 -121 -74.5 -188t-52 -163t-26.5 -155q0 -75 48 -75q40 0 59 41q15 0 15 -18q0 -24 -27.5 -47t-72.5 -23zM593 909q119 32 226 155q26 -10 26 -30
q0 -45 -89 -93.5t-145 -48.5q-18 0 -18 17z" />
    <glyph glyph-name="Ucircumflex" unicode="&#xdb;" horiz-adv-x="736" 
d="M571 -210q-110 0 -110 137q0 69 28 175q-49 -143 -100 -212.5t-113 -69.5q-39 0 -64.5 27t-25.5 80q0 58 30.5 136.5t88.5 198.5q97 200 123 272q31 87 31 145q0 82 -46 108q-68 -5 -129.5 -57.5t-101 -126t-63 -153.5t-23.5 -145q0 -91 41 -107q40 47 65.5 131.5
t25.5 157.5q0 32 -6 56q8 10 25 10q27 0 48.5 -25t21.5 -75q0 -55 -24.5 -122.5t-74 -120.5t-108.5 -53q-54 0 -82 41t-28 105q0 121 48 243.5t133 205t180 82.5q72 0 131 -54t59 -136q0 -42 -26.5 -121.5t-48 -130t-73.5 -166.5q-56 -126 -85.5 -204.5t-29.5 -124.5
q0 -22 7 -33q47 12 135.5 190t180.5 406q114 283 107 360q20 6 41 6q58 0 58 -48q0 -47 -29 -132t-86 -228q-49 -121 -74.5 -188t-52 -163t-26.5 -155q0 -75 48 -75q40 0 59 41q15 0 15 -18q0 -24 -27.5 -47t-72.5 -23zM757 890q-21 0 -41 22.5t-34 62.5q-45 -36 -89.5 -58
t-67.5 -22q-10 0 -11 10q26 14 52.5 32.5t49 38t37 34t31 32t18.5 19.5q11 0 15 -4t5 -13q5 -38 9 -56.5t14.5 -45t27.5 -42.5q-6 -10 -16 -10z" />
    <glyph glyph-name="Udieresis" unicode="&#xdc;" horiz-adv-x="736" 
d="M571 -210q-110 0 -110 137q0 69 28 175q-49 -143 -100 -212.5t-113 -69.5q-39 0 -64.5 27t-25.5 80q0 58 30.5 136.5t88.5 198.5q97 200 123 272q31 87 31 145q0 82 -46 108q-68 -5 -129.5 -57.5t-101 -126t-63 -153.5t-23.5 -145q0 -91 41 -107q40 47 65.5 131.5
t25.5 157.5q0 32 -6 56q8 10 25 10q27 0 48.5 -25t21.5 -75q0 -55 -24.5 -122.5t-74 -120.5t-108.5 -53q-54 0 -82 41t-28 105q0 121 48 243.5t133 205t180 82.5q72 0 131 -54t59 -136q0 -42 -26.5 -121.5t-48 -130t-73.5 -166.5q-56 -126 -85.5 -204.5t-29.5 -124.5
q0 -22 7 -33q47 12 135.5 190t180.5 406q114 283 107 360q20 6 41 6q58 0 58 -48q0 -47 -29 -132t-86 -228q-49 -121 -74.5 -188t-52 -163t-26.5 -155q0 -75 48 -75q40 0 59 41q15 0 15 -18q0 -24 -27.5 -47t-72.5 -23zM541 966q0 18 17.5 37.5t36.5 19.5t32.5 -10.5
t13.5 -25.5q0 -20 -19 -41.5t-40 -21.5q-16 0 -28.5 12.5t-12.5 29.5zM672 972q0 19 17.5 39.5t38.5 20.5q20 0 33.5 -10t13.5 -27q0 -23 -18.5 -44t-42.5 -21q-18 0 -30 12.5t-12 29.5z" />
    <glyph glyph-name="Yacute" unicode="&#xdd;" horiz-adv-x="688" 
d="M628 324q-28 -69 -45 -111t-41.5 -97t-43 -87.5t-42.5 -71t-46.5 -60t-49.5 -41.5t-56.5 -28t-63.5 -8q-85 0 -128.5 47.5t-42.5 115.5q1 66 46 116t117 50q54 0 82.5 -31.5t28.5 -73.5q0 -26 -13.5 -44.5t-36.5 -18.5q-9 0 -19 3q8 94 -29 137q-35 -19 -59.5 -61.5
t-24.5 -87.5q0 -87 94 -120q34 16 65 49t55.5 70.5t53 100t49.5 115.5t53 138q-86 -168 -152 -168q-39 0 -63 22.5t-24 56.5q0 49 82 226q36 80 50 113t32.5 89.5t18.5 88.5q0 29 -31 45q-62 -6 -119 -39.5t-99.5 -82t-74.5 -105t-48 -113t-16 -102.5q0 -83 48 -99
q47 58 73.5 133.5t26.5 136.5q0 41 -12 65q14 11 34 11q27 0 46 -24t19 -69q0 -53 -28 -120.5t-79 -120t-105 -52.5t-82 41t-28 105q0 107 56 216.5t150.5 182t193.5 72.5q69 0 108 -35t39 -79q0 -95 -87 -289q-68 -153 -77 -191q-3 -14 -3 -24q0 -13 7 -19
q78 46 167.5 225.5t161.5 399.5q44 0 67 -11.5t15 -36.5q-39 -122 -170 -450zM603 909q119 32 226 155q26 -10 26 -30q0 -45 -89 -93.5t-145 -48.5q-18 0 -18 17z" />
    <glyph glyph-name="Thorn" unicode="&#xde;" horiz-adv-x="716" 
d="M458 380q-144 -376 -147 -383q6 -1 12 -1q60 0 114.5 51t88.5 125t54 151.5t20 135.5q0 95 -58 138q-17 -45 -84 -217zM106 -181q-57 0 -88 28t-31 64q0 45 37 60q24 -35 57 -61.5t64 -35.5q16 19 34 54.5t29.5 64t27.5 69t20 50.5q20 50 88.5 227.5t108.5 275.5
q-82 -8 -150 -39.5t-112.5 -75.5t-75 -96.5t-44 -102t-13.5 -93.5q0 -70 30 -91q43 20 73 116.5t23 153.5q8 4 19 4q27 0 42.5 -18.5t15.5 -53.5q0 -73 -51.5 -155t-121.5 -82q-55 0 -83 43t-28 114q0 70 28.5 141t81.5 133.5t141 101.5t196 39q15 0 45 -2q20 48 30 71
q45 102 94 102q21 0 48 -16q-49 -93 -83 -174q135 -47 135 -191q1 -101 -41 -214.5t-116 -194.5t-154 -81q-33 0 -83 16q-35 -72 -78 -111.5t-115 -39.5z" />
    <glyph glyph-name="germandbls" unicode="&#xdf;" horiz-adv-x="343" 
d="M-84 -260q-48 -1 -64.5 5t-16.5 20q0 3 49 141q56 161 142 390q39 105 63 165.5t54 131t52 107.5t48.5 71.5t53 48t55.5 13.5q39 0 61 -27.5t22 -73.5q0 -72 -54.5 -163.5t-162.5 -173.5q-12 -9 -12 -22q0 -8 4 -15q34 -57 46.5 -106.5t12.5 -122.5q94 144 164 320
q22 4 22 -12q0 -11 -12.5 -56.5t-39 -112t-60.5 -128.5t-84 -106t-103 -44t-79 21.5t-26 49.5q0 19 11.5 32.5t30.5 13.5q21 -61 41 -82q19 8 35 52.5t16 109.5q0 47 -10.5 97t-10.5 63q0 8 1.5 16.5t5 17.5t6 15t9 16t9 13.5t10.5 14.5t9 13q87 122 124.5 206t37.5 124
q0 9 -1 12q-51 -16 -110.5 -130t-158.5 -382q-11 -29 -87 -249.5t-103 -293.5z" />
    <glyph glyph-name="agrave" unicode="&#xe0;" horiz-adv-x="380" 
d="M198 -10q-22 0 -40.5 19.5t-18.5 40.5q0 11 5.5 30t18 53.5t18.5 52.5q-26 -51 -40.5 -78t-35 -59t-38 -45.5t-34.5 -13.5q-28 0 -54 23.5t-26 56.5q0 85 52 215q88 225 170 225q29 0 53.5 -23.5t28.5 -63.5q7 16 18 45t12 32q37 1 55 -6.5t18 -32.5q0 -34 -62 -197
q-14 -38 -46.5 -115.5t-40.5 -103.5q60 51 132.5 162.5t125.5 241.5q21 4 21 -12q0 -26 -33.5 -106t-68.5 -143q-112 -198 -190 -198zM38 36q50 23 142 212q2 5 14 30t16 34.5t11.5 28t10 30.5t2.5 23q1 24 -8.5 39t-23.5 15q-16 0 -40 -43.5t-73 -164.5
q-26 -64 -40.5 -123.5t-10.5 -80.5zM198 730q24 -118 111 -171q-1 -12 -15 -12q-35 0 -88 47.5t-53 90.5q0 41 45 45z" />
    <glyph glyph-name="aacute" unicode="&#xe1;" horiz-adv-x="380" 
d="M198 -10q-22 0 -40.5 19.5t-18.5 40.5q0 11 5.5 30t18 53.5t18.5 52.5q-26 -51 -40.5 -78t-35 -59t-38 -45.5t-34.5 -13.5q-28 0 -54 23.5t-26 56.5q0 85 52 215q88 225 170 225q29 0 53.5 -23.5t28.5 -63.5q7 16 18 45t12 32q37 1 55 -6.5t18 -32.5q0 -34 -62 -197
q-14 -38 -46.5 -115.5t-40.5 -103.5q60 51 132.5 162.5t125.5 241.5q21 4 21 -12q0 -26 -33.5 -106t-68.5 -143q-112 -198 -190 -198zM38 36q50 23 142 212q2 5 14 30t16 34.5t11.5 28t10 30.5t2.5 23q1 24 -8.5 39t-23.5 15q-16 0 -40 -43.5t-73 -164.5
q-26 -64 -40.5 -123.5t-10.5 -80.5zM189 562q119 32 226 155q26 -10 26 -30q0 -45 -89 -93.5t-145 -48.5q-18 0 -18 17z" />
    <glyph glyph-name="acircumflex" unicode="&#xe2;" horiz-adv-x="380" 
d="M198 -10q-22 0 -40.5 19.5t-18.5 40.5q0 11 5.5 30t18 53.5t18.5 52.5q-26 -51 -40.5 -78t-35 -59t-38 -45.5t-34.5 -13.5q-28 0 -54 23.5t-26 56.5q0 85 52 215q88 225 170 225q29 0 53.5 -23.5t28.5 -63.5q7 16 18 45t12 32q37 1 55 -6.5t18 -32.5q0 -34 -62 -197
q-14 -38 -46.5 -115.5t-40.5 -103.5q60 51 132.5 162.5t125.5 241.5q21 4 21 -12q0 -26 -33.5 -106t-68.5 -143q-112 -198 -190 -198zM38 36q50 23 142 212q2 5 14 30t16 34.5t11.5 28t10 30.5t2.5 23q1 24 -8.5 39t-23.5 15q-16 0 -40 -43.5t-73 -164.5
q-26 -64 -40.5 -123.5t-10.5 -80.5zM358 543q-21 0 -41 22.5t-34 62.5q-45 -36 -89.5 -58t-67.5 -22q-10 0 -11 10q26 14 52.5 32.5t49 38t37 34t31 32t18.5 19.5q11 0 15 -4t5 -13q5 -38 9 -56.5t14.5 -45t27.5 -42.5q-6 -10 -16 -10z" />
    <glyph glyph-name="atilde" unicode="&#xe3;" horiz-adv-x="380" 
d="M198 -10q-22 0 -40.5 19.5t-18.5 40.5q0 11 5.5 30t18 53.5t18.5 52.5q-26 -51 -40.5 -78t-35 -59t-38 -45.5t-34.5 -13.5q-28 0 -54 23.5t-26 56.5q0 85 52 215q88 225 170 225q29 0 53.5 -23.5t28.5 -63.5q7 16 18 45t12 32q37 1 55 -6.5t18 -32.5q0 -34 -62 -197
q-14 -38 -46.5 -115.5t-40.5 -103.5q60 51 132.5 162.5t125.5 241.5q21 4 21 -12q0 -26 -33.5 -106t-68.5 -143q-112 -198 -190 -198zM38 36q50 23 142 212q2 5 14 30t16 34.5t11.5 28t10 30.5t2.5 23q1 24 -8.5 39t-23.5 15q-16 0 -40 -43.5t-73 -164.5
q-26 -64 -40.5 -123.5t-10.5 -80.5zM173 587q-9 -1 -14 5t-5 16q0 28 27 57.5t67 29.5q19 0 70 -34q2 -2 11.5 -8.5t13 -8.5t11 -6t13.5 -5.5t12 -1.5q18 9 36 42q9 1 13 -4t4 -16q0 -28 -26.5 -53t-54.5 -25q-21 0 -68 33q-50 34 -73 34q-22 -20 -37 -55z" />
    <glyph glyph-name="adieresis" unicode="&#xe4;" horiz-adv-x="380" 
d="M198 -10q-22 0 -40.5 19.5t-18.5 40.5q0 11 5.5 30t18 53.5t18.5 52.5q-26 -51 -40.5 -78t-35 -59t-38 -45.5t-34.5 -13.5q-28 0 -54 23.5t-26 56.5q0 85 52 215q88 225 170 225q29 0 53.5 -23.5t28.5 -63.5q7 16 18 45t12 32q37 1 55 -6.5t18 -32.5q0 -34 -62 -197
q-14 -38 -46.5 -115.5t-40.5 -103.5q60 51 132.5 162.5t125.5 241.5q21 4 21 -12q0 -26 -33.5 -106t-68.5 -143q-112 -198 -190 -198zM38 36q50 23 142 212q2 5 14 30t16 34.5t11.5 28t10 30.5t2.5 23q1 24 -8.5 39t-23.5 15q-16 0 -40 -43.5t-73 -164.5
q-26 -64 -40.5 -123.5t-10.5 -80.5zM164 619q0 18 17.5 37.5t36.5 19.5q18 0 32 -10.5t14 -25.5q0 -20 -19 -41.5t-40 -21.5q-16 0 -28.5 12.5t-12.5 29.5zM295 625q0 19 17.5 39.5t38.5 20.5q20 0 33.5 -10t13.5 -27q0 -23 -18.5 -44t-42.5 -21q-18 0 -30 12.5t-12 29.5z
" />
    <glyph glyph-name="aring" unicode="&#xe5;" horiz-adv-x="380" 
d="M198 -10q-22 0 -40.5 19.5t-18.5 40.5q0 11 5.5 30t18 53.5t18.5 52.5q-26 -51 -40.5 -78t-35 -59t-38 -45.5t-34.5 -13.5q-28 0 -54 23.5t-26 56.5q0 85 52 215q88 225 170 225q29 0 53.5 -23.5t28.5 -63.5q7 16 18 45t12 32q37 1 55 -6.5t18 -32.5q0 -34 -62 -197
q-14 -38 -46.5 -115.5t-40.5 -103.5q60 51 132.5 162.5t125.5 241.5q21 4 21 -12q0 -26 -33.5 -106t-68.5 -143q-112 -198 -190 -198zM38 36q50 23 142 212q2 5 14 30t16 34.5t11.5 28t10 30.5t2.5 23q1 24 -8.5 39t-23.5 15q-16 0 -40 -43.5t-73 -164.5
q-26 -64 -40.5 -123.5t-10.5 -80.5zM201 624q0 40 27.5 72t67.5 32q35 0 54.5 -18.5t19.5 -53.5q0 -37 -27 -70.5t-73 -33.5q-31 0 -50 19.5t-19 52.5zM242 611q0 -15 4 -24q32 0 58 23.5t26 55.5q0 16 -6 29q-37 7 -59.5 -21t-22.5 -63z" />
    <glyph glyph-name="ae" unicode="&#xe6;" horiz-adv-x="531" 
d="M297 260q-21 -55 -32 -102q41 7 84 64.5t68 122.5t26 104q0 18 -7 24q-25 -1 -65 -65t-74 -148zM300 35q67 15 165 144t156 271q11 2 17.5 -3t2.5 -17q-147 -440 -334 -440q-60 0 -101 32t-41 83q0 25 5 60q-45 -89 -75.5 -132t-61.5 -43q-28 0 -54 23.5t-26 56.5
q0 85 52 215q88 225 170 225q29 0 53.5 -23.5t28.5 -63.5q7 16 18 45t12 32q5 0 14.5 0.5t13.5 0.5t11.5 -0.5t10.5 -1.5t7.5 -3t6.5 -5.5t3.5 -8.5t1.5 -12q0 -21 -11 -61q55 102 101 102q22 0 48.5 -22.5t26.5 -48.5q0 -30 -13.5 -73.5t-38.5 -89t-56.5 -82.5t-72.5 -56
t-81 -9q-2 -22 -2 -30q0 -48 43 -65zM180 248q2 5 14 30t16 34.5t11.5 28t10 30.5t2.5 23q1 24 -8.5 39t-23.5 15q-16 0 -40 -43.5t-73 -164.5q-26 -64 -40.5 -123.5t-10.5 -80.5q50 23 142 212z" />
    <glyph glyph-name="ccedilla" unicode="&#xe7;" horiz-adv-x="320" 
d="M33 -225q-43 0 -64.5 13.5t-21.5 34.5q0 20 20 38q43 -38 99 -51q18 14 31.5 38.5t13.5 44.5q0 15 -10 24q-41 -10 -57 -30q-33 0 -33 18q0 9 34 93q-40 11 -64 40t-24 68q0 94 45.5 215t111.5 172q24 18 70 18q48 0 80.5 -29t32.5 -82q0 -60 -34.5 -132t-85.5 -72
q-30 0 -40 27q26 30 56.5 106t30.5 119q0 21 -8 26q-25 -1 -63.5 -67t-67.5 -154t-29 -147q0 -53 34 -71q58 11 161 142t160 277q21 4 21 -12q0 -14 -18.5 -63.5t-52 -115t-74.5 -127t-92 -104t-98 -42.5q-13 0 -19 1q-4 -11 -13 -32t-12 -29q24 8 45 8q32 0 50 -18t18 -45
q0 -39 -35 -69.5t-98 -30.5z" />
    <glyph glyph-name="egrave" unicode="&#xe8;" horiz-adv-x="321" 
d="M226 473q-34 -2 -91.5 -110.5t-79.5 -204.5q42 7 85 65t68 123.5t25 103.5q0 17 -7 23zM90 35q67 15 165 144t156 271q21 4 21 -12q0 -19 -26.5 -87.5t-68.5 -151t-108 -146t-132 -63.5q-60 0 -101 32t-41 83q0 79 39 185t96 170q44 51 105 51q44 0 75.5 -24t31.5 -74
q0 -45 -29.5 -111t-84 -121t-111.5 -55q-15 0 -28 4q-2 -22 -2 -30q0 -48 43 -65zM177 730q24 -118 111 -171q-2 -12 -15 -12q-35 0 -88 47.5t-53 90.5q0 41 45 45z" />
    <glyph glyph-name="eacute" unicode="&#xe9;" horiz-adv-x="321" 
d="M226 473q-34 -2 -91.5 -110.5t-79.5 -204.5q42 7 85 65t68 123.5t25 103.5q0 17 -7 23zM90 35q67 15 165 144t156 271q21 4 21 -12q0 -19 -26.5 -87.5t-68.5 -151t-108 -146t-132 -63.5q-60 0 -101 32t-41 83q0 79 39 185t96 170q44 51 105 51q44 0 75.5 -24t31.5 -74
q0 -45 -29.5 -111t-84 -121t-111.5 -55q-15 0 -28 4q-2 -22 -2 -30q0 -48 43 -65zM168 562q119 32 226 155q26 -10 26 -30q0 -45 -89 -93.5t-145 -48.5q-18 0 -18 17z" />
    <glyph glyph-name="ecircumflex" unicode="&#xea;" horiz-adv-x="321" 
d="M226 473q-34 -2 -91.5 -110.5t-79.5 -204.5q42 7 85 65t68 123.5t25 103.5q0 17 -7 23zM90 35q67 15 165 144t156 271q21 4 21 -12q0 -19 -26.5 -87.5t-68.5 -151t-108 -146t-132 -63.5q-60 0 -101 32t-41 83q0 79 39 185t96 170q44 51 105 51q44 0 75.5 -24t31.5 -74
q0 -45 -29.5 -111t-84 -121t-111.5 -55q-15 0 -28 4q-2 -22 -2 -30q0 -48 43 -65zM337 543q-21 0 -41 22.5t-34 62.5q-45 -36 -89.5 -58t-67.5 -22q-10 0 -11 10q26 14 52.5 32.5t49 38t37 34t31 32t18.5 19.5q11 0 15 -4t5 -13q5 -38 9 -56.5t14.5 -45t27.5 -42.5
q-6 -10 -16 -10z" />
    <glyph glyph-name="edieresis" unicode="&#xeb;" horiz-adv-x="321" 
d="M226 473q-34 -2 -91.5 -110.5t-79.5 -204.5q42 7 85 65t68 123.5t25 103.5q0 17 -7 23zM90 35q67 15 165 144t156 271q21 4 21 -12q0 -19 -26.5 -87.5t-68.5 -151t-108 -146t-132 -63.5q-60 0 -101 32t-41 83q0 79 39 185t96 170q44 51 105 51q44 0 75.5 -24t31.5 -74
q0 -45 -29.5 -111t-84 -121t-111.5 -55q-15 0 -28 4q-2 -22 -2 -30q0 -48 43 -65zM143 619q0 18 17.5 37.5t36.5 19.5t32.5 -10.5t13.5 -25.5q0 -20 -19 -41.5t-40 -21.5q-16 0 -28.5 12.5t-12.5 29.5zM274 625q0 19 17.5 39.5t38.5 20.5q20 0 33.5 -10t13.5 -27
q0 -23 -18.5 -44t-42.5 -21q-18 0 -30 12.5t-12 29.5z" />
    <glyph glyph-name="igrave" unicode="&#xec;" horiz-adv-x="198" 
d="M12 -10q-29 0 -52.5 18t-23.5 43q0 42 36.5 133.5t75 178.5t41.5 113q-26 -9 -46 -9q-23 0 -23 15q0 8 3 15q16 -1 45 2t40 3q64 0 64 -54q0 -38 -69 -199.5t-77 -206.5q43 24 124.5 149.5t136.5 257.5q21 4 21 -12q0 -18 -37 -103.5t-69 -144.5q-50 -88 -102.5 -143.5
t-87.5 -55.5zM199 560q-2 -11 -19 -11q-34 0 -75.5 44.5t-41.5 88.5q0 26 28 35q37 -114 108 -157z" />
    <glyph glyph-name="iacute" unicode="&#xed;" horiz-adv-x="198" 
d="M12 -10q-29 0 -52.5 18t-23.5 43q0 42 36.5 133.5t75 178.5t41.5 113q-26 -9 -46 -9q-23 0 -23 15q0 8 3 15q16 -1 45 2t40 3q64 0 64 -54q0 -38 -69 -199.5t-77 -206.5q43 24 124.5 149.5t136.5 257.5q21 4 21 -12q0 -18 -37 -103.5t-69 -144.5q-50 -88 -102.5 -143.5
t-87.5 -55.5zM84 562q86 40 151 157q31 -12 31 -32q0 -45 -62.5 -93.5t-101.5 -48.5q-18 0 -18 17z" />
    <glyph glyph-name="icircumflex" unicode="&#xee;" horiz-adv-x="198" 
d="M12 -10q-29 0 -52.5 18t-23.5 43q0 42 36.5 133.5t75 178.5t41.5 113q-26 -9 -46 -9q-23 0 -23 15q0 8 3 15q16 -1 45 2t40 3q64 0 64 -54q0 -38 -69 -199.5t-77 -206.5q43 24 124.5 149.5t136.5 257.5q21 4 21 -12q0 -18 -37 -103.5t-69 -144.5q-50 -88 -102.5 -143.5
t-87.5 -55.5zM233 543q-30 0 -55 84q-91 -79 -123 -79q-12 0 -12 15q30 21 62.5 52.5t61.5 64t31 34.5q11 0 15 -4t5 -13q9 -106 31 -144q-6 -10 -16 -10z" />
    <glyph glyph-name="idieresis" unicode="&#xef;" horiz-adv-x="198" 
d="M12 -10q-29 0 -52.5 18t-23.5 43q0 42 36.5 133.5t75 178.5t41.5 113q-26 -9 -46 -9q-23 0 -23 15q0 8 3 15q16 -1 45 2t40 3q64 0 64 -54q0 -38 -69 -199.5t-77 -206.5q43 24 124.5 149.5t136.5 257.5q21 4 21 -12q0 -18 -37 -103.5t-69 -144.5q-50 -88 -102.5 -143.5
t-87.5 -55.5zM59 623q0 17 17 35.5t34 18.5q18 0 31 -9.5t13 -24.5q0 -19 -18 -39.5t-38 -20.5q-16 0 -27.5 12t-11.5 28zM163 623q0 18 17 37.5t36 19.5t32 -10t13 -25q0 -22 -18 -42t-40 -20q-17 0 -28.5 12t-11.5 28z" />
    <glyph glyph-name="eth" unicode="&#xf0;" horiz-adv-x="359" 
d="M64 -8q-40 0 -67 29t-27 76q0 52 23 137.5t64 158.5t83 73q50 0 90 -67q15 79 15 178q-43 -9 -73 -9q-37 0 -37 31q14 4 48 14.5t60 17.5q-7 145 -47 191q8 8 21 8q34 0 60 -49.5t39 -128.5q35 8 50 8q22 0 29 -11.5t6 -39.5q-12 -1 -77 -15q3 -38 3 -76q0 -123 -38 -248
t-101 -212q-47 -66 -124 -66zM199 350q2 55 -29 65q-25 -17 -77 -170q-45 -132 -45 -181q0 -28 15 -36q39 20 86.5 127t49.5 195z" />
    <glyph glyph-name="ntilde" unicode="&#xf1;" 
d="M207 -10q-27 0 -49 24t-22 57q0 53 76 203q10 20 25.5 50t25 49t19.5 40t14.5 35t3.5 22q-19 3 -73.5 -71.5t-117.5 -187.5t-100 -208q-16 -4 -27 -4q-20 0 -34 7.5t-14 22.5q0 38 63 204q11 29 46 114t46 119q-19 -5 -43 -5t-26 18q0 9 3 18q16 -1 45 2t40 3
q56 0 56 -52q0 -23 -67 -202q26 46 38.5 67.5t35 58.5t36.5 55.5t33 40t35 30t31 8.5q31 0 57.5 -16t26.5 -47q0 -44 -80 -202l-14 -28t-14 -27.5t-13.5 -27t-12 -25.5l-10.5 -24t-8.5 -22.5t-6.5 -20t-3.5 -17t0.5 -13.5q40 20 126.5 147.5t142.5 263.5q20 2 20 -12
q0 -21 -27.5 -91t-69 -150.5t-100.5 -143t-113 -62.5zM156 587q-9 -1 -14 5t-5 16q0 28 27 57.5t67 29.5q19 0 70 -34q2 -2 11.5 -8.5t13 -8.5t11 -6t13.5 -5.5t12 -1.5q18 9 36 42q9 1 13 -4t4 -16q0 -28 -26.5 -53t-54.5 -25q-21 0 -68 33q-50 34 -73 34q-22 -20 -37 -55z
" />
    <glyph glyph-name="ograve" unicode="&#xf2;" horiz-adv-x="350" 
d="M129 278q0 -76 31 -121q74 157 74 263q0 46 -37 58q-27 -17 -47.5 -76.5t-20.5 -123.5zM82 30q27 25 61 92q-43 53 -47 164q-44 -111 -44 -189q0 -57 30 -67zM198 64q-51 -73 -116 -73q-51 0 -85.5 33t-34.5 92q0 69 29.5 154t76.5 153q23 36 41 36q7 0 14 -4
q31 54 95 54q43 0 77 -29.5t34 -77.5q0 -49 -29.5 -133.5t-72.5 -158.5q98 48 212 339q21 3 21 -16q0 -24 -18 -79.5t-47.5 -117t-75 -108t-91.5 -46.5q-12 0 -17 1q-2 -3 -6.5 -9.5t-6.5 -9.5zM196 730q24 -118 111 -171q-1 -12 -15 -12q-35 0 -88 47.5t-53 90.5
q0 41 45 45z" />
    <glyph glyph-name="oacute" unicode="&#xf3;" horiz-adv-x="350" 
d="M129 278q0 -76 31 -121q74 157 74 263q0 46 -37 58q-27 -17 -47.5 -76.5t-20.5 -123.5zM82 30q27 25 61 92q-43 53 -47 164q-44 -111 -44 -189q0 -57 30 -67zM198 64q-51 -73 -116 -73q-51 0 -85.5 33t-34.5 92q0 69 29.5 154t76.5 153q23 36 41 36q7 0 14 -4
q31 54 95 54q43 0 77 -29.5t34 -77.5q0 -49 -29.5 -133.5t-72.5 -158.5q98 48 212 339q21 3 21 -16q0 -24 -18 -79.5t-47.5 -117t-75 -108t-91.5 -46.5q-12 0 -17 1q-2 -3 -6.5 -9.5t-6.5 -9.5zM187 562q119 32 226 155q26 -10 26 -30q0 -45 -89 -93.5t-145 -48.5
q-18 0 -18 17z" />
    <glyph glyph-name="ocircumflex" unicode="&#xf4;" horiz-adv-x="350" 
d="M129 278q0 -76 31 -121q74 157 74 263q0 46 -37 58q-27 -17 -47.5 -76.5t-20.5 -123.5zM82 30q27 25 61 92q-43 53 -47 164q-44 -111 -44 -189q0 -57 30 -67zM198 64q-51 -73 -116 -73q-51 0 -85.5 33t-34.5 92q0 69 29.5 154t76.5 153q23 36 41 36q7 0 14 -4
q31 54 95 54q43 0 77 -29.5t34 -77.5q0 -49 -29.5 -133.5t-72.5 -158.5q98 48 212 339q21 3 21 -16q0 -24 -18 -79.5t-47.5 -117t-75 -108t-91.5 -46.5q-12 0 -17 1q-2 -3 -6.5 -9.5t-6.5 -9.5zM356 543q-21 0 -41 22.5t-34 62.5q-45 -36 -89.5 -58t-67.5 -22q-10 0 -11 10
q26 14 52.5 32.5t49 38t37 34t31 32t18.5 19.5q11 0 15 -4t5 -13q5 -38 9 -56.5t14.5 -45t27.5 -42.5q-6 -10 -16 -10z" />
    <glyph glyph-name="otilde" unicode="&#xf5;" horiz-adv-x="350" 
d="M129 278q0 -76 31 -121q74 157 74 263q0 46 -37 58q-27 -17 -47.5 -76.5t-20.5 -123.5zM82 30q27 25 61 92q-43 53 -47 164q-44 -111 -44 -189q0 -57 30 -67zM198 64q-51 -73 -116 -73q-51 0 -85.5 33t-34.5 92q0 69 29.5 154t76.5 153q23 36 41 36q7 0 14 -4
q31 54 95 54q43 0 77 -29.5t34 -77.5q0 -49 -29.5 -133.5t-72.5 -158.5q98 48 212 339q21 3 21 -16q0 -24 -18 -79.5t-47.5 -117t-75 -108t-91.5 -46.5q-12 0 -17 1q-2 -3 -6.5 -9.5t-6.5 -9.5zM171 587q-9 -1 -14 5t-5 16q0 28 27 57.5t67 29.5q19 0 70 -34q2 -2 11.5 -8.5
t13 -8.5t11 -6t13.5 -5.5t12 -1.5q18 9 36 42q9 1 13 -4t4 -16q0 -28 -26.5 -53t-54.5 -25q-21 0 -68 33q-50 34 -73 34q-22 -20 -37 -55z" />
    <glyph glyph-name="odieresis" unicode="&#xf6;" horiz-adv-x="350" 
d="M129 278q0 -76 31 -121q74 157 74 263q0 46 -37 58q-27 -17 -47.5 -76.5t-20.5 -123.5zM82 30q27 25 61 92q-43 53 -47 164q-44 -111 -44 -189q0 -57 30 -67zM198 64q-51 -73 -116 -73q-51 0 -85.5 33t-34.5 92q0 69 29.5 154t76.5 153q23 36 41 36q7 0 14 -4
q31 54 95 54q43 0 77 -29.5t34 -77.5q0 -49 -29.5 -133.5t-72.5 -158.5q98 48 212 339q21 3 21 -16q0 -24 -18 -79.5t-47.5 -117t-75 -108t-91.5 -46.5q-12 0 -17 1q-2 -3 -6.5 -9.5t-6.5 -9.5zM162 619q0 18 17.5 37.5t36.5 19.5q18 0 32 -10.5t14 -25.5q0 -20 -19 -41.5
t-40 -21.5q-16 0 -28.5 12.5t-12.5 29.5zM293 625q0 19 17.5 39.5t38.5 20.5q20 0 33.5 -10t13.5 -27q0 -23 -18.5 -44t-42.5 -21q-18 0 -30 12.5t-12 29.5z" />
    <glyph glyph-name="divide" unicode="&#xf7;" horiz-adv-x="379" 
d="M179 436l-2 -1q0 12 13 31t29 19q17 0 30 -7t13 -18q0 -17 -16.5 -37t-33.5 -20q-11 0 -22 10t-11 23zM101 215l-2 -1q0 12 13 31t29 19q17 0 30 -7t13 -18q0 -17 -16.5 -37t-33.5 -20q-11 0 -22 10t-11 23zM327 362q2 -8 2 -13q0 -45 -53 -45q-22 0 -95 3.5t-105 3.5
q-23 0 -32 -1q-2 10 -2 15q2 37 50 37q35 0 92 -1.5t79 -1.5q35 0 64 3z" />
    <glyph glyph-name="oslash" unicode="&#xf8;" horiz-adv-x="350" 
d="M38 124q0 -23 5 -45q90 178 188 385q-13 10 -34 14q-44 -37 -101.5 -155.5t-57.5 -198.5zM90 22q46 39 106.5 170t60.5 221q0 21 -9 35q-99 -241 -193 -399q12 -19 35 -27zM82 -9q-30 0 -56 12q-3 -4 -8.5 -12.5t-10 -15t-8.5 -11.5q-10 2 -10 7q0 3 3 9q2 5 8 16t9 17
q-47 35 -47 103q0 67 30 151t76 156q23 36 42 36q6 0 13 -3q31 53 95 53q15 0 32 -5q2 5 6 12.5t5 10.5q12 0 12 -11q0 -10 -5 -18q61 -30 61 -96q0 -49 -29.5 -133.5t-72.5 -158.5q98 48 212 339q21 3 21 -12q0 -22 -17 -77t-45.5 -118.5t-74.5 -111.5t-95 -48q-12 0 -17 1
q-2 -3 -6.5 -9.5t-6.5 -9.5q-51 -73 -116 -73z" />
    <glyph glyph-name="ugrave" unicode="&#xf9;" horiz-adv-x="393" 
d="M166 139q-82 -152 -142 -152q-29 0 -53.5 17t-24.5 50q0 46 33 134.5t69.5 173.5t40.5 111q-25 -7 -43 -7q-26 0 -26 17q0 7 3 14q16 -1 45 2t40 3q23 0 42.5 -16t19.5 -50q0 -25 -69.5 -185.5t-69.5 -204.5q0 -7 1 -10q28 1 73.5 63.5t91.5 156.5q41 84 96 241
q17 4 37 4q39 0 39 -26q0 -43 -64 -211q-18 -47 -52 -126t-41 -99q51 25 131.5 147t138.5 263q21 4 21 -12q0 -19 -37 -99.5t-72 -145.5q-113 -202 -192 -202q-24 0 -44 17t-20 42q0 20 28 90zM176 730q24 -118 111 -171q-1 -12 -15 -12q-35 0 -88 47.5t-53 90.5q0 41 45 45
z" />
    <glyph glyph-name="uacute" unicode="&#xfa;" horiz-adv-x="393" 
d="M166 139q-82 -152 -142 -152q-29 0 -53.5 17t-24.5 50q0 46 33 134.5t69.5 173.5t40.5 111q-25 -7 -43 -7q-26 0 -26 17q0 7 3 14q16 -1 45 2t40 3q23 0 42.5 -16t19.5 -50q0 -25 -69.5 -185.5t-69.5 -204.5q0 -7 1 -10q28 1 73.5 63.5t91.5 156.5q41 84 96 241
q17 4 37 4q39 0 39 -26q0 -43 -64 -211q-18 -47 -52 -126t-41 -99q51 25 131.5 147t138.5 263q21 4 21 -12q0 -19 -37 -99.5t-72 -145.5q-113 -202 -192 -202q-24 0 -44 17t-20 42q0 20 28 90zM167 562q119 32 226 155q26 -10 26 -30q0 -45 -89 -93.5t-145 -48.5
q-18 0 -18 17z" />
    <glyph glyph-name="ucircumflex" unicode="&#xfb;" horiz-adv-x="393" 
d="M166 139q-82 -152 -142 -152q-29 0 -53.5 17t-24.5 50q0 46 33 134.5t69.5 173.5t40.5 111q-25 -7 -43 -7q-26 0 -26 17q0 7 3 14q16 -1 45 2t40 3q23 0 42.5 -16t19.5 -50q0 -25 -69.5 -185.5t-69.5 -204.5q0 -7 1 -10q28 1 73.5 63.5t91.5 156.5q41 84 96 241
q17 4 37 4q39 0 39 -26q0 -43 -64 -211q-18 -47 -52 -126t-41 -99q51 25 131.5 147t138.5 263q21 4 21 -12q0 -19 -37 -99.5t-72 -145.5q-113 -202 -192 -202q-24 0 -44 17t-20 42q0 20 28 90zM356 543q-21 0 -41 22.5t-34 62.5q-45 -36 -89.5 -58t-67.5 -22q-10 0 -11 10
q26 14 52.5 32.5t49 38t37 34t31 32t18.5 19.5q11 0 15 -4t5 -13q5 -38 9 -56.5t14.5 -45t27.5 -42.5q-6 -10 -16 -10z" />
    <glyph glyph-name="udieresis" unicode="&#xfc;" horiz-adv-x="393" 
d="M166 139q-82 -152 -142 -152q-29 0 -53.5 17t-24.5 50q0 46 33 134.5t69.5 173.5t40.5 111q-25 -7 -43 -7q-26 0 -26 17q0 7 3 14q16 -1 45 2t40 3q23 0 42.5 -16t19.5 -50q0 -25 -69.5 -185.5t-69.5 -204.5q0 -7 1 -10q28 1 73.5 63.5t91.5 156.5q41 84 96 241
q17 4 37 4q39 0 39 -26q0 -43 -64 -211q-18 -47 -52 -126t-41 -99q51 25 131.5 147t138.5 263q21 4 21 -12q0 -19 -37 -99.5t-72 -145.5q-113 -202 -192 -202q-24 0 -44 17t-20 42q0 20 28 90zM142 619q0 18 17.5 37.5t36.5 19.5q18 0 32 -10.5t14 -25.5q0 -20 -19 -41.5
t-40 -21.5q-16 0 -28.5 12.5t-12.5 29.5zM273 625q0 19 17.5 39.5t38.5 20.5q20 0 33.5 -10t13.5 -27q0 -23 -18.5 -44t-42.5 -21q-18 0 -30 12.5t-12 29.5z" />
    <glyph glyph-name="yacute" unicode="&#xfd;" horiz-adv-x="372" 
d="M-32 -331q-64 0 -101.5 35.5t-37.5 84.5q0 116 176 152q5 1 38 8.5t54 13.5q78 215 81 223q-84 -185 -152 -185q-29 0 -55 17t-26 51q0 43 34.5 128.5t69.5 165.5t36 109q-15 -4 -38 -6q-27 0 -27 18q0 6 3 13q16 -1 45 2t40 3q20 0 36.5 -19t16.5 -57q0 -34 -67 -191.5
t-63 -184.5q43 2 119.5 144.5t129.5 303.5q9 1 27 1q52 0 52 -24q0 -12 -9.5 -41.5t-28.5 -83t-30 -86.5q-57 -166 -87 -248q143 155 257 433q21 2 21 -13q0 -19 -20.5 -78t-55.5 -134.5t-94.5 -149t-125.5 -107.5q-46 -118 -50 -128q-30 -75 -78 -122.5t-90 -47.5zM-8 -280
q25 22 91 205q-8 -4 -24 -9.5t-18 -6.5q-62 -22 -91.5 -45.5t-29.5 -63.5q0 -32 19.5 -55.5t52.5 -24.5zM163 562q119 32 226 155q26 -10 26 -30q0 -45 -89 -93.5t-145 -48.5q-18 0 -18 17z" />
    <glyph glyph-name="thorn" unicode="&#xfe;" horiz-adv-x="391" 
d="M46 91q28 -42 51 -42q20 0 43 41.5t69 165.5q60 161 52 205q-38 -5 -89.5 -93t-125.5 -277zM-103 -321q-63 -1 -63 31q0 25 13.5 77t36.5 120t43 124t44.5 121.5t29.5 80.5q21 57 78 204t98.5 257t52.5 146q45 -1 62 -9t17 -29q0 -27 -34.5 -112t-85 -197.5t-68.5 -160.5
q83 178 145 178q28 0 54 -25t26 -58q0 -87 -43.5 -209.5t-101.5 -185.5q44 19 133 147t146 270q21 2 21 -11q0 -14 -14 -60.5t-45.5 -113t-73 -127.5t-105 -104t-133.5 -43q-35 0 -56.5 16.5t-39.5 53.5q-55 -144 -137 -381z" />
    <glyph glyph-name="ydieresis" unicode="&#xff;" horiz-adv-x="372" 
d="M-32 -331q-64 0 -101.5 35.5t-37.5 84.5q0 116 176 152q5 1 38 8.5t54 13.5q78 215 81 223q-84 -185 -152 -185q-29 0 -55 17t-26 51q0 43 34.5 128.5t69.5 165.5t36 109q-15 -4 -38 -6q-27 0 -27 18q0 6 3 13q16 -1 45 2t40 3q20 0 36.5 -19t16.5 -57q0 -34 -67 -191.5
t-63 -184.5q43 2 119.5 144.5t129.5 303.5q9 1 27 1q52 0 52 -24q0 -12 -9.5 -41.5t-28.5 -83t-30 -86.5q-57 -166 -87 -248q143 155 257 433q21 2 21 -13q0 -19 -20.5 -78t-55.5 -134.5t-94.5 -149t-125.5 -107.5q-46 -118 -50 -128q-30 -75 -78 -122.5t-90 -47.5zM-8 -280
q25 22 91 205q-8 -4 -24 -9.5t-18 -6.5q-62 -22 -91.5 -45.5t-29.5 -63.5q0 -32 19.5 -55.5t52.5 -24.5zM138 619q0 18 17.5 37.5t36.5 19.5q18 0 32 -10.5t14 -25.5q0 -20 -19 -41.5t-40 -21.5q-16 0 -28.5 12.5t-12.5 29.5zM269 625q0 19 17.5 39.5t38.5 20.5
q20 0 33.5 -10t13.5 -27q0 -23 -18.5 -44t-42.5 -21q-18 0 -30 12.5t-12 29.5z" />
    <glyph glyph-name="Amacron" unicode="&#x100;" horiz-adv-x="827" 
d="M504 200q-10 -27 -28 -75q16 1 102 4q30 90 102 271.5t103.5 281.5t6.5 114q-54 -36 -124 -191t-162 -405zM660 -210q-129 0 -129 129q0 54 27 145q-99 6 -105 6q-35 -79 -66 -128.5t-66 -76t-69.5 -36t-83.5 -9.5q-85 0 -126.5 58.5t-41.5 150.5q0 87 32.5 174t93 146.5
t130.5 59.5q57 0 87 -38t30 -95q0 -54 -26.5 -107.5t-75.5 -88.5q51 23 117 35q13 28 37 88q130 333 219 485.5t170 152.5q34 0 57 -27t23 -65q0 -46 -32 -143.5t-90 -248t-84 -225.5q35 1 70 8q2 -4 2 -9q0 -17 -25.5 -37t-67.5 -28q-34 -110 -34 -171q0 -58 46 -58
q33 0 62 37q14 -3 14 -15q0 -23 -26.5 -46t-68.5 -23zM186 -141q86 21 180 211q-83 -7 -152 -32q-16 -4 -21 -4q-15 0 -20 13q35 22 78 108t43 152q0 48 -31 66q-64 -21 -114 -131t-50 -219q0 -139 87 -164zM987 1022q-3 -38 -12.5 -50.5t-48.5 -12.5q-31 0 -191 5
q7 37 16.5 47.5t43.5 10.5q19 0 59.5 -0.5t73.5 -0.5t59 1z" />
    <glyph glyph-name="amacron" unicode="&#x101;" horiz-adv-x="380" 
d="M198 -10q-22 0 -40.5 19.5t-18.5 40.5q0 11 5.5 30t18 53.5t18.5 52.5q-26 -51 -40.5 -78t-35 -59t-38 -45.5t-34.5 -13.5q-28 0 -54 23.5t-26 56.5q0 85 52 215q88 225 170 225q29 0 53.5 -23.5t28.5 -63.5q7 16 18 45t12 32q37 1 55 -6.5t18 -32.5q0 -34 -62 -197
q-14 -38 -46.5 -115.5t-40.5 -103.5q60 51 132.5 162.5t125.5 241.5q21 4 21 -12q0 -26 -33.5 -106t-68.5 -143q-112 -198 -190 -198zM38 36q50 23 142 212q2 5 14 30t16 34.5t11.5 28t10 30.5t2.5 23q1 24 -8.5 39t-23.5 15q-16 0 -40 -43.5t-73 -164.5
q-26 -64 -40.5 -123.5t-10.5 -80.5zM406 668q-3 -38 -12.5 -50.5t-48.5 -12.5q-31 0 -191 5q7 37 16.5 47.5t43.5 10.5h192z" />
    <glyph glyph-name="Abreve" unicode="&#x102;" horiz-adv-x="827" 
d="M504 200q-10 -27 -28 -75q16 1 102 4q30 90 102 271.5t103.5 281.5t6.5 114q-54 -36 -124 -191t-162 -405zM660 -210q-129 0 -129 129q0 54 27 145q-99 6 -105 6q-35 -79 -66 -128.5t-66 -76t-69.5 -36t-83.5 -9.5q-85 0 -126.5 58.5t-41.5 150.5q0 87 32.5 174t93 146.5
t130.5 59.5q57 0 87 -38t30 -95q0 -54 -26.5 -107.5t-75.5 -88.5q51 23 117 35q13 28 37 88q130 333 219 485.5t170 152.5q34 0 57 -27t23 -65q0 -46 -32 -143.5t-90 -248t-84 -225.5q35 1 70 8q2 -4 2 -9q0 -17 -25.5 -37t-67.5 -28q-34 -110 -34 -171q0 -58 46 -58
q33 0 62 37q14 -3 14 -15q0 -23 -26.5 -46t-68.5 -23zM186 -141q86 21 180 211q-83 -7 -152 -32q-16 -4 -21 -4q-15 0 -20 13q35 22 78 108t43 152q0 48 -31 66q-64 -21 -114 -131t-50 -219q0 -139 87 -164zM765 1052q5 4 12 4q17 0 16 -18q0 -42 7 -60q30 -4 45 -4
q91 0 121 79q2 1 6 1q15 0 15 -22q0 -46 -43 -80t-104 -34q-84 0 -84 69q0 25 9 65z" />
    <glyph glyph-name="abreve" unicode="&#x103;" horiz-adv-x="380" 
d="M198 -10q-22 0 -40.5 19.5t-18.5 40.5q0 11 5.5 30t18 53.5t18.5 52.5q-26 -51 -40.5 -78t-35 -59t-38 -45.5t-34.5 -13.5q-28 0 -54 23.5t-26 56.5q0 85 52 215q88 225 170 225q29 0 53.5 -23.5t28.5 -63.5q7 16 18 45t12 32q37 1 55 -6.5t18 -32.5q0 -34 -62 -197
q-14 -38 -46.5 -115.5t-40.5 -103.5q60 51 132.5 162.5t125.5 241.5q21 4 21 -12q0 -26 -33.5 -106t-68.5 -143q-112 -198 -190 -198zM38 36q50 23 142 212q2 5 14 30t16 34.5t11.5 28t10 30.5t2.5 23q1 24 -8.5 39t-23.5 15q-16 0 -40 -43.5t-73 -164.5
q-26 -64 -40.5 -123.5t-10.5 -80.5zM184 698q5 4 12 4q17 0 16 -18q0 -42 7 -60q30 -4 45 -4q91 0 121 79q2 1 6 1q15 0 15 -22q0 -46 -43 -80t-104 -34q-84 0 -84 69q0 25 9 65z" />
    <glyph glyph-name="Aogonek" unicode="&#x104;" horiz-adv-x="827" 
d="M504 200q-10 -27 -28 -75q16 1 102 4q30 90 102 271.5t103.5 281.5t6.5 114q-54 -36 -124 -191t-162 -405zM582 -421q-40 0 -63.5 16.5t-23.5 46.5q0 46 39 80.5t103 68.5q-106 11 -106 128q0 54 27 145q-99 6 -105 6q-35 -79 -66 -128.5t-66 -76t-69.5 -36t-83.5 -9.5
q-85 0 -126.5 58.5t-41.5 150.5q0 87 32.5 174t93 146.5t130.5 59.5q57 0 87 -38t30 -95q0 -54 -26.5 -107.5t-75.5 -88.5q51 23 117 35q13 28 37 88q130 333 219 485.5t170 152.5q34 0 57 -27t23 -65q0 -46 -32 -143.5t-90 -248t-84 -225.5q35 1 70 8q2 -4 2 -9
q0 -17 -25.5 -37t-67.5 -28q-34 -110 -34 -171q0 -58 46 -58q33 0 62 37q14 -3 14 -15q0 -26 -44 -57q-143 -102 -176 -164q24 -4 35 -4q47 0 69 40q24 -10 24 -36q0 -22 -21 -40.5t-60 -18.5zM186 -141q86 21 180 211q-83 -7 -152 -32q-16 -4 -21 -4q-15 0 -20 13
q35 22 78 108t43 152q0 48 -31 66q-64 -21 -114 -131t-50 -219q0 -139 87 -164z" />
    <glyph glyph-name="aogonek" unicode="&#x105;" horiz-adv-x="380" 
d="M98 -227q-40 0 -63.5 16.5t-23.5 46.5q0 48 40.5 83.5t123.5 76.5q-15 8 -25.5 23.5t-10.5 30.5q0 11 5.5 30t18 53.5t18.5 52.5q-26 -51 -40.5 -78t-35 -59t-38 -45.5t-34.5 -13.5q-28 0 -54 23.5t-26 56.5q0 85 52 215q88 225 170 225q29 0 53.5 -23.5t28.5 -63.5
q7 16 18 45t12 32q37 1 55 -6.5t18 -32.5q0 -34 -62 -197q-14 -38 -46.5 -115.5t-40.5 -103.5q60 51 132.5 162.5t125.5 241.5q21 4 21 -12q0 -26 -33.5 -106t-68.5 -143q-81 -144 -151 -186q-57 -34 -111 -82t-75 -88q24 -4 35 -4q47 0 69 40q24 -10 24 -36
q0 -22 -21 -40.5t-60 -18.5zM38 36q50 23 142 212q2 5 14 30t16 34.5t11.5 28t10 30.5t2.5 23q1 24 -8.5 39t-23.5 15q-16 0 -40 -43.5t-73 -164.5q-26 -64 -40.5 -123.5t-10.5 -80.5z" />
    <glyph glyph-name="Cacute" unicode="&#x106;" horiz-adv-x="824" 
d="M600 199q28 6 78 103.5t89.5 224.5t39.5 203q0 48 -17 65q-75 -22 -157 -126.5t-161 -297.5q-36 -88 -62 -170q104 87 161 220q30 69 59.5 99t70.5 4q-43 -90 -74.5 -177t-31.5 -128q0 -15 5 -20zM623 45q-3 -75 -68.5 -151.5t-161.5 -76.5q-123 0 -123 172q0 49 11 112
q-44 -11 -85 -11q-106 0 -152.5 53.5t-43.5 146.5q3 82 36 166t92 143.5t125 59.5q50 0 74.5 -27.5t24.5 -73.5q0 -59 -19 -114.5t-46 -92.5t-55.5 -59t-48.5 -22q-16 0 -23 14q37 46 79.5 149.5t42.5 158.5q1 27 -13 35q-54 -20 -111 -132t-60 -202q-3 -89 33.5 -129.5
t93.5 -38.5q31 0 63 9q26 120 82 255q48 118 101.5 206t103.5 137.5t95.5 73t87.5 23.5q67 0 103.5 -39t36.5 -112q0 -83 -41 -205t-108.5 -218.5t-128.5 -96.5q-28 0 -54.5 21t-30.5 55q-3 32 7 74q-55 -96 -146 -155q-28 -101 -28 -175q0 -108 56 -124q88 49 132 243
q9 3 19 3q21 0 35 -14t13 -41zM746 904q119 32 226 155q26 -10 26 -30q0 -45 -89 -93.5t-145 -48.5q-18 0 -18 17z" />
    <glyph glyph-name="cacute" unicode="&#x107;" horiz-adv-x="320" 
d="M90 35q58 11 161 142t160 277q21 4 21 -12q0 -14 -18.5 -63.5t-52 -115t-74.5 -127t-92 -104t-98 -42.5q-59 0 -99.5 32.5t-40.5 83.5q0 94 45.5 215t111.5 172q24 18 70 18q48 0 80.5 -29t32.5 -82q0 -60 -34.5 -132t-85.5 -72q-30 0 -40 27q26 30 56.5 106t30.5 119
q0 21 -8 26q-25 -1 -63.5 -67t-67.5 -154t-29 -147q0 -53 34 -71zM141 562q119 32 226 155q26 -10 26 -30q0 -45 -89 -93.5t-145 -48.5q-18 0 -18 17z" />
    <glyph glyph-name="Ccircumflex" unicode="&#x108;" horiz-adv-x="824" 
d="M600 199q28 6 78 103.5t89.5 224.5t39.5 203q0 48 -17 65q-75 -22 -157 -126.5t-161 -297.5q-36 -88 -62 -170q104 87 161 220q30 69 59.5 99t70.5 4q-43 -90 -74.5 -177t-31.5 -128q0 -15 5 -20zM623 45q-3 -75 -68.5 -151.5t-161.5 -76.5q-123 0 -123 172q0 49 11 112
q-44 -11 -85 -11q-106 0 -152.5 53.5t-43.5 146.5q3 82 36 166t92 143.5t125 59.5q50 0 74.5 -27.5t24.5 -73.5q0 -59 -19 -114.5t-46 -92.5t-55.5 -59t-48.5 -22q-16 0 -23 14q37 46 79.5 149.5t42.5 158.5q1 27 -13 35q-54 -20 -111 -132t-60 -202q-3 -89 33.5 -129.5
t93.5 -38.5q31 0 63 9q26 120 82 255q48 118 101.5 206t103.5 137.5t95.5 73t87.5 23.5q67 0 103.5 -39t36.5 -112q0 -83 -41 -205t-108.5 -218.5t-128.5 -96.5q-28 0 -54.5 21t-30.5 55q-3 32 7 74q-55 -96 -146 -155q-28 -101 -28 -175q0 -108 56 -124q88 49 132 243
q9 3 19 3q21 0 35 -14t13 -41zM910 885q-21 0 -41 22.5t-34 62.5q-45 -36 -89.5 -58t-67.5 -22q-10 0 -11 10q26 14 52.5 32.5t49 38t37 34t31 32t18.5 19.5q11 0 15 -4t5 -13q5 -38 9 -56.5t14.5 -45t27.5 -42.5q-6 -10 -16 -10z" />
    <glyph glyph-name="ccircumflex" unicode="&#x109;" horiz-adv-x="320" 
d="M90 35q58 11 161 142t160 277q21 4 21 -12q0 -14 -18.5 -63.5t-52 -115t-74.5 -127t-92 -104t-98 -42.5q-59 0 -99.5 32.5t-40.5 83.5q0 94 45.5 215t111.5 172q24 18 70 18q48 0 80.5 -29t32.5 -82q0 -60 -34.5 -132t-85.5 -72q-30 0 -40 27q26 30 56.5 106t30.5 119
q0 21 -8 26q-25 -1 -63.5 -67t-67.5 -154t-29 -147q0 -53 34 -71zM330 543q-21 0 -41 22.5t-34 62.5q-45 -36 -89.5 -58t-67.5 -22q-10 0 -11 10q26 14 52.5 32.5t49 38t37 34t31 32t18.5 19.5q11 0 15 -4t5 -13q5 -38 9 -56.5t14.5 -45t27.5 -42.5q-6 -10 -16 -10z" />
    <glyph glyph-name="Cdotaccent" unicode="&#x10a;" horiz-adv-x="824" 
d="M600 199q28 6 78 103.5t89.5 224.5t39.5 203q0 48 -17 65q-75 -22 -157 -126.5t-161 -297.5q-36 -88 -62 -170q104 87 161 220q30 69 59.5 99t70.5 4q-43 -90 -74.5 -177t-31.5 -128q0 -15 5 -20zM623 45q-3 -75 -68.5 -151.5t-161.5 -76.5q-123 0 -123 172q0 49 11 112
q-44 -11 -85 -11q-106 0 -152.5 53.5t-43.5 146.5q3 82 36 166t92 143.5t125 59.5q50 0 74.5 -27.5t24.5 -73.5q0 -59 -19 -114.5t-46 -92.5t-55.5 -59t-48.5 -22q-16 0 -23 14q37 46 79.5 149.5t42.5 158.5q1 27 -13 35q-54 -20 -111 -132t-60 -202q-3 -89 33.5 -129.5
t93.5 -38.5q31 0 63 9q26 120 82 255q48 118 101.5 206t103.5 137.5t95.5 73t87.5 23.5q67 0 103.5 -39t36.5 -112q0 -83 -41 -205t-108.5 -218.5t-128.5 -96.5q-28 0 -54.5 21t-30.5 55q-3 32 7 74q-55 -96 -146 -155q-28 -101 -28 -175q0 -108 56 -124q88 49 132 243
q9 3 19 3q21 0 35 -14t13 -41zM764 974q0 20 19 42.5t40 22.5q22 0 37 -11.5t15 -29.5q0 -24 -20 -46.5t-46 -22.5q-19 0 -32 13.5t-13 31.5z" />
    <glyph glyph-name="cdotaccent" unicode="&#x10b;" horiz-adv-x="320" 
d="M90 35q58 11 161 142t160 277q21 4 21 -12q0 -14 -18.5 -63.5t-52 -115t-74.5 -127t-92 -104t-98 -42.5q-59 0 -99.5 32.5t-40.5 83.5q0 94 45.5 215t111.5 172q24 18 70 18q48 0 80.5 -29t32.5 -82q0 -60 -34.5 -132t-85.5 -72q-30 0 -40 27q26 30 56.5 106t30.5 119
q0 21 -8 26q-25 -1 -63.5 -67t-67.5 -154t-29 -147q0 -53 34 -71zM199 632q0 20 19 42.5t40 22.5q22 0 37 -11.5t15 -29.5q0 -24 -20 -46.5t-46 -22.5q-19 0 -32 13.5t-13 31.5z" />
    <glyph glyph-name="Ccaron" unicode="&#x10c;" horiz-adv-x="824" 
d="M600 199q28 6 78 103.5t89.5 224.5t39.5 203q0 48 -17 65q-75 -22 -157 -126.5t-161 -297.5q-36 -88 -62 -170q104 87 161 220q30 69 59.5 99t70.5 4q-43 -90 -74.5 -177t-31.5 -128q0 -15 5 -20zM623 45q-3 -75 -68.5 -151.5t-161.5 -76.5q-123 0 -123 172q0 49 11 112
q-44 -11 -85 -11q-106 0 -152.5 53.5t-43.5 146.5q3 82 36 166t92 143.5t125 59.5q50 0 74.5 -27.5t24.5 -73.5q0 -59 -19 -114.5t-46 -92.5t-55.5 -59t-48.5 -22q-16 0 -23 14q37 46 79.5 149.5t42.5 158.5q1 27 -13 35q-54 -20 -111 -132t-60 -202q-3 -89 33.5 -129.5
t93.5 -38.5q31 0 63 9q26 120 82 255q48 118 101.5 206t103.5 137.5t95.5 73t87.5 23.5q67 0 103.5 -39t36.5 -112q0 -83 -41 -205t-108.5 -218.5t-128.5 -96.5q-28 0 -54.5 21t-30.5 55q-3 32 7 74q-55 -96 -146 -155q-28 -101 -28 -175q0 -108 56 -124q88 49 132 243
q9 3 19 3q21 0 35 -14t13 -41zM746 1059q21 0 41 -22.5t34 -62.5q45 36 89.5 58t67.5 22q10 0 11 -10q-26 -14 -52.5 -32.5t-49 -38t-37 -34t-31 -32t-18.5 -19.5q-11 0 -15 4t-5 13q-5 38 -9 56.5t-14.5 45t-27.5 42.5q6 10 16 10z" />
    <glyph glyph-name="ccaron" unicode="&#x10d;" horiz-adv-x="320" 
d="M90 35q58 11 161 142t160 277q21 4 21 -12q0 -14 -18.5 -63.5t-52 -115t-74.5 -127t-92 -104t-98 -42.5q-59 0 -99.5 32.5t-40.5 83.5q0 94 45.5 215t111.5 172q24 18 70 18q48 0 80.5 -29t32.5 -82q0 -60 -34.5 -132t-85.5 -72q-30 0 -40 27q26 30 56.5 106t30.5 119
q0 21 -8 26q-25 -1 -63.5 -67t-67.5 -154t-29 -147q0 -53 34 -71zM181 717q21 0 41 -22.5t34 -62.5q45 36 89.5 58t67.5 22q10 0 11 -10q-26 -14 -52.5 -32.5t-49 -38t-37 -34t-31 -32t-18.5 -19.5q-11 0 -15 4t-5 13q-5 38 -9 56.5t-14.5 45t-27.5 42.5q6 10 16 10z" />
    <glyph glyph-name="Dcaron" unicode="&#x10e;" horiz-adv-x="764" 
d="M366 -181q-38 0 -97 59q-56 -59 -133 -59q-63 0 -99.5 38t-36.5 88q0 44 30.5 74.5t88.5 30.5q47 0 114 -67q40 82 117.5 292t106.5 280q26 65 48 90t49 25q26 0 46 -20q-43 -111 -117.5 -309t-82.5 -218q-51 -135 -99 -206q38 -31 69 -40q43 18 114.5 150t119.5 290
q58 194 58 313q0 127 -66 158q-7 1 -14 1q-88 0 -164 -78.5t-116.5 -187.5t-40.5 -210q-2 -77 26 -127q-12 -19 -40 -19q-35 0 -62 37t-27 118q0 59 18 128.5t51.5 137t78 123t102.5 89.5t119 34q46 0 86 -12.5t74.5 -39t54 -73.5t19.5 -110q0 -91 -45 -259
q-34 -124 -89 -241t-126 -198.5t-135 -81.5zM137 -148q33 16 74 88q-64 73 -87 80q-17 -8 -29 -33t-12 -54q0 -62 54 -81zM582 1064q21 0 41 -22.5t34 -62.5q45 36 89.5 58t67.5 22q10 0 11 -10q-26 -14 -52.5 -32.5t-49 -38t-37 -34t-31 -32t-18.5 -19.5q-11 0 -15 4t-5 13
q-5 38 -9 56.5t-14.5 45t-27.5 42.5q6 10 16 10z" />
    <glyph glyph-name="dcaron" unicode="&#x10f;" horiz-adv-x="398" 
d="M202 448q-15 0 -37.5 -38.5t-62.5 -137.5q-78 -188 -69 -236q58 9 147 212q5 12 17.5 39t18.5 41.5t12 33.5t6 32q1 24 -8.5 39t-23.5 15zM178 178q-89 -191 -150 -191q-26 0 -50.5 25t-24.5 58q0 85 52 215q88 225 170 225q29 0 54 -24.5t28 -64.5q110 273 169 405
q75 2 75 -23q0 -9 -6 -25.5t-19.5 -48t-19.5 -48.5q-124 -310 -160 -402q-10 -26 -33 -83.5t-37.5 -95.5t-23.5 -66q55 22 112 123q14 2 14 -11q0 -36 -48 -96t-90 -60q-20 0 -36.5 18t-16.5 39q0 15 5 32t17.5 48.5t18.5 50.5zM512 771q21 15 45 15q16 0 26 -13.5t10 -38.5
q0 -62 -48.5 -131.5t-82.5 -69.5q-11 0 -16 10q78 93 78 168q0 32 -12 60z" />
    <glyph glyph-name="Dcroat" unicode="&#x110;" horiz-adv-x="764" 
d="M366 -181q-39 0 -98 59q-56 -59 -132 -59q-62 0 -99 38t-37 88q0 45 30.5 75t88.5 30q47 0 114 -67q42 87 120 299q-59 -2 -84 -5q-2 10 -2 15q0 36 50 36q28 0 52 -3q62 166 88 230q26 65 48 90t49 25q26 0 46 -20q-2 -4 -17 -42t-19 -49q-35 -90 -88 -236q15 1 50 5
q2 -8 2 -15q0 -39 -47 -39q-8 0 -22 2q-54 -145 -88.5 -225.5t-70.5 -132.5q40 -33 70 -41q43 18 112.5 147t124.5 304.5t55 301.5q0 127 -66 158q-6 1 -17 1q-74 0 -141 -47t-112 -119.5t-71.5 -157.5t-26.5 -162q0 -76 27 -127q-12 -19 -40 -19q-36 0 -62.5 37t-26.5 118
t31 172t83 169t128.5 129.5t158.5 51.5q46 0 86 -12.5t74.5 -39t54 -73.5t19.5 -110q0 -72 -22.5 -174t-62 -206t-88.5 -194.5t-108 -148t-114 -57.5zM137 -148q33 16 74 88q-64 73 -87 80q-17 -8 -29 -33t-12 -53q0 -63 54 -82z" />
    <glyph glyph-name="dcroat" unicode="&#x111;" horiz-adv-x="381" 
d="M202 448q-15 0 -37.5 -38.5t-62.5 -137.5q-78 -188 -69 -236q58 9 147 212q5 12 17.5 39t18.5 41.5t12 33.5t6 32q1 24 -8.5 39t-23.5 15zM178 178q-89 -191 -150 -191q-26 0 -50.5 25t-24.5 58q0 85 52 215q88 225 170 225q29 0 54 -24.5t28 -64.5q30 75 82 200
q-71 2 -98 1q-1 3 -1 10q0 27 34 27q23 0 78 -5q39 95 74 172q75 2 75 -23q0 -9 -6 -25.5t-19.5 -48t-19.5 -48.5q-2 -4 -5.5 -12.5t-4.5 -12.5q42 2 58 3q1 -4 1 -13q0 -30 -40 -30q-22 0 -35 1q-116 -292 -134 -338q-12 -31 -33 -83.5t-36 -91t-24 -65.5q47 26 128 148
t139 262q21 4 21 -13q0 -21 -29 -91.5t-71 -150t-98.5 -142t-102.5 -62.5q-20 0 -36.5 18t-16.5 39q0 15 5 32t17.5 48.5t18.5 50.5z" />
    <glyph glyph-name="Emacron" unicode="&#x112;" horiz-adv-x="694" 
d="M658 797q-57 0 -109.5 -61.5t-83 -150.5t-34.5 -176q15 20 49 82q49 91 70 111q16 15 30 15q9 0 18 -6q-19 -58 -19 -104q0 -57 29 -97q40 28 69 110.5t29 159.5q0 96 -48 117zM561 41q0 -48 -24 -98t-75 -87t-115 -37q-86 0 -129 48t-43 120q0 93 61.5 171t156.5 86
q-17 18 -32 52q-83 -56 -173 -56q-98 0 -143 51t-45 139q0 100 61.5 192t147.5 92q50 0 76.5 -29t26.5 -75q0 -63 -40 -132.5t-86 -69.5q-22 0 -27 18q25 30 51.5 105.5t26.5 119.5q0 25 -11 31q-55 -21 -91.5 -100.5t-36.5 -160.5q0 -69 28.5 -106.5t82.5 -37.5
q72 0 141 52q-12 45 -12 99q0 96 34 188.5t102 157t153 64.5q86 0 128 -53t42 -135q0 -103 -56.5 -190.5t-135.5 -87.5q-46 0 -71.5 26t-29.5 66q-28 -59 -73 -107q5 -64 28 -103q64 19 124 52q15 -21 15 -42q0 -32 -25.5 -52.5t-62.5 -20.5q-43 0 -84 25
q-70 -27 -107.5 -104.5t-37.5 -157.5q0 -77 32 -95q52 2 89.5 48.5t53 101.5t18.5 111q14 2 19 2q33 0 50.5 -22.5t17.5 -58.5zM830 1019q-3 -38 -12.5 -50.5t-48.5 -12.5q-31 0 -191 5q7 37 16.5 47.5t43.5 10.5h192z" />
    <glyph glyph-name="emacron" unicode="&#x113;" horiz-adv-x="321" 
d="M226 473q-34 -2 -91.5 -110.5t-79.5 -204.5q42 7 85 65t68 123.5t25 103.5q0 17 -7 23zM90 35q67 15 165 144t156 271q21 4 21 -12q0 -19 -26.5 -87.5t-68.5 -151t-108 -146t-132 -63.5q-60 0 -101 32t-41 83q0 79 39 185t96 170q44 51 105 51q44 0 75.5 -24t31.5 -74
q0 -45 -29.5 -111t-84 -121t-111.5 -55q-15 0 -28 4q-2 -22 -2 -30q0 -48 43 -65zM385 668q-3 -38 -12.5 -50.5t-48.5 -12.5q-31 0 -191 5q7 37 16.5 47.5t43.5 10.5q19 0 59.5 -0.5t73.5 -0.5t59 1z" />
    <glyph glyph-name="Ebreve" unicode="&#x114;" horiz-adv-x="694" 
d="M658 797q-57 0 -109.5 -61.5t-83 -150.5t-34.5 -176q15 20 49 82q49 91 70 111q16 15 30 15q9 0 18 -6q-19 -58 -19 -104q0 -57 29 -97q40 28 69 110.5t29 159.5q0 96 -48 117zM561 41q0 -48 -24 -98t-75 -87t-115 -37q-86 0 -129 48t-43 120q0 93 61.5 171t156.5 86
q-17 18 -32 52q-83 -56 -173 -56q-98 0 -143 51t-45 139q0 100 61.5 192t147.5 92q50 0 76.5 -29t26.5 -75q0 -63 -40 -132.5t-86 -69.5q-22 0 -27 18q25 30 51.5 105.5t26.5 119.5q0 25 -11 31q-55 -21 -91.5 -100.5t-36.5 -160.5q0 -69 28.5 -106.5t82.5 -37.5
q72 0 141 52q-12 45 -12 99q0 96 34 188.5t102 157t153 64.5q86 0 128 -53t42 -135q0 -103 -56.5 -190.5t-135.5 -87.5q-46 0 -71.5 26t-29.5 66q-28 -59 -73 -107q5 -64 28 -103q64 19 124 52q15 -21 15 -42q0 -32 -25.5 -52.5t-62.5 -20.5q-43 0 -84 25
q-70 -27 -107.5 -104.5t-37.5 -157.5q0 -77 32 -95q52 2 89.5 48.5t53 101.5t18.5 111q14 2 19 2q33 0 50.5 -22.5t17.5 -58.5zM608 1049q5 4 12 4q17 0 16 -18q0 -42 7 -60q30 -4 45 -4q91 0 121 79q2 1 6 1q15 0 15 -22q0 -46 -43 -80t-104 -34q-84 0 -84 69q0 25 9 65z
" />
    <glyph glyph-name="ebreve" unicode="&#x115;" horiz-adv-x="321" 
d="M226 473q-34 -2 -91.5 -110.5t-79.5 -204.5q42 7 85 65t68 123.5t25 103.5q0 17 -7 23zM90 35q67 15 165 144t156 271q21 4 21 -12q0 -19 -26.5 -87.5t-68.5 -151t-108 -146t-132 -63.5q-60 0 -101 32t-41 83q0 79 39 185t96 170q44 51 105 51q44 0 75.5 -24t31.5 -74
q0 -45 -29.5 -111t-84 -121t-111.5 -55q-15 0 -28 4q-2 -22 -2 -30q0 -48 43 -65zM163 698q5 4 12 4q17 0 16 -18q0 -42 7 -60q30 -4 45 -4q91 0 121 79q2 1 6 1q15 0 15 -22q0 -46 -43 -80t-104 -34q-84 0 -84 69q0 25 9 65z" />
    <glyph glyph-name="Edotaccent" unicode="&#x116;" horiz-adv-x="694" 
d="M658 797q-57 0 -109.5 -61.5t-83 -150.5t-34.5 -176q15 20 49 82q49 91 70 111q16 15 30 15q9 0 18 -6q-19 -58 -19 -104q0 -57 29 -97q40 28 69 110.5t29 159.5q0 96 -48 117zM561 41q0 -48 -24 -98t-75 -87t-115 -37q-86 0 -129 48t-43 120q0 93 61.5 171t156.5 86
q-17 18 -32 52q-83 -56 -173 -56q-98 0 -143 51t-45 139q0 100 61.5 192t147.5 92q50 0 76.5 -29t26.5 -75q0 -63 -40 -132.5t-86 -69.5q-22 0 -27 18q25 30 51.5 105.5t26.5 119.5q0 25 -11 31q-55 -21 -91.5 -100.5t-36.5 -160.5q0 -69 28.5 -106.5t82.5 -37.5
q72 0 141 52q-12 45 -12 99q0 96 34 188.5t102 157t153 64.5q86 0 128 -53t42 -135q0 -103 -56.5 -190.5t-135.5 -87.5q-46 0 -71.5 26t-29.5 66q-28 -59 -73 -107q5 -64 28 -103q64 19 124 52q15 -21 15 -42q0 -32 -25.5 -52.5t-62.5 -20.5q-43 0 -84 25
q-70 -27 -107.5 -104.5t-37.5 -157.5q0 -77 32 -95q52 2 89.5 48.5t53 101.5t18.5 111q14 2 19 2q33 0 50.5 -22.5t17.5 -58.5zM651 983q0 20 19 42.5t40 22.5q22 0 37 -11.5t15 -29.5q0 -24 -20 -46.5t-46 -22.5q-19 0 -32 13.5t-13 31.5z" />
    <glyph glyph-name="edotaccent" unicode="&#x117;" horiz-adv-x="321" 
d="M226 473q-34 -2 -91.5 -110.5t-79.5 -204.5q42 7 85 65t68 123.5t25 103.5q0 17 -7 23zM90 35q67 15 165 144t156 271q21 4 21 -12q0 -19 -26.5 -87.5t-68.5 -151t-108 -146t-132 -63.5q-60 0 -101 32t-41 83q0 79 39 185t96 170q44 51 105 51q44 0 75.5 -24t31.5 -74
q0 -45 -29.5 -111t-84 -121t-111.5 -55q-15 0 -28 4q-2 -22 -2 -30q0 -48 43 -65zM206 632q0 20 19 42.5t40 22.5q22 0 37 -11.5t15 -29.5q0 -24 -20 -46.5t-46 -22.5q-19 0 -32 13.5t-13 31.5z" />
    <glyph glyph-name="Eogonek" unicode="&#x118;" horiz-adv-x="694" 
d="M658 797q-57 0 -109.5 -61.5t-83 -150.5t-34.5 -176q15 20 49 82q49 91 70 111q16 15 30 15q9 0 18 -6q-19 -58 -19 -104q0 -57 29 -97q40 28 69 110.5t29 159.5q0 96 -48 117zM397 -319q0 -22 -21 -40.5t-60 -18.5q-40 0 -63.5 16.5t-23.5 46.5q0 70 114 134
q-84 1 -126 49t-42 119q0 93 61.5 171t156.5 86q-17 18 -32 52q-83 -56 -173 -56q-98 0 -143 51t-45 139q0 100 61.5 192t147.5 92q50 0 76.5 -29t26.5 -75q0 -63 -40 -132.5t-86 -69.5q-22 0 -27 18q25 30 51.5 105.5t26.5 119.5q0 25 -11 31q-55 -21 -91.5 -100.5
t-36.5 -160.5q0 -69 28.5 -106.5t82.5 -37.5q72 0 141 52q-12 45 -12 99q0 96 34 188.5t102 157t153 64.5q86 0 128 -53t42 -135q0 -103 -56.5 -190.5t-135.5 -87.5q-46 0 -71.5 26t-29.5 66q-28 -59 -73 -107q5 -64 28 -103q64 19 124 52q15 -21 15 -42q0 -32 -25.5 -52.5
t-62.5 -20.5q-43 0 -84 25q-70 -27 -107.5 -104.5t-37.5 -157.5q0 -77 32 -95q52 2 89.5 48.5t53 101.5t18.5 111q14 2 19 2q33 0 50.5 -22.5t17.5 -58.5q0 -52 -31 -108t-84 -88q-55 -33 -106 -79.5t-71 -84.5q24 -4 35 -4q47 0 69 40q24 -10 24 -36z" />
    <glyph glyph-name="eogonek" unicode="&#x119;" horiz-adv-x="321" 
d="M226 473q-34 -2 -91.5 -110.5t-79.5 -204.5q42 7 85 65t68 123.5t25 103.5q0 17 -7 23zM99 -168q0 -22 -21 -40.5t-60 -18.5q-40 0 -63.5 16.5t-23.5 46.5q0 26 13.5 49t38.5 43t47 33t53 29q-55 5 -91.5 36t-36.5 79q0 79 39 185t96 170q44 51 105 51q44 0 75.5 -24
t31.5 -74q0 -45 -29.5 -111t-84 -121t-111.5 -55q-15 0 -28 4q-2 -22 -2 -30q0 -48 43 -65q67 15 165 144t156 271q21 4 21 -12q0 -12 -11.5 -49.5t-35.5 -92.5t-54.5 -110t-75.5 -105.5t-93 -75.5q-56 -29 -113.5 -80t-77.5 -93q24 -4 35 -4q47 0 69 40q24 -10 24 -36z" />
    <glyph glyph-name="Ecaron" unicode="&#x11a;" horiz-adv-x="694" 
d="M658 797q-57 0 -109.5 -61.5t-83 -150.5t-34.5 -176q15 20 49 82q49 91 70 111q16 15 30 15q9 0 18 -6q-19 -58 -19 -104q0 -57 29 -97q40 28 69 110.5t29 159.5q0 96 -48 117zM561 41q0 -48 -24 -98t-75 -87t-115 -37q-86 0 -129 48t-43 120q0 93 61.5 171t156.5 86
q-17 18 -32 52q-83 -56 -173 -56q-98 0 -143 51t-45 139q0 100 61.5 192t147.5 92q50 0 76.5 -29t26.5 -75q0 -63 -40 -132.5t-86 -69.5q-22 0 -27 18q25 30 51.5 105.5t26.5 119.5q0 25 -11 31q-55 -21 -91.5 -100.5t-36.5 -160.5q0 -69 28.5 -106.5t82.5 -37.5
q72 0 141 52q-12 45 -12 99q0 96 34 188.5t102 157t153 64.5q86 0 128 -53t42 -135q0 -103 -56.5 -190.5t-135.5 -87.5q-46 0 -71.5 26t-29.5 66q-28 -59 -73 -107q5 -64 28 -103q64 19 124 52q15 -21 15 -42q0 -32 -25.5 -52.5t-62.5 -20.5q-43 0 -84 25
q-70 -27 -107.5 -104.5t-37.5 -157.5q0 -77 32 -95q52 2 89.5 48.5t53 101.5t18.5 111q14 2 19 2q33 0 50.5 -22.5t17.5 -58.5zM633 1068q21 0 41 -22.5t34 -62.5q45 36 89.5 58t67.5 22q10 0 11 -10q-26 -14 -52.5 -32.5t-49 -38t-37 -34t-31 -32t-18.5 -19.5q-11 0 -15 4
t-5 13q-5 38 -9 56.5t-14.5 45t-27.5 42.5q6 10 16 10z" />
    <glyph glyph-name="ecaron" unicode="&#x11b;" horiz-adv-x="321" 
d="M226 473q-34 -2 -91.5 -110.5t-79.5 -204.5q42 7 85 65t68 123.5t25 103.5q0 17 -7 23zM90 35q67 15 165 144t156 271q21 4 21 -12q0 -19 -26.5 -87.5t-68.5 -151t-108 -146t-132 -63.5q-60 0 -101 32t-41 83q0 79 39 185t96 170q44 51 105 51q44 0 75.5 -24t31.5 -74
q0 -45 -29.5 -111t-84 -121t-111.5 -55q-15 0 -28 4q-2 -22 -2 -30q0 -48 43 -65zM188 717q21 0 41 -22.5t34 -62.5q45 36 89.5 58t67.5 22q10 0 11 -10q-26 -14 -52.5 -32.5t-49 -38t-37 -34t-31 -32t-18.5 -19.5q-11 0 -15 4t-5 13q-5 38 -9 56.5t-14.5 45t-27.5 42.5
q6 10 16 10z" />
    <glyph glyph-name="Gcircumflex" unicode="&#x11c;" horiz-adv-x="723" 
d="M702 793q-46 -13 -103 -102.5t-105 -205.5t-77 -228q73 27 133.5 88.5t96 132.5t54.5 138t19 117q0 49 -18 60zM352 -294q-70 0 -121.5 35.5t-51.5 87.5q0 49 37 73t79 24q25 0 35 -6t10 -28q-69 -16 -69 -62q0 -41 55 -79q44 30 71.5 82t99.5 231q-52 -90 -103 -90
q-48 0 -76 40t-28 107q0 37 6 77h-23q-134 0 -203.5 46t-69.5 150q0 78 30 161t87 142t123 59q50 0 76.5 -29t26.5 -75q0 -117 -55.5 -202.5t-100.5 -85.5q-18 0 -24 17q34 46 71.5 146.5t37.5 156.5q0 32 -15 40q-53 -20 -106 -132t-53 -202q0 -91 45 -122.5t160 -31.5
q25 127 84 265t139.5 237.5t149.5 99.5q55 0 92.5 -39.5t37.5 -93.5q0 -71 -24.5 -146.5t-72 -145.5t-126.5 -124.5t-177 -76.5q-17 -74 -17 -124q0 -52 20 -65q32 1 69.5 54t65.5 126q30 5 45 5q38 0 38 -22q0 -41 -107 -310q-30 -75 -78 -122.5t-90 -47.5zM858 894
q-21 0 -41 22.5t-34 62.5q-45 -36 -89.5 -58t-67.5 -22q-10 0 -11 10q26 14 52.5 32.5t49 38t37 34t31 32t18.5 19.5q11 0 15 -4t5 -13q5 -38 9 -56.5t14.5 -45t27.5 -42.5q-6 -10 -16 -10z" />
    <glyph glyph-name="gcircumflex" unicode="&#x11d;" horiz-adv-x="374" 
d="M-29 -331q-64 0 -101.5 35.5t-37.5 84.5q0 116 176 152q10 3 40.5 9.5t49.5 11.5q9 24 20.5 56.5t19.5 54t12 31.5l31 82q-46 -92 -80.5 -139.5t-67.5 -47.5q-28 0 -54 25t-26 58q0 76 52 203q88 225 170 225q29 0 53.5 -23.5t28.5 -63.5q7 16 18 45t12 32q37 1 55 -6.5
t18 -32.5q0 -11 -8 -37.5t-26.5 -80t-27.5 -79.5q-38 -110 -89 -245q142 155 254 430q21 4 21 -12q0 -11 -12.5 -51.5t-39 -101.5t-60 -122t-83 -116t-100.5 -80q-16 -41 -50 -127q-30 -75 -78 -122.5t-90 -47.5zM234 394q1 24 -8.5 39t-23.5 15q-16 0 -40 -43.5t-73 -164.5
q-25 -63 -40 -118t-11 -74q27 13 71 75t71 125q4 10 17.5 38t19 42t11.5 33.5t6 32.5zM-5 -280q22 23 90 205q-97 -36 -122 -54q-40 -28 -40 -71q0 -32 19.5 -55.5t52.5 -24.5zM341 543q-21 0 -41 22.5t-34 62.5q-45 -36 -89.5 -58t-67.5 -22q-10 0 -11 10q26 14 52.5 32.5
t49 38t37 34t31 32t18.5 19.5q11 0 15 -4t5 -13q5 -38 9 -56.5t14.5 -45t27.5 -42.5q-6 -10 -16 -10z" />
    <glyph glyph-name="Gbreve" unicode="&#x11e;" horiz-adv-x="723" 
d="M702 793q-46 -13 -103 -102.5t-105 -205.5t-77 -228q73 27 133.5 88.5t96 132.5t54.5 138t19 117q0 49 -18 60zM352 -294q-70 0 -121.5 35.5t-51.5 87.5q0 49 37 73t79 24q25 0 35 -6t10 -28q-69 -16 -69 -62q0 -41 55 -79q44 30 71.5 82t99.5 231q-52 -90 -103 -90
q-48 0 -76 40t-28 107q0 37 6 77h-23q-134 0 -203.5 46t-69.5 150q0 78 30 161t87 142t123 59q50 0 76.5 -29t26.5 -75q0 -117 -55.5 -202.5t-100.5 -85.5q-18 0 -24 17q34 46 71.5 146.5t37.5 156.5q0 32 -15 40q-53 -20 -106 -132t-53 -202q0 -91 45 -122.5t160 -31.5
q25 127 84 265t139.5 237.5t149.5 99.5q55 0 92.5 -39.5t37.5 -93.5q0 -71 -24.5 -146.5t-72 -145.5t-126.5 -124.5t-177 -76.5q-17 -74 -17 -124q0 -52 20 -65q32 1 69.5 54t65.5 126q30 5 45 5q38 0 38 -22q0 -41 -107 -310q-30 -75 -78 -122.5t-90 -47.5zM669 1049
q5 4 12 4q17 0 16 -18q0 -42 7 -60q30 -4 45 -4q91 0 121 79q2 1 6 1q15 0 15 -22q0 -46 -43 -80t-104 -34q-84 0 -84 69q0 25 9 65z" />
    <glyph glyph-name="gbreve" unicode="&#x11f;" horiz-adv-x="374" 
d="M-29 -331q-64 0 -101.5 35.5t-37.5 84.5q0 116 176 152q10 3 40.5 9.5t49.5 11.5q9 24 20.5 56.5t19.5 54t12 31.5l31 82q-46 -92 -80.5 -139.5t-67.5 -47.5q-28 0 -54 25t-26 58q0 76 52 203q88 225 170 225q29 0 53.5 -23.5t28.5 -63.5q7 16 18 45t12 32q37 1 55 -6.5
t18 -32.5q0 -11 -8 -37.5t-26.5 -80t-27.5 -79.5q-38 -110 -89 -245q142 155 254 430q21 4 21 -12q0 -11 -12.5 -51.5t-39 -101.5t-60 -122t-83 -116t-100.5 -80q-16 -41 -50 -127q-30 -75 -78 -122.5t-90 -47.5zM234 394q1 24 -8.5 39t-23.5 15q-16 0 -40 -43.5t-73 -164.5
q-25 -63 -40 -118t-11 -74q27 13 71 75t71 125q4 10 17.5 38t19 42t11.5 33.5t6 32.5zM-5 -280q22 23 90 205q-97 -36 -122 -54q-40 -28 -40 -71q0 -32 19.5 -55.5t52.5 -24.5zM167 698q5 4 12 4q17 0 16 -18q0 -42 7 -60q30 -4 45 -4q91 0 121 79q2 1 6 1q15 0 15 -22
q0 -46 -43 -80t-104 -34q-84 0 -84 69q0 25 9 65z" />
    <glyph glyph-name="Gdotaccent" unicode="&#x120;" horiz-adv-x="723" 
d="M702 793q-46 -13 -103 -102.5t-105 -205.5t-77 -228q73 27 133.5 88.5t96 132.5t54.5 138t19 117q0 49 -18 60zM352 -294q-70 0 -121.5 35.5t-51.5 87.5q0 49 37 73t79 24q25 0 35 -6t10 -28q-69 -16 -69 -62q0 -41 55 -79q44 30 71.5 82t99.5 231q-52 -90 -103 -90
q-48 0 -76 40t-28 107q0 37 6 77h-23q-134 0 -203.5 46t-69.5 150q0 78 30 161t87 142t123 59q50 0 76.5 -29t26.5 -75q0 -117 -55.5 -202.5t-100.5 -85.5q-18 0 -24 17q34 46 71.5 146.5t37.5 156.5q0 32 -15 40q-53 -20 -106 -132t-53 -202q0 -91 45 -122.5t160 -31.5
q25 127 84 265t139.5 237.5t149.5 99.5q55 0 92.5 -39.5t37.5 -93.5q0 -71 -24.5 -146.5t-72 -145.5t-126.5 -124.5t-177 -76.5q-17 -74 -17 -124q0 -52 20 -65q32 1 69.5 54t65.5 126q30 5 45 5q38 0 38 -22q0 -41 -107 -310q-30 -75 -78 -122.5t-90 -47.5zM712 983
q0 20 19 42.5t40 22.5q22 0 37 -11.5t15 -29.5q0 -24 -20 -46.5t-46 -22.5q-19 0 -32 13.5t-13 31.5z" />
    <glyph glyph-name="gdotaccent" unicode="&#x121;" horiz-adv-x="374" 
d="M-29 -331q-64 0 -101.5 35.5t-37.5 84.5q0 116 176 152q10 3 40.5 9.5t49.5 11.5q9 24 20.5 56.5t19.5 54t12 31.5l31 82q-46 -92 -80.5 -139.5t-67.5 -47.5q-28 0 -54 25t-26 58q0 76 52 203q88 225 170 225q29 0 53.5 -23.5t28.5 -63.5q7 16 18 45t12 32q37 1 55 -6.5
t18 -32.5q0 -11 -8 -37.5t-26.5 -80t-27.5 -79.5q-38 -110 -89 -245q142 155 254 430q21 4 21 -12q0 -11 -12.5 -51.5t-39 -101.5t-60 -122t-83 -116t-100.5 -80q-16 -41 -50 -127q-30 -75 -78 -122.5t-90 -47.5zM234 394q1 24 -8.5 39t-23.5 15q-16 0 -40 -43.5t-73 -164.5
q-25 -63 -40 -118t-11 -74q27 13 71 75t71 125q4 10 17.5 38t19 42t11.5 33.5t6 32.5zM-5 -280q22 23 90 205q-97 -36 -122 -54q-40 -28 -40 -71q0 -32 19.5 -55.5t52.5 -24.5zM210 632q0 20 19 42.5t40 22.5q22 0 37 -11.5t15 -29.5q0 -24 -20 -46.5t-46 -22.5
q-19 0 -32 13.5t-13 31.5z" />
    <glyph glyph-name="Gcommaaccent" unicode="&#x122;" horiz-adv-x="723" 
d="M702 793q-46 -13 -103 -102.5t-105 -205.5t-77 -228q73 27 133.5 88.5t96 132.5t54.5 138t19 117q0 49 -18 60zM352 -294q-70 0 -121.5 35.5t-51.5 87.5q0 49 37 73t79 24q25 0 35 -6t10 -28q-69 -16 -69 -62q0 -41 55 -79q44 30 71.5 82t99.5 231q-52 -90 -103 -90
q-48 0 -76 40t-28 107q0 37 6 77h-23q-134 0 -203.5 46t-69.5 150q0 78 30 161t87 142t123 59q50 0 76.5 -29t26.5 -75q0 -117 -55.5 -202.5t-100.5 -85.5q-18 0 -24 17q34 46 71.5 146.5t37.5 156.5q0 32 -15 40q-53 -20 -106 -132t-53 -202q0 -91 45 -122.5t160 -31.5
q25 127 84 265t139.5 237.5t149.5 99.5q55 0 92.5 -39.5t37.5 -93.5q0 -71 -24.5 -146.5t-72 -145.5t-126.5 -124.5t-177 -76.5q-17 -74 -17 -124q0 -52 20 -65q32 1 69.5 54t65.5 126q30 5 45 5q38 0 38 -22q0 -41 -107 -310q-30 -75 -78 -122.5t-90 -47.5zM277 -343
q13 11 35 11q18 0 29.5 -11.5t11.5 -33.5q0 -46 -45 -100t-75 -54q-14 0 -17 13q22 19 45.5 67.5t15.5 107.5z" />
    <glyph glyph-name="gcommaaccent" unicode="&#x123;" horiz-adv-x="374" 
d="M-29 -331q-64 0 -101.5 35.5t-37.5 84.5q0 116 176 152q10 3 40.5 9.5t49.5 11.5q9 24 20.5 56.5t19.5 54t12 31.5l31 82q-46 -92 -80.5 -139.5t-67.5 -47.5q-28 0 -54 25t-26 58q0 76 52 203q88 225 170 225q29 0 53.5 -23.5t28.5 -63.5q7 16 18 45t12 32q37 1 55 -6.5
t18 -32.5q0 -11 -8 -37.5t-26.5 -80t-27.5 -79.5q-38 -110 -89 -245q142 155 254 430q21 4 21 -12q0 -11 -12.5 -51.5t-39 -101.5t-60 -122t-83 -116t-100.5 -80q-16 -41 -50 -127q-30 -75 -78 -122.5t-90 -47.5zM234 394q1 24 -8.5 39t-23.5 15q-16 0 -40 -43.5t-73 -164.5
q-25 -63 -40 -118t-11 -74q27 13 71 75t71 125q4 10 17.5 38t19 42t11.5 33.5t6 32.5zM-5 -280q22 23 90 205q-97 -36 -122 -54q-40 -28 -40 -71q0 -32 19.5 -55.5t52.5 -24.5zM260 558q-13 -11 -35 -11q-18 0 -29.5 11.5t-11.5 33.5q0 46 45 100t75 54q14 0 17 -13
q-22 -19 -45.5 -67.5t-15.5 -107.5z" />
    <glyph glyph-name="Hcircumflex" unicode="&#x124;" horiz-adv-x="763" 
d="M484 -171q-53 0 -53 32q0 95 -18 192q-22 -4 -70 -8q-43 -114 -78 -212q-11 -4 -25 -4q-42 0 -42 29q0 40 49 190q-81 12 -124 56t-43 104q0 64 40.5 108t115.5 44q59 0 107 -46q5 13 19 49t22 55q98 247 141 332q-129 -117 -186 -158q-97 -68 -159 -68q-49 0 -74 32.5
t-25 73.5q0 26 10 43.5t27 17.5q13 -31 30.5 -46.5t52.5 -15.5q40 0 98.5 25t103 53t93 61t56.5 38q24 -3 45.5 -19.5t21.5 -33.5q0 -3 -3 -10t-8 -19t-8 -20q-14 -36 -82 -209t-110 -281q25 -57 38 -121q32 6 63 15l6 18q69 207 217 576q27 67 64 100t92 33q35 0 54 -11.5
t19 -26.5q0 -8 -6 -14q-20 10 -44 10q-42 0 -70 -68q-73 -172 -216 -567q49 30 73 64q18 -4 18 -19q0 -47 -109 -96q-88 -244 -100 -276q-8 -2 -23 -2zM179 207q0 -42 21 -75.5t59 -45.5q25 72 53 147q2 6 6.5 17.5t6.5 17.5q-42 50 -98 53q-48 -47 -48 -114zM357 81
q18 1 49 5q-11 44 -20 70q-20 -50 -29 -75zM463 -41q13 49 33 111q-14 -4 -44 -10q10 -54 11 -101zM820 891q-21 0 -41 22.5t-34 62.5q-45 -36 -89.5 -58t-67.5 -22q-10 0 -11 10q26 14 52.5 32.5t49 38t37 34t31 32t18.5 19.5q11 0 15 -4t5 -13q5 -38 9 -56.5t14.5 -45
t27.5 -42.5q-6 -10 -16 -10z" />
    <glyph glyph-name="hcircumflex" unicode="&#x125;" 
d="M207 -10q-27 0 -49 24t-22 57q0 56 76 203q8 15 26.5 49.5t26 49.5t18.5 38t14.5 36.5t2.5 22.5q-34 -1 -138 -179t-156 -297q-23 1 -35.5 3t-23.5 10.5t-11 23.5q0 42 61 202q18 48 72 185q111 276 161 382q-29 -7 -52 -7q-35 0 -37 19q0 7 5 19q26 -1 60.5 2.5
t44.5 3.5q25 0 44 -20t19 -41q0 -9 -8.5 -30.5t-26.5 -61.5t-26 -58q-94 -220 -153 -384q68 131 116 198.5t90 67.5q31 0 57.5 -16t26.5 -47q0 -44 -80 -202q-85 -170 -83 -207l1 2q37 10 124.5 140.5t144.5 270.5q21 2 21 -12q0 -15 -28 -84t-70.5 -151.5t-101.5 -147
t-111 -64.5zM408 857q-21 0 -41 22.5t-34 62.5q-45 -36 -89.5 -58t-67.5 -22q-10 0 -11 10q26 14 52.5 32.5t49 38t37 34t31 32t18.5 19.5q11 0 15 -4t5 -13q5 -38 9 -56.5t14.5 -45t27.5 -42.5q-6 -10 -16 -10z" />
    <glyph glyph-name="Hbar" unicode="&#x126;" horiz-adv-x="763" 
d="M446 93q32 6 63 15q41 123 95 267q-89 0 -133 1q-9 -24 -19.5 -51t-23.5 -60t-20 -51q25 -57 38 -121zM484 -171q-53 0 -53 32q0 95 -18 192q-22 -4 -70 -8q-43 -114 -78 -212q-11 -4 -25 -4q-42 0 -42 29q0 40 49 190q-81 12 -124 56t-43 104q0 64 40.5 108t115.5 44
q59 0 107 -46q4 11 12.5 33t13.5 33q-56 2 -75 4q-4 29 32 33q16 1 59 3q102 254 140 330q-129 -117 -186 -158q-97 -68 -159 -68q-49 0 -74 32.5t-25 73.5q0 26 10 43.5t27 17.5q13 -31 30.5 -46.5t52.5 -15.5q40 0 98.5 25t103 53t93 61t56.5 38q24 -3 45.5 -19.5
t21.5 -33.5q0 -3 -3 -10t-8 -19t-8 -20q-14 -37 -54.5 -139t-56.5 -144q46 0 132 -2q29 77 111 283q27 67 64 100t92 33q35 0 54 -11.5t19 -26.5q0 -8 -6 -14q-20 10 -44 10q-42 0 -70 -68q-58 -139 -121 -308q35 -2 56 -3q11 -31 -18 -35q-11 -2 -53 -4q-23 -61 -80 -217
q49 30 73 64q18 -4 18 -19q0 -47 -109 -96q-88 -244 -100 -276q-8 -2 -23 -2zM179 207q0 -42 21 -75.5t59 -45.5q25 72 53 147q2 6 6.5 17.5t6.5 17.5q-42 50 -98 53q-48 -47 -48 -114zM357 81q18 1 49 5q-11 44 -20 70q-20 -50 -29 -75zM463 -41q13 49 33 111
q-14 -4 -44 -10q10 -54 11 -101z" />
    <glyph glyph-name="hbar" unicode="&#x127;" 
d="M518 437q0 -15 -28 -84t-70.5 -151.5t-101.5 -147t-111 -64.5q-27 0 -49 24t-22 57q0 56 76 203q8 15 26.5 49.5t26 49.5t18.5 38t14.5 36.5t2.5 22.5q-34 -1 -138 -179t-156 -297q-23 1 -35.5 3t-23.5 10.5t-11 23.5q0 42 61 202q18 48 72 185q8 19 38 93.5t45 110.5
h-62q-1 3 -1 10q0 27 34 27q18 0 44 -2q46 107 63 143q-29 -7 -52 -7q-35 0 -37 19q0 7 5 19q26 -1 60.5 2.5t44.5 3.5q25 0 44 -20t19 -41q0 -14 -49 -122q56 4 88 5q1 -4 1 -13q0 -30 -40 -30q-22 0 -64 2q-83 -193 -150 -376q68 131 116 198.5t90 67.5q31 0 57.5 -16
t26.5 -47q0 -44 -80 -202q-85 -170 -83 -207l1 2q37 10 124.5 140.5t144.5 270.5q21 2 21 -12z" />
    <glyph glyph-name="Itilde" unicode="&#x128;" horiz-adv-x="552" 
d="M311 -182q-35 0 -95 18q-45 13 -63 13q-37 0 -69 -28q-23 3 -23 30q0 29 27 56.5t72 27.5q35 0 91 -29q-12 19 -12 41q0 59 86 286q76 202 224 491q-43 6 -136 36t-150 37q-59 -22 -110.5 -157.5t-51.5 -247.5q0 -95 42 -109q51 41 80.5 162.5t28.5 202.5q0 15 -1 20
q6 2 19 2q31 1 50.5 -26.5t19.5 -88.5q0 -66 -23 -135.5t-69.5 -120.5t-104.5 -51q-67 0 -101 51.5t-33 133.5q1 89 37 180t109 156.5t163 65.5q44 0 167.5 -8.5t156.5 -8.5q75 0 103 17q11 -9 11 -27q0 -32 -35 -58.5t-104 -29.5q-189 -468 -313 -838q14 -4 21 -4
q46 0 70 36q17 -5 17 -19q0 -26 -27 -51.5t-74 -25.5zM562 935q-9 -1 -14 5t-5 16q0 28 27 57.5t67 29.5q19 0 70 -34q2 -2 11.5 -8.5t13 -8.5t11 -6t13.5 -5.5t12 -1.5q18 9 36 42q9 1 13 -4t4 -16q0 -28 -26.5 -53t-54.5 -25q-21 0 -68 33q-50 34 -73 34q-22 -20 -37 -55z
" />
    <glyph glyph-name="itilde" unicode="&#x129;" horiz-adv-x="198" 
d="M12 -10q-29 0 -52.5 18t-23.5 43q0 42 36.5 133.5t75 178.5t41.5 113q-26 -9 -46 -9q-23 0 -23 15q0 8 3 15q16 -1 45 2t40 3q64 0 64 -54q0 -38 -69 -199.5t-77 -206.5q43 24 124.5 149.5t136.5 257.5q21 4 21 -12q0 -18 -37 -103.5t-69 -144.5q-50 -88 -102.5 -143.5
t-87.5 -55.5zM93 587q-9 -1 -14 5t-5 16q0 26 25.5 56.5t53.5 30.5q24 0 46 -30t30 -34q18 8 38 57q9 1 13 -4t4 -16q0 -33 -22.5 -63t-47.5 -30q-18 0 -33 14.5t-27.5 32t-23.5 20.5q-22 -20 -37 -55z" />
    <glyph glyph-name="Imacron" unicode="&#x12a;" horiz-adv-x="552" 
d="M311 -182q-35 0 -95 18q-45 13 -63 13q-37 0 -69 -28q-23 3 -23 30q0 29 27 56.5t72 27.5q35 0 91 -29q-12 19 -12 41q0 59 86 286q76 202 224 491q-43 6 -136 36t-150 37q-59 -22 -110.5 -157.5t-51.5 -247.5q0 -95 42 -109q51 41 80.5 162.5t28.5 202.5q0 15 -1 20
q6 2 19 2q31 1 50.5 -26.5t19.5 -88.5q0 -66 -23 -135.5t-69.5 -120.5t-104.5 -51q-67 0 -101 51.5t-33 133.5q1 89 37 180t109 156.5t163 65.5q44 0 167.5 -8.5t156.5 -8.5q75 0 103 17q11 -9 11 -27q0 -32 -35 -58.5t-104 -29.5q-189 -468 -313 -838q14 -4 21 -4
q46 0 70 36q17 -5 17 -19q0 -26 -27 -51.5t-74 -25.5zM795 1016q-3 -38 -12.5 -50.5t-48.5 -12.5q-31 0 -191 5q7 37 16.5 47.5t43.5 10.5q19 0 59.5 -0.5t73.5 -0.5t59 1z" />
    <glyph glyph-name="imacron" unicode="&#x12b;" horiz-adv-x="198" 
d="M12 -10q-29 0 -52.5 18t-23.5 43q0 42 36.5 133.5t75 178.5t41.5 113q-26 -9 -46 -9q-23 0 -23 15q0 8 3 15q16 -1 45 2t40 3q64 0 64 -54q0 -38 -69 -199.5t-77 -206.5q43 24 124.5 149.5t136.5 257.5q21 4 21 -12q0 -18 -37 -103.5t-69 -144.5q-50 -88 -102.5 -143.5
t-87.5 -55.5zM251 668q-3 -38 -12.5 -50.5t-48.5 -12.5q-19 0 -61.5 2.5t-59.5 2.5q7 37 16.5 47.5t43.5 10.5h37.5h47h37.5z" />
    <glyph glyph-name="Ibreve" unicode="&#x12c;" horiz-adv-x="552" 
d="M311 -182q-35 0 -95 18q-45 13 -63 13q-37 0 -69 -28q-23 3 -23 30q0 29 27 56.5t72 27.5q35 0 91 -29q-12 19 -12 41q0 59 86 286q76 202 224 491q-43 6 -136 36t-150 37q-59 -22 -110.5 -157.5t-51.5 -247.5q0 -95 42 -109q51 41 80.5 162.5t28.5 202.5q0 15 -1 20
q6 2 19 2q31 1 50.5 -26.5t19.5 -88.5q0 -66 -23 -135.5t-69.5 -120.5t-104.5 -51q-67 0 -101 51.5t-33 133.5q1 89 37 180t109 156.5t163 65.5q44 0 167.5 -8.5t156.5 -8.5q75 0 103 17q11 -9 11 -27q0 -32 -35 -58.5t-104 -29.5q-189 -468 -313 -838q14 -4 21 -4
q46 0 70 36q17 -5 17 -19q0 -26 -27 -51.5t-74 -25.5zM573 1046q5 4 12 4q17 0 16 -18q0 -42 7 -60q30 -4 45 -4q91 0 121 79q2 1 6 1q15 0 15 -22q0 -46 -43 -80t-104 -34q-84 0 -84 69q0 25 9 65z" />
    <glyph glyph-name="ibreve" unicode="&#x12d;" horiz-adv-x="198" 
d="M12 -10q-29 0 -52.5 18t-23.5 43q0 42 36.5 133.5t75 178.5t41.5 113q-26 -9 -46 -9q-23 0 -23 15q0 8 3 15q16 -1 45 2t40 3q64 0 64 -54q0 -38 -69 -199.5t-77 -206.5q43 24 124.5 149.5t136.5 257.5q21 4 21 -12q0 -18 -37 -103.5t-69 -144.5q-50 -88 -102.5 -143.5
t-87.5 -55.5zM94 698q5 4 13 4q15 0 15 -18q0 -40 9 -64q16 -2 25 -2q34 0 58.5 16.5t42.5 64.5q2 1 6 1q15 0 15 -20q0 -43 -33.5 -79.5t-74.5 -36.5q-47 0 -66 18.5t-19 53.5q0 24 9 62z" />
    <glyph glyph-name="Iogonek" unicode="&#x12e;" horiz-adv-x="552" 
d="M228 -398q-40 0 -63.5 16.5t-23.5 46.5q0 26 13 49t38.5 43t46.5 32.5t53 29.5q-29 3 -76 17q-45 13 -63 13q-37 0 -69 -28q-23 3 -23 30q0 29 27 56.5t72 27.5q35 0 91 -29q-12 19 -12 41q0 59 86 286q76 202 224 491q-43 6 -136 36t-150 37q-59 -22 -110.5 -157.5
t-51.5 -247.5q0 -95 42 -109q51 41 80.5 162.5t28.5 202.5q0 15 -1 20q6 2 19 2q31 1 50.5 -26.5t19.5 -88.5q0 -66 -23 -135.5t-69.5 -120.5t-104.5 -51q-67 0 -101 51.5t-33 133.5q1 89 37 180t109 156.5t163 65.5q44 0 167.5 -8.5t156.5 -8.5q75 0 103 17q11 -9 11 -27
q0 -32 -35 -58.5t-104 -29.5q-189 -468 -313 -838q14 -4 21 -4q46 0 70 36q17 -5 17 -19q0 -15 -11 -33t-32 -30q-58 -35 -112.5 -83.5t-75.5 -87.5q24 -4 35 -4q47 0 69 40q24 -10 24 -36q0 -22 -21 -40.5t-60 -18.5z" />
    <glyph glyph-name="iogonek" unicode="&#x12f;" horiz-adv-x="198" 
d="M187 716q24 -1 34.5 -1.5t25 -3.5t20 -10.5t5.5 -19.5q0 -37 -91 -107q-34 -26 -40 -32q-15 2 -15 17q0 10 11 30q30 56 50 127zM-91 -227q-40 0 -63.5 16.5t-23.5 46.5q0 17 5 32t16.5 29t21 23.5t29 22.5t28.5 18.5t32.5 18t28.5 15.5q-47 18 -47 56q0 42 36.5 133.5
t75 178.5t41.5 113q-26 -9 -46 -9q-23 0 -23 15q0 8 3 15q16 -1 45 2t40 3q64 0 64 -54q0 -38 -69 -199.5t-77 -206.5q43 24 124.5 149.5t136.5 257.5q21 4 21 -13q0 -21 -36 -103t-70 -144q-75 -134 -149 -184q-157 -108 -191 -173q24 -4 35 -4q47 0 69 40q24 -10 24 -36
q0 -22 -21 -40.5t-60 -18.5z" />
    <glyph glyph-name="Idotaccent" unicode="&#x130;" horiz-adv-x="552" 
d="M311 -182q-35 0 -95 18q-45 13 -63 13q-37 0 -69 -28q-23 3 -23 30q0 29 27 56.5t72 27.5q35 0 91 -29q-12 19 -12 41q0 59 86 286q76 202 224 491q-43 6 -136 36t-150 37q-59 -22 -110.5 -157.5t-51.5 -247.5q0 -95 42 -109q51 41 80.5 162.5t28.5 202.5q0 15 -1 20
q6 2 19 2q31 1 50.5 -26.5t19.5 -88.5q0 -66 -23 -135.5t-69.5 -120.5t-104.5 -51q-67 0 -101 51.5t-33 133.5q1 89 37 180t109 156.5t163 65.5q44 0 167.5 -8.5t156.5 -8.5q75 0 103 17q11 -9 11 -27q0 -32 -35 -58.5t-104 -29.5q-189 -468 -313 -838q14 -4 21 -4
q46 0 70 36q17 -5 17 -19q0 -26 -27 -51.5t-74 -25.5zM616 980q0 20 19 42.5t40 22.5q22 0 37 -11.5t15 -29.5q0 -24 -20 -46.5t-46 -22.5q-19 0 -32 13.5t-13 31.5z" />
    <glyph glyph-name="dotlessi" unicode="&#x131;" horiz-adv-x="198" 
d="M12 -10q-29 0 -52.5 18t-23.5 43q0 42 36.5 133.5t75 178.5t41.5 113q-26 -9 -46 -9q-23 0 -23 15q0 8 3 15q16 -1 45 2t40 3q64 0 64 -54q0 -38 -69 -199.5t-77 -206.5q43 24 124.5 149.5t136.5 257.5q21 4 21 -12q0 -18 -37 -103.5t-69 -144.5q-50 -88 -102.5 -143.5
t-87.5 -55.5z" />
    <glyph glyph-name="IJ" unicode="&#x132;" horiz-adv-x="632" 
d="M212 -213q-69 0 -109 35.5t-40 85.5q0 55 82 103t233 81q17 43 61 156.5t73 186.5t67.5 162t67.5 141q-41 8 -173 57q-26 -68 -109.5 -300.5t-104.5 -290.5q36 -9 53 -9q36 0 46 12q13 -5 13 -19q0 -18 -19 -35t-57 -17q-39 0 -117 22t-98 22q-37 0 -64 -33q-18 3 -18 23
q0 26 25.5 48.5t69.5 22.5q32 0 116 -23q-13 21 -13 39q0 56 85 276q38 101 131 284q-115 39 -162 37q-68 -124 -68 -241q0 -58 20 -89q-19 -21 -44 -21q-28 0 -46.5 29t-18.5 83q0 71 29 140t86 116t127 47q52 0 102.5 -16t84.5 -36.5t77.5 -44.5t75.5 -34q57 84 94 84
q18 0 36.5 -20.5t18.5 -43.5q0 -43 -120 -69q-33 -86 -104 -296t-99 -288q33 29 71 70q22 -3 22 -25q0 -16 -9 -30t-27.5 -25.5t-34 -19t-39.5 -17.5q-28 -74 -46 -114q-50 -111 -98.5 -158.5t-128.5 -47.5zM154 -99q0 -23 19 -46.5t50 -28.5q37 22 65 68t64 132q1 2 11 27
q-130 -57 -165 -83q-44 -33 -44 -69z" />
    <glyph glyph-name="ij" unicode="&#x133;" horiz-adv-x="401" 
d="M384 719q80 -2 80 -49q0 -18 -18 -39.5t-34 -33t-45 -31.5q-26 -18 -31 -24q-15 0 -15 15q0 3 2 7.5t6 12t7 14.5q28 54 48 128zM187 716q24 -1 34.5 -1.5t25 -3.5t20 -10.5t5.5 -19.5q0 -37 -91 -107q-34 -26 -40 -32q-15 2 -15 17q0 10 11 30q30 56 50 127zM8 -331
q-57 0 -90.5 34.5t-33.5 83.5q0 54 34 96t113 58q10 2 35.5 7.5t40.5 9.5q70 188 96 263q-50 -97 -101.5 -164t-89.5 -67q-29 0 -52.5 18t-23.5 43q0 42 36.5 133.5t75 178.5t41.5 113q-26 -9 -46 -9q-23 0 -23 15q0 8 3 15q16 -1 45 2t40 3q64 0 64 -54q0 -38 -69.5 -201.5
t-76.5 -208.5q66 38 145 175t117 262q-32 -9 -47 -9q-26 0 -26 17q0 7 3 14q16 -1 45 2t40 3q64 0 64 -54q0 -65 -144 -443q148 155 267 444q21 4 21 -13q0 -16 -22.5 -78t-60 -141.5t-98 -154t-124.5 -101.5q-9 -21 -19.5 -47.5t-17 -42.5t-9.5 -23q-35 -80 -75.5 -129.5
t-76.5 -49.5zM-16 -293q13 6 25 20.5t23 37t17.5 38.5t16.5 44.5t13 36.5q3 7 7.5 20t6.5 18q-35 -12 -53 -20t-38 -23.5t-28 -40t-8 -61.5q0 -47 18 -70z" />
    <glyph glyph-name="Jcircumflex" unicode="&#x134;" horiz-adv-x="575" 
d="M149 -214q-69 0 -109 35.5t-40 85.5q0 74 71.5 118.5t247.5 73.5q13 32 56 144.5t68.5 176t62 150t64.5 140.5q-193 -90 -309 -206q-56 -56 -93 -137t-37 -139q0 -53 30 -69q54 38 100 156.5t48 183.5q7 3 17 3q47 0 47 -70q0 -59 -25.5 -129.5t-74.5 -124.5t-103 -54
q-62 0 -91.5 42t-29.5 108q0 74 30 139.5t84.5 116.5t121 91t148.5 72q25 10 160 59q27 47 58.5 82.5t55.5 35.5q18 0 36.5 -20.5t18.5 -43.5q0 -46 -120 -70q-32 -85 -102.5 -292t-98.5 -284q33 29 70 69q22 -3 22 -25t-22.5 -42.5t-39.5 -28.5t-47 -20q-21 -59 -48 -121
q-50 -111 -98.5 -158.5t-128.5 -47.5zM91 -82h1q0 -35 18.5 -61.5t50.5 -31.5q29 17 58.5 63.5t44.5 79t39 91.5q-16 -6 -48.5 -19t-46.5 -18.5t-37.5 -16.5t-34 -19t-23.5 -19t-17.5 -23t-4.5 -26zM820 926q-21 0 -41 22.5t-34 62.5q-45 -36 -89.5 -58t-67.5 -22
q-10 0 -11 10q26 14 52.5 32.5t49 38t37 34t31 32t18.5 19.5q11 0 15 -4t5 -13q5 -38 9 -56.5t14.5 -45t27.5 -42.5q-6 -10 -16 -10z" />
    <glyph glyph-name="jcircumflex" unicode="&#x135;" horiz-adv-x="202" 
d="M-191 -331q-57 0 -90.5 34.5t-33.5 83.5q0 54 34 96t113 58q10 2 35.5 7.5t40.5 9.5q131 354 181 517q-32 -9 -47 -9q-26 0 -26 17q0 7 3 14q16 -1 45 2t40 3q64 0 64 -54q0 -65 -144 -443q148 155 267 444q21 4 21 -13q0 -11 -29.5 -89t-54.5 -130q-96 -197 -221 -254
q-17 -45 -46 -115q-35 -80 -75.5 -129.5t-76.5 -49.5zM-215 -293q13 6 25 20.5t23 37t17.5 38.5t16.5 44.5t13 36.5q3 7 7.5 20t6.5 18q-35 -12 -53 -20t-38 -23.5t-28 -40t-8 -61.5q0 -47 18 -70zM221 543q-30 0 -55 84q-91 -79 -123 -79q-12 0 -12 15q30 21 62.5 52.5
t61.5 64t31 34.5q11 0 15 -4t5 -13q9 -106 31 -144q-6 -10 -16 -10z" />
    <glyph glyph-name="Kcommaaccent" unicode="&#x136;" horiz-adv-x="822" 
d="M685 -125q0 -22 -29 -42t-65 -20q-35 0 -52 27t-16.5 66.5t1.5 84.5q4 42 2.5 83.5t-14.5 60.5q-21 -53 -48 -109q-103 -207 -260 -207q-101 0 -152.5 64t-51.5 160q0 78 31 150t92 120t138 48q56 0 84.5 -35.5t28.5 -91.5q0 -55 -19 -99t-48 -69t-58.5 -38t-54.5 -13
q-35 0 -35 22q59 49 99 120t40 124q0 34 -20 52q-76 -22 -125.5 -107.5t-49.5 -182.5q0 -65 26 -116t79 -73q89 47 164 197q22 48 127 319t157 365q-20 -3 -67.5 -10t-77 -12.5t-74.5 -15t-74.5 -21.5t-61 -29.5t-51.5 -42t-28 -54.5q36 -6 70 -6q110 0 160 52
q32 -16 32 -46q0 -33 -36.5 -60t-93.5 -27q-82 0 -131.5 37t-49.5 105q0 29 10 53t32.5 40.5t44 28.5t61 19.5t66 12t75.5 6.5t72.5 2.5t74.5 1.5q12 0 35.5 0.5t33.5 0.5q37 49 72 74q17 0 31.5 -11.5t14.5 -26.5q0 -32 -59 -53q-30 -76 -103.5 -285t-108.5 -299
q31 11 60 38.5t50 57.5t46 82.5t39 87t38 95.5q21 54 30.5 77.5t29 68t33 65t32.5 45.5t37.5 35t39.5 10q43 0 51 -31q-32 -18 -61 -69t-64 -138q-73 -180 -101 -234q-95 -183 -211 -212q-15 -4 -30 -5q72 -34 74 -129v-41t0.5 -41.5t2.5 -36.5t6 -25q24 5 43 24
q15 -3 15 -18zM409 -211q13 11 35 11q18 0 29.5 -11.5t11.5 -33.5q0 -46 -45 -100t-75 -54q-14 0 -17 13q22 19 45.5 67.5t15.5 107.5z" />
    <glyph glyph-name="kcommaaccent" unicode="&#x137;" horiz-adv-x="403" 
d="M276 470q-17 3 -71.5 -84.5t-114.5 -205.5q71 1 131 98.5t60 167.5q0 14 -5 24zM222 92q60 0 135.5 107t134.5 250q22 4 22 -14q0 -12 -17 -59t-49 -112.5t-71.5 -126.5t-91.5 -104t-101 -43q-60 0 -110 157q-51 -104 -66 -146q-16 -5 -45.5 -2t-29.5 23q0 49 136 396
q40 102 103.5 248.5t72.5 170.5q37 4 64 -4t18 -29q-3 -7 -89.5 -208.5t-146.5 -352.5q85 165 118 210q41 55 73 55q33 0 61.5 -25.5t28.5 -59.5q0 -74 -39 -146q-70 -127 -177 -127q-32 0 -70 15q8 -4 33.5 -24t52 -34.5t50.5 -14.5zM35 -85q13 11 35 11q18 0 29.5 -11.5
t11.5 -33.5q0 -46 -45 -100t-75 -54q-14 0 -17 13q22 19 45.5 67.5t15.5 107.5z" />
    <glyph glyph-name="Lacute" unicode="&#x139;" horiz-adv-x="743" 
d="M489 293q-22 -58 -39 -101q67 25 124 94t90.5 152t52 161.5t18.5 134.5q0 50 -15 59q-20 -8 -48.5 -57t-66 -140t-59 -147.5t-57.5 -155.5zM464 -188v1q-28 0 -57 15.5t-47 31.5t-47 47q-67 -86 -170 -86q-68 0 -105.5 35t-37.5 86t33.5 84t93.5 33q46 0 135 -47
q9 19 56 135q-113 14 -181.5 78t-68.5 170q0 78 30 161t87 142t123 59q50 0 76.5 -29t26.5 -75q0 -74 -29.5 -143.5t-66 -107t-62.5 -37.5q-16 0 -22 17q34 45 71.5 146.5t37.5 157.5q0 32 -15 39q-54 -21 -106.5 -129.5t-52.5 -204.5q0 -88 37.5 -137t129.5 -69
q160 407 221 519q74 135 140 135q55 0 92.5 -39.5t37.5 -93.5q0 -74 -26 -162t-73.5 -172.5t-124.5 -147t-168 -77.5q-60 -143 -85 -187q89 -53 150 -53q65 0 93 73q20 0 20 -29q0 -47 -38.5 -93t-107.5 -46zM93 -64q0 -29 14 -51.5t39 -28.5q53 29 96 114q-55 40 -103 48
q-46 -18 -46 -82zM703 914q119 32 226 155q26 -10 26 -30q0 -45 -89 -93.5t-145 -48.5q-18 0 -18 17z" />
    <glyph glyph-name="lacute" unicode="&#x13a;" horiz-adv-x="253" 
d="M42 -10q-31 0 -56 24t-25 57q0 93 62.5 275t153.5 334.5t158 152.5q17 0 29 -10t12 -22q0 -23 -16 -78.5t-43 -117.5q-49 -112 -111.5 -213t-114.5 -129q-56 -178 -32 -224q51 23 139 148.5t144 261.5q21 4 21 -12q0 -14 -38 -102t-68 -144q-55 -98 -106.5 -149.5
t-108.5 -51.5zM134 387q-1 -3 -11 -32t-15 -43q50 64 97 157q58 113 101.5 216t34.5 114q-26 -12 -91 -140.5t-116 -271.5zM290 886q119 32 226 155q26 -10 26 -30q0 -45 -89 -93.5t-145 -48.5q-18 0 -18 17z" />
    <glyph glyph-name="Lcommaaccent" unicode="&#x13b;" horiz-adv-x="743" 
d="M489 293q-22 -58 -39 -101q67 25 124 94t90.5 152t52 161.5t18.5 134.5q0 50 -15 59q-20 -8 -48.5 -57t-66 -140t-59 -147.5t-57.5 -155.5zM464 -188v1q-28 0 -57 15.5t-47 31.5t-47 47q-67 -86 -170 -86q-68 0 -105.5 35t-37.5 86t33.5 84t93.5 33q46 0 135 -47
q9 19 56 135q-113 14 -181.5 78t-68.5 170q0 78 30 161t87 142t123 59q50 0 76.5 -29t26.5 -75q0 -74 -29.5 -143.5t-66 -107t-62.5 -37.5q-16 0 -22 17q34 45 71.5 146.5t37.5 157.5q0 32 -15 39q-54 -21 -106.5 -129.5t-52.5 -204.5q0 -88 37.5 -137t129.5 -69
q160 407 221 519q74 135 140 135q55 0 92.5 -39.5t37.5 -93.5q0 -74 -26 -162t-73.5 -172.5t-124.5 -147t-168 -77.5q-60 -143 -85 -187q89 -53 150 -53q65 0 93 73q20 0 20 -29q0 -47 -38.5 -93t-107.5 -46zM93 -64q0 -29 14 -51.5t39 -28.5q53 29 96 114q-55 40 -103 48
q-46 -18 -46 -82zM279 -230q13 11 35 11q18 0 29.5 -11.5t11.5 -33.5q0 -46 -45 -100t-75 -54q-14 0 -17 13q22 19 45.5 67.5t15.5 107.5z" />
    <glyph glyph-name="lcommaaccent" unicode="&#x13c;" horiz-adv-x="253" 
d="M42 -10q-31 0 -56 24t-25 57q0 93 62.5 275t153.5 334.5t158 152.5q17 0 29 -10t12 -22q0 -23 -16 -78.5t-43 -117.5q-49 -112 -111.5 -213t-114.5 -129q-56 -178 -32 -224q51 23 139 148.5t144 261.5q21 4 21 -12q0 -14 -38 -102t-68 -144q-55 -98 -106.5 -149.5
t-108.5 -51.5zM134 387q-1 -3 -11 -32t-15 -43q50 64 97 157q58 113 101.5 216t34.5 114q-26 -12 -91 -140.5t-116 -271.5zM-41 -85q13 11 35 11q18 0 29.5 -11.5t11.5 -33.5q0 -46 -45 -100t-75 -54q-14 0 -17 13q22 19 45.5 67.5t15.5 107.5z" />
    <glyph glyph-name="Lcaron" unicode="&#x13d;" horiz-adv-x="743" 
d="M489 293q-22 -58 -39 -101q67 25 124 94t90.5 152t52 161.5t18.5 134.5q0 50 -15 59q-20 -8 -48.5 -57t-66 -140t-59 -147.5t-57.5 -155.5zM464 -188v1q-28 0 -57 15.5t-47 31.5t-47 47q-67 -86 -170 -86q-68 0 -105.5 35t-37.5 86t33.5 84t93.5 33q46 0 135 -47
q9 19 56 135q-113 14 -181.5 78t-68.5 170q0 78 30 161t87 142t123 59q50 0 76.5 -29t26.5 -75q0 -74 -29.5 -143.5t-66 -107t-62.5 -37.5q-16 0 -22 17q34 45 71.5 146.5t37.5 157.5q0 32 -15 39q-54 -21 -106.5 -129.5t-52.5 -204.5q0 -88 37.5 -137t129.5 -69
q160 407 221 519q74 135 140 135q55 0 92.5 -39.5t37.5 -93.5q0 -74 -26 -162t-73.5 -172.5t-124.5 -147t-168 -77.5q-60 -143 -85 -187q89 -53 150 -53q65 0 93 73q20 0 20 -29q0 -47 -38.5 -93t-107.5 -46zM93 -64q0 -29 14 -51.5t39 -28.5q53 29 96 114q-55 40 -103 48
q-46 -18 -46 -82zM703 1069q21 0 41 -22.5t34 -62.5q45 36 89.5 58t67.5 22q10 0 11 -10q-26 -14 -52.5 -32.5t-49 -38t-37 -34t-31 -32t-18.5 -19.5q-11 0 -15 4t-5 13q-5 38 -9 56.5t-14.5 45t-27.5 42.5q6 10 16 10z" />
    <glyph glyph-name="lcaron" unicode="&#x13e;" horiz-adv-x="276" 
d="M42 -10q-31 0 -56 24t-25 57q0 93 62.5 275t153.5 334.5t158 152.5q18 0 32.5 -16t14.5 -34q0 -67 -44.5 -185t-115.5 -222t-133 -121q-38 -121 -38 -176q0 -27 9 -42q54 26 106 120q14 2 14 -11q0 -36 -48 -96t-90 -60zM134 387q-15 -40 -33 -94q39 24 102.5 145.5
t107.5 234.5t38 126q-31 -12 -97 -138.5t-118 -273.5zM402 771q21 15 45 15q16 0 26 -13.5t10 -38.5q0 -62 -48.5 -131.5t-82.5 -69.5q-11 0 -16 10q78 93 78 168q0 32 -12 60z" />
    <glyph glyph-name="Ldot" unicode="&#x13f;" horiz-adv-x="743" 
d="M489 293q-6 -17 -18 -49q59 11 111 64.5t84 125t50.5 146t18.5 135.5q0 58 -15 78q-20 -8 -48.5 -57t-66 -140t-59 -147.5t-57.5 -155.5zM464 -188q-28 0 -57 15.5t-47 31.5t-47 47q-67 -86 -170 -86q-68 0 -105.5 35t-37.5 86t33.5 84t93.5 33q46 0 135 -47q10 23 21 48
q24 58 63 159q-258 47 -258 261q0 111 63 194t157 83q50 0 76.5 -29t26.5 -75q0 -110 -56.5 -199t-101.5 -89q-16 0 -22 17q33 45 71 146t38 157q0 33 -15 40q-64 -29 -106.5 -110.5t-42.5 -157.5q0 -87 42 -140t140 -68q136 345 196 455q74 135 140 135q55 0 92.5 -39.5
t37.5 -93.5q0 -62 -13 -127.5t-42.5 -130t-71 -116t-104 -85t-136.5 -37.5q-43 -109 -78 -185q-18 -38 -30 -61l17 -8.5t17.5 -9t15.5 -8t16 -7.5t14.5 -6t14.5 -6t13.5 -4.5t14 -3.5t12.5 -2t13 -1q65 0 93 73q20 3 20 -29q0 -47 -38.5 -93t-107.5 -46zM93 -64
q0 -30 14 -52.5t39 -28.5q52 27 96 114q-55 40 -103 48q-22 -8 -34 -30.5t-12 -50.5zM496 94q0 20 19 42.5t40 22.5q22 0 37 -11.5t15 -29.5q0 -24 -20 -46.5t-46 -22.5q-19 0 -32 13.5t-13 31.5z" />
    <glyph glyph-name="ldot" unicode="&#x140;" horiz-adv-x="283" 
d="M72 -10q-42 0 -76.5 24t-34.5 57q0 93 62.5 275t153.5 334.5t158 152.5q17 0 29 -10t12 -22q0 -23 -16 -78.5t-43 -117.5q-49 -112 -110 -211t-112 -129q-60 -207 -14 -229q47 13 140 142t151 271q11 2 17.5 -3t2.5 -17q-41 -123 -105 -238q-55 -98 -106.5 -149.5
t-108.5 -51.5zM134 387q-16 -48 -24 -71q48 60 95 153q58 113 101.5 216t34.5 114q-27 -13 -92.5 -141t-114.5 -271zM182 304v1q0 17 17 37t36 20q20 0 33 -10t13 -26q0 -21 -18 -41.5t-41 -20.5q-17 0 -28.5 12t-11.5 28z" />
    <glyph glyph-name="Lslash" unicode="&#x141;" horiz-adv-x="743" 
d="M489 293q-3 -8 -9 -24.5t-9 -24.5q59 12 111 67t84.5 127.5t51.5 147t19 131.5q0 54 -17 76q-20 -8 -48.5 -57t-66 -140t-59 -147.5t-57.5 -155.5zM464 -188q-28 0 -57 15.5t-47 31.5t-47 47q-67 -86 -170 -86q-68 0 -105.5 35t-37.5 86t33.5 84t93.5 33q46 0 135 -47
q10 23 21 48q2 4 4 9t4.5 11.5t3.5 9.5q-44 -3 -87 -8q-2 8 -2 13q0 24 31 27q29 3 72 3q5 13 11 28.5t14 35t12 30.5q-258 47 -258 261q0 111 63 194t157 83q50 0 76.5 -29t26.5 -75q0 -75 -29 -144t-65.5 -106.5t-63.5 -37.5q-16 0 -22 17q34 46 71.5 146t37.5 157
q0 32 -15 40q-64 -29 -106.5 -110.5t-42.5 -157.5q0 -87 42 -140t140 -68q136 345 196 455q74 135 140 135q55 0 92.5 -39.5t37.5 -93.5q0 -62 -13 -127.5t-42.5 -130t-71 -116t-104 -85t-136.5 -37.5q-4 -11 -14.5 -37.5t-16.5 -39.5q27 4 124 23q5 -12 5 -21
q0 -29 -39 -33q-54 -6 -106 -7q-7 -15 -17.5 -39t-13.5 -31q-17 -37 -30 -62q105 -55 148 -55q65 0 93 73q20 3 20 -30q0 -45 -38.5 -91.5t-107.5 -46.5zM93 -63q0 -29 14 -52.5t39 -29.5q52 27 96 114q-55 40 -103 48q-22 -8 -34 -30t-12 -50z" />
    <glyph glyph-name="lslash" unicode="&#x142;" horiz-adv-x="253" 
d="M42 -10q-31 0 -56 24t-25 57q0 54 25 148q-40 -8 -42 -8q-3 7 -3 15q0 23 29 27q8 2 26 4q37 127 93.5 256t125 224.5t120.5 95.5q17 0 29 -10t12 -22q0 -23 -16 -78.5t-43 -117.5q-47 -106 -106 -201.5t-115 -132.5q66 14 100 23q4 -10 4 -18q0 -25 -34 -31
q-42 -7 -84 -11q-45 -152 -23 -195q51 23 139 148.5t144 261.5q21 4 21 -12q0 -14 -38 -102t-68 -144q-55 -98 -106.5 -149.5t-108.5 -51.5zM341 799q-26 -12 -91 -140.5t-116 -271.5q-1 -3 -11 -32t-15 -43q50 64 97 157q58 113 101.5 216t34.5 114z" />
    <glyph glyph-name="Nacute" unicode="&#x143;" horiz-adv-x="876" 
d="M692 -188q-15 -7 -31 -7q-39 0 -51 33q-28 77 -26 225q0 235 62 658q-15 -49 -36 -138.5t-40 -166.5t-45 -169t-57 -164t-69.5 -134t-89 -96t-109.5 -34q-99 0 -149.5 67t-50.5 169q0 84 31.5 164t94 135t140.5 55q52 0 76.5 -35t24.5 -90q-1 -74 -40 -139t-92 -65
q-35 0 -47 33q42 36 75.5 107t33.5 120q0 30 -14 41q-78 -22 -129.5 -119.5t-51.5 -205.5q0 -71 25.5 -123.5t77.5 -72.5q27 13 52 34t45.5 42t42.5 58t36 61t34.5 74t30.5 75t29.5 85t27 83t27.5 89q9 28 13 42q51 166 83 247q-103 -93 -212 -164.5t-178 -71.5
q-59 0 -88 33.5t-29 77.5q0 24 10 40.5t25 17.5q13 -33 30.5 -48.5t52.5 -15.5q66 0 169 46.5t170 89.5t95 66q30 -6 54 -25.5t24 -40.5q0 -11 -3 -27.5t-11 -55t-15 -79.5q-27 -151 -39 -339.5t-3 -296.5q133 571 205 744q30 72 61.5 102t67.5 30q28 0 45.5 -12t22.5 -28
q-96 -53 -183.5 -265t-194.5 -618q-15 -54 -10 -98zM818 898q119 32 226 155q26 -10 26 -30q0 -45 -89 -93.5t-145 -48.5q-18 0 -18 17z" />
    <glyph glyph-name="nacute" unicode="&#x144;" 
d="M207 -10q-27 0 -49 24t-22 57q0 53 76 203q10 20 25.5 50t25 49t19.5 40t14.5 35t3.5 22q-19 3 -73.5 -71.5t-117.5 -187.5t-100 -208q-16 -4 -27 -4q-20 0 -34 7.5t-14 22.5q0 38 63 204q11 29 46 114t46 119q-19 -5 -43 -5t-26 18q0 9 3 18q16 -1 45 2t40 3
q56 0 56 -52q0 -23 -67 -202q26 46 38.5 67.5t35 58.5t36.5 55.5t33 40t35 30t31 8.5q31 0 57.5 -16t26.5 -47q0 -44 -80 -202l-14 -28t-14 -27.5t-13.5 -27t-12 -25.5l-10.5 -24t-8.5 -22.5t-6.5 -20t-3.5 -17t0.5 -13.5q40 20 126.5 147.5t142.5 263.5q20 2 20 -12
q0 -21 -27.5 -91t-69 -150.5t-100.5 -143t-113 -62.5zM172 562q119 32 226 155q26 -10 26 -30q0 -45 -89 -93.5t-145 -48.5q-18 0 -18 17z" />
    <glyph glyph-name="Ncommaaccent" unicode="&#x145;" horiz-adv-x="876" 
d="M692 -188q-15 -7 -31 -7q-39 0 -51 33q-28 77 -26 225q0 235 62 658q-15 -49 -36 -138.5t-40 -166.5t-45 -169t-57 -164t-69.5 -134t-89 -96t-109.5 -34q-99 0 -149.5 67t-50.5 169q0 84 31.5 164t94 135t140.5 55q52 0 76.5 -35t24.5 -90q-1 -74 -40 -139t-92 -65
q-35 0 -47 33q42 36 75.5 107t33.5 120q0 30 -14 41q-78 -22 -129.5 -119.5t-51.5 -205.5q0 -71 25.5 -123.5t77.5 -72.5q27 13 52 34t45.5 42t42.5 58t36 61t34.5 74t30.5 75t29.5 85t27 83t27.5 89q9 28 13 42q51 166 83 247q-103 -93 -212 -164.5t-178 -71.5
q-59 0 -88 33.5t-29 77.5q0 24 10 40.5t25 17.5q13 -33 30.5 -48.5t52.5 -15.5q66 0 169 46.5t170 89.5t95 66q30 -6 54 -25.5t24 -40.5q0 -11 -3 -27.5t-11 -55t-15 -79.5q-27 -151 -39 -339.5t-3 -296.5q133 571 205 744q30 72 61.5 102t67.5 30q28 0 45.5 -12t22.5 -28
q-96 -53 -183.5 -265t-194.5 -618q-15 -54 -10 -98zM432 -212q13 11 35 11q18 0 29.5 -11.5t11.5 -33.5q0 -46 -45 -100t-75 -54q-14 0 -17 13q22 19 45.5 67.5t15.5 107.5z" />
    <glyph glyph-name="ncommaaccent" unicode="&#x146;" 
d="M207 -10q-27 0 -49 24t-22 57q0 53 76 203q10 20 25.5 50t25 49t19.5 40t14.5 35t3.5 22q-19 3 -73.5 -71.5t-117.5 -187.5t-100 -208q-16 -4 -27 -4q-20 0 -34 7.5t-14 22.5q0 38 63 204q11 29 46 114t46 119q-19 -5 -43 -5t-26 18q0 9 3 18q16 -1 45 2t40 3
q56 0 56 -52q0 -23 -67 -202q26 46 38.5 67.5t35 58.5t36.5 55.5t33 40t35 30t31 8.5q31 0 57.5 -16t26.5 -47q0 -44 -80 -202l-14 -28t-14 -27.5t-13.5 -27t-12 -25.5l-10.5 -24t-8.5 -22.5t-6.5 -20t-3.5 -17t0.5 -13.5q40 20 126.5 147.5t142.5 263.5q20 2 20 -12
q0 -21 -27.5 -91t-69 -150.5t-100.5 -143t-113 -62.5zM34 -85q13 11 35 11q18 0 29.5 -11.5t11.5 -33.5q0 -46 -45 -100t-75 -54q-14 0 -17 13q22 19 45.5 67.5t15.5 107.5z" />
    <glyph glyph-name="Ncaron" unicode="&#x147;" horiz-adv-x="876" 
d="M692 -188q-15 -7 -31 -7q-39 0 -51 33q-28 77 -26 225q0 235 62 658q-15 -49 -36 -138.5t-40 -166.5t-45 -169t-57 -164t-69.5 -134t-89 -96t-109.5 -34q-99 0 -149.5 67t-50.5 169q0 84 31.5 164t94 135t140.5 55q52 0 76.5 -35t24.5 -90q-1 -74 -40 -139t-92 -65
q-35 0 -47 33q42 36 75.5 107t33.5 120q0 30 -14 41q-78 -22 -129.5 -119.5t-51.5 -205.5q0 -71 25.5 -123.5t77.5 -72.5q27 13 52 34t45.5 42t42.5 58t36 61t34.5 74t30.5 75t29.5 85t27 83t27.5 89q9 28 13 42q51 166 83 247q-103 -93 -212 -164.5t-178 -71.5
q-59 0 -88 33.5t-29 77.5q0 24 10 40.5t25 17.5q13 -33 30.5 -48.5t52.5 -15.5q66 0 169 46.5t170 89.5t95 66q30 -6 54 -25.5t24 -40.5q0 -11 -3 -27.5t-11 -55t-15 -79.5q-27 -151 -39 -339.5t-3 -296.5q133 571 205 744q30 72 61.5 102t67.5 30q28 0 45.5 -12t22.5 -28
q-96 -53 -183.5 -265t-194.5 -618q-15 -54 -10 -98zM818 1053q21 0 41 -22.5t34 -62.5q45 36 89.5 58t67.5 22q10 0 11 -10q-26 -14 -52.5 -32.5t-49 -38t-37 -34t-31 -32t-18.5 -19.5q-11 0 -15 4t-5 13q-5 38 -9 56.5t-14.5 45t-27.5 42.5q6 10 16 10z" />
    <glyph glyph-name="ncaron" unicode="&#x148;" 
d="M207 -10q-27 0 -49 24t-22 57q0 53 76 203q10 20 25.5 50t25 49t19.5 40t14.5 35t3.5 22q-19 3 -73.5 -71.5t-117.5 -187.5t-100 -208q-16 -4 -27 -4q-20 0 -34 7.5t-14 22.5q0 38 63 204q11 29 46 114t46 119q-19 -5 -43 -5t-26 18q0 9 3 18q16 -1 45 2t40 3
q56 0 56 -52q0 -23 -67 -202q26 46 38.5 67.5t35 58.5t36.5 55.5t33 40t35 30t31 8.5q31 0 57.5 -16t26.5 -47q0 -44 -80 -202l-14 -28t-14 -27.5t-13.5 -27t-12 -25.5l-10.5 -24t-8.5 -22.5t-6.5 -20t-3.5 -17t0.5 -13.5q40 20 126.5 147.5t142.5 263.5q20 2 20 -12
q0 -21 -27.5 -91t-69 -150.5t-100.5 -143t-113 -62.5zM192 717q21 0 41 -22.5t34 -62.5q45 36 89.5 58t67.5 22q10 0 11 -10q-26 -14 -52.5 -32.5t-49 -38t-37 -34t-31 -32t-18.5 -19.5q-11 0 -15 4t-5 13q-5 38 -9 56.5t-14.5 45t-27.5 42.5q6 10 16 10z" />
    <glyph glyph-name="napostrophe" unicode="&#x149;" 
d="M207 -10q-27 0 -49 24t-22 57q0 53 76 203q10 20 25.5 50t25 49t19.5 40t14.5 35t3.5 22q-19 3 -73.5 -71.5t-117.5 -187.5t-100 -208q-16 -4 -27 -4q-20 0 -34 7.5t-14 22.5q0 38 63 204q11 29 46 114t46 119q-19 -5 -43 -5t-26 18q0 9 3 18q16 -1 45 2t40 3
q56 0 56 -52q0 -23 -67 -202q26 46 38.5 67.5t35 58.5t36.5 55.5t33 40t35 30t31 8.5q31 0 57.5 -16t26.5 -47q0 -44 -80 -202l-14 -28t-14 -27.5t-13.5 -27t-12 -25.5l-10.5 -24t-8.5 -22.5t-6.5 -20t-3.5 -17t0.5 -13.5q40 20 126.5 147.5t142.5 263.5q20 2 20 -12
q0 -21 -27.5 -91t-69 -150.5t-100.5 -143t-113 -62.5zM177 664q0 22 -7 50q15 11 33 11q19 0 31 -12t12 -35q0 -38 -38.5 -87t-60.5 -49q-9 0 -12 7q42 54 42 115z" />
    <glyph glyph-name="Eng" unicode="&#x14a;" horiz-adv-x="876" 
d="M489 -394q-70 0 -115.5 36.5t-45.5 85.5q0 53 42 90.5t89 37.5q22 0 36 -9.5t13 -22.5q-77 -38 -77 -98q0 -26 18 -50t47 -30q79 55 117 161l-11 47q-11 46 -19 110q-7 54 -7 125.5t5 138t16.5 159.5t21.5 159.5t26 168.5q-9 -33 -44 -175q-68 -286 -113 -408
q-108 -294 -266 -312q-11 -1 -22 -1q-99 0 -149.5 68t-50.5 171q0 84 32 163.5t94.5 133.5t139.5 54q51 0 76 -34.5t25 -88.5q0 -73 -39 -139.5t-93 -66.5q-35 0 -47 33q42 37 75.5 106.5t33.5 119.5q0 31 -14 42q-77 -22 -129 -120.5t-52 -205.5q0 -70 25.5 -122.5
t77.5 -72.5q48 23 89.5 68t72.5 99.5t61 129.5t52.5 143.5t49.5 156.5q10 35 16 53q53 169 81 240q-103 -93 -212 -164.5t-178 -71.5q-58 0 -87.5 33.5t-29.5 75.5q0 26 9.5 42.5t25.5 17.5q13 -33 30.5 -48.5t52.5 -15.5q66 0 169 46.5t170 89.5t95 66q33 -7 57.5 -29
t19.5 -43q-34 -133 -58.5 -395.5t-9.5 -382.5q110 480 180.5 671t151.5 191q28 0 45.5 -12t22.5 -28q-99 -55 -191 -278.5t-190 -599.5q-43 -166 -87.5 -237.5t-123.5 -71.5z" />
    <glyph glyph-name="eng" unicode="&#x14b;" horiz-adv-x="396" 
d="M-36 -140q-29 -47 -29 -85q0 -32 23 -62q45 40 149 301q11 27 17 41q17 42 42.5 102t43.5 102.5t35.5 86t26.5 72.5t9 42q0 5 -1 7q-46 -30 -126.5 -171t-144.5 -293q-16 -4 -27 -4q-48 0 -48 30q0 38 63 204q13 35 37.5 94t41 101t23.5 69q13 1 32 1q26 0 35 -5t9 -18
q0 -9 -4 -25t-13.5 -42t-17 -46t-22 -58t-21.5 -56q10 18 30.5 55.5t31 55.5t27.5 46.5t28.5 43t25.5 30.5t26.5 22.5t24.5 6.5q31 0 57.5 -16t26.5 -47q0 -46 -70 -215q-47 -114 -77.5 -184t-63 -140t-55 -108t-47.5 -69t-47 -42.5t-47 -11.5q-49 0 -86 35t-37 80
q0 35 22 63.5t53 28.5q22 0 44 -22z" />
    <glyph glyph-name="Omacron" unicode="&#x14c;" horiz-adv-x="634" 
d="M204 -183q-129 0 -129 151q0 48 15 116q-88 43 -88 181q0 84 35.5 182.5t93.5 183t141.5 141t169.5 56.5q91 0 152.5 -52.5t61.5 -163.5q0 -64 -25 -164.5t-70.5 -208.5t-101 -203.5t-124 -157t-131.5 -61.5zM203 -144q50 12 137.5 161t157 337.5t69.5 296.5t-65 138
q-86 1 -168 -59t-137.5 -148.5t-89 -186t-33.5 -174.5q0 -64 25 -95q22 88 58 179t82.5 173t103.5 134t112 52q31 0 35 -18q-78 -54 -166 -218t-133 -324q34 12 68.5 53t62 95t48 104.5t33.5 94.5q4 1 9 1q14 0 23 -17.5t7 -57.5q-3 -45 -20 -95t-47 -98.5t-80.5 -81
t-112.5 -35.5q-18 -69 -18 -123q0 -73 39 -88zM682 1009q-3 -38 -12.5 -50.5t-48.5 -12.5q-31 0 -191 5q7 37 16.5 47.5t43.5 10.5h192z" />
    <glyph glyph-name="omacron" unicode="&#x14d;" horiz-adv-x="350" 
d="M129 278q0 -76 31 -121q74 157 74 263q0 46 -37 58q-27 -17 -47.5 -76.5t-20.5 -123.5zM82 30q27 25 61 92q-43 53 -47 164q-44 -111 -44 -189q0 -57 30 -67zM198 64q-51 -73 -116 -73q-51 0 -85.5 33t-34.5 92q0 69 29.5 154t76.5 153q23 36 41 36q7 0 14 -4
q31 54 95 54q43 0 77 -29.5t34 -77.5q0 -49 -29.5 -133.5t-72.5 -158.5q98 48 212 339q21 3 21 -16q0 -24 -18 -79.5t-47.5 -117t-75 -108t-91.5 -46.5q-12 0 -17 1q-2 -3 -6.5 -9.5t-6.5 -9.5zM404 668q-3 -38 -12.5 -50.5t-48.5 -12.5q-31 0 -191 5q7 37 16.5 47.5
t43.5 10.5h192z" />
    <glyph glyph-name="Obreve" unicode="&#x14e;" horiz-adv-x="634" 
d="M204 -183q-129 0 -129 151q0 48 15 116q-88 43 -88 181q0 84 35.5 182.5t93.5 183t141.5 141t169.5 56.5q91 0 152.5 -52.5t61.5 -163.5q0 -64 -25 -164.5t-70.5 -208.5t-101 -203.5t-124 -157t-131.5 -61.5zM203 -144q50 12 137.5 161t157 337.5t69.5 296.5t-65 138
q-86 1 -168 -59t-137.5 -148.5t-89 -186t-33.5 -174.5q0 -64 25 -95q22 88 58 179t82.5 173t103.5 134t112 52q31 0 35 -18q-78 -54 -166 -218t-133 -324q34 12 68.5 53t62 95t48 104.5t33.5 94.5q4 1 9 1q14 0 23 -17.5t7 -57.5q-3 -45 -20 -95t-47 -98.5t-80.5 -81
t-112.5 -35.5q-18 -69 -18 -123q0 -73 39 -88zM460 1039q5 4 12 4q17 0 16 -18q0 -42 7 -60q30 -4 45 -4q91 0 121 79q2 1 6 1q15 0 15 -22q0 -46 -43 -80t-104 -34q-84 0 -84 69q0 25 9 65z" />
    <glyph glyph-name="obreve" unicode="&#x14f;" horiz-adv-x="350" 
d="M129 278q0 -76 31 -121q74 157 74 263q0 46 -37 58q-27 -17 -47.5 -76.5t-20.5 -123.5zM82 30q27 25 61 92q-43 53 -47 164q-44 -111 -44 -189q0 -57 30 -67zM198 64q-51 -73 -116 -73q-51 0 -85.5 33t-34.5 92q0 69 29.5 154t76.5 153q23 36 41 36q7 0 14 -4
q31 54 95 54q43 0 77 -29.5t34 -77.5q0 -49 -29.5 -133.5t-72.5 -158.5q98 48 212 339q21 3 21 -16q0 -24 -18 -79.5t-47.5 -117t-75 -108t-91.5 -46.5q-12 0 -17 1q-2 -3 -6.5 -9.5t-6.5 -9.5zM182 698q5 4 12 4q17 0 16 -18q0 -42 7 -60q30 -4 45 -4q91 0 121 79q2 1 6 1
q15 0 15 -22q0 -46 -43 -80t-104 -34q-84 0 -84 69q0 25 9 65z" />
    <glyph glyph-name="Ohungarumlaut" unicode="&#x150;" horiz-adv-x="634" 
d="M204 -183q-129 0 -129 151q0 48 15 116q-88 43 -88 181q0 84 35.5 182.5t93.5 183t141.5 141t169.5 56.5q91 0 152.5 -52.5t61.5 -163.5q0 -64 -25 -164.5t-70.5 -208.5t-101 -203.5t-124 -157t-131.5 -61.5zM203 -144q50 12 137.5 161t157 337.5t69.5 296.5t-65 138
q-86 1 -168 -59t-137.5 -148.5t-89 -186t-33.5 -174.5q0 -64 25 -95q22 88 58 179t82.5 173t103.5 134t112 52q31 0 35 -18q-78 -54 -166 -218t-133 -324q34 12 68.5 53t62 95t48 104.5t33.5 94.5q4 1 9 1q14 0 23 -17.5t7 -57.5q-3 -45 -20 -95t-47 -98.5t-80.5 -81
t-112.5 -35.5q-18 -69 -18 -123q0 -73 39 -88zM460 896q70 47 127 162q32 -4 32 -29q0 -41 -54 -92t-92 -51q-12 0 -13 10zM573 896q70 47 127 162q32 -4 32 -29q0 -41 -54 -92t-92 -51q-12 0 -13 10z" />
    <glyph glyph-name="ohungarumlaut" unicode="&#x151;" horiz-adv-x="350" 
d="M129 278q0 -76 31 -121q74 157 74 263q0 46 -37 58q-27 -17 -47.5 -76.5t-20.5 -123.5zM82 30q27 25 61 92q-43 53 -47 164q-44 -111 -44 -189q0 -57 30 -67zM198 64q-51 -73 -116 -73q-51 0 -85.5 33t-34.5 92q0 69 29.5 154t76.5 153q23 36 41 36q7 0 14 -4
q31 54 95 54q43 0 77 -29.5t34 -77.5q0 -49 -29.5 -133.5t-72.5 -158.5q98 48 212 339q21 3 21 -16q0 -24 -18 -79.5t-47.5 -117t-75 -108t-91.5 -46.5q-12 0 -17 1q-2 -3 -6.5 -9.5t-6.5 -9.5zM157 555q70 47 127 162q32 -4 32 -29q0 -41 -54 -92t-92 -51q-12 0 -13 10z
M270 555q70 47 127 162q32 -4 32 -29q0 -41 -54 -92t-92 -51q-12 0 -13 10z" />
    <glyph glyph-name="OE" unicode="&#x152;" horiz-adv-x="940" 
d="M490 646q-77 -54 -164.5 -217.5t-131.5 -322.5q92 40 181 262q35 88 53 108q16 17 36 17q10 0 19 -3q-19 -41 -24 -98.5t12 -107.5l12 30q80 202 84 323.5t-65 151.5q-86 1 -168 -59.5t-137.5 -149t-89 -185.5t-33.5 -174q0 -68 28 -99q22 89 55.5 177.5t78 173.5
t102.5 138t117 53q31 0 35 -18zM205 -148q41 13 115 131t139 271q-61 40 -64 100q-4 -47 -16 -91.5t-35 -89t-64.5 -73.5t-96.5 -33q-45 -193 22 -215zM790 27q0 -72 -59.5 -141t-151.5 -69q-73 0 -124 56t-49 143q-39 -89 -94 -144t-108 -55q-67 0 -98 39t-31 106
q0 41 17 121q-90 42 -90 177q0 85 35.5 184.5t93 184.5t141 142t170.5 57q88 0 148 -50.5t65 -156.5q39 109 95.5 162t122.5 53q86 0 128 -53.5t42 -135.5q0 -102 -56.5 -189.5t-135.5 -87.5q-51 0 -80 33.5t-29 87.5q0 64 33 95t69 9q-22 -40 -22.5 -98.5t24.5 -93.5
q42 21 74 106.5t32 166.5q0 98 -48 119q-160 -11 -328 -528q-2 -8 -7 -23t-8 -23q17 -4 38 -4q44 0 79.5 21t48.5 53q41 -10 41 -56q0 -34 -22.5 -53t-66.5 -19q-54 0 -126 33q-20 -66 -30.5 -111t-14.5 -93t9 -80.5t44 -50.5q69 25 103.5 92t38.5 144q13 3 24 3
q31 0 47 -20t16 -53z" />
    <glyph glyph-name="oe" unicode="&#x153;" horiz-adv-x="544" 
d="M449 473q-34 -2 -91.5 -110.5t-79.5 -204.5q42 7 85 65.5t68 124t25 102.5q0 17 -7 23zM82 30q39 29 81 114q-13 8 -13 25q-1 17 13.5 32t30.5 15q44 117 44 203q0 41 -30 48q-48 -49 -100 -177.5t-52 -203.5q0 -47 26 -56zM313 35q67 15 165 144t156 271q11 2 17.5 -3
t2.5 -17q-147 -440 -334 -440q-46 0 -77 21t-42 58q-14 -27 -47.5 -52.5t-71.5 -25.5q-51 0 -85.5 33t-34.5 92q0 68 37.5 165t87.5 170q19 29 61 29q8 0 13 -1q25 30 57 30q43 0 70.5 -22.5t27.5 -65.5q0 -39 -8 -82q31 87 61.5 129.5t70.5 42.5q29 0 57 -24.5t28 -73.5
q0 -44 -29.5 -110.5t-83 -121.5t-109.5 -55q-16 0 -31 4q-2 -22 -2 -30q0 -48 43 -65z" />
    <glyph glyph-name="Racute" unicode="&#x154;" horiz-adv-x="858" 
d="M702 -125q0 -22 -29 -42t-65 -20q-35 0 -52 27.5t-16.5 67.5t1.5 86q6 113 -12 141q-8 -1 -23 -1q-58 -150 -129.5 -232.5t-176.5 -82.5q-99 0 -150 68t-50 171q1 84 32.5 163t94 133.5t139.5 54.5q54 0 82 -38t28 -96q0 -96 -53 -179.5t-130 -83.5q-33 0 -39 23
q61 50 104 138t43 154q0 39 -18 54q-78 -22 -129.5 -122t-51.5 -209q0 -70 25.5 -122.5t76.5 -73.5q33 18 62 45.5t56 72t45.5 79t44.5 102t38.5 103t40.5 116.5q49 137 58 161q41 109 103 109q25 0 31 -18q-6 -5 -12 -13t-11 -19.5t-8.5 -19.5t-7.5 -20.5t-5 -14.5
q-20 -58 -57.5 -178.5t-57.5 -176.5q12 -5 20 -14q88 53 168.5 224t81.5 304q0 67 -26 94q-39 0 -92.5 -29.5t-107.5 -71.5t-109 -84t-113 -71.5t-105 -29.5q-55 0 -81.5 32t-26.5 82q0 23 9.5 38.5t26.5 16.5q9 -29 25.5 -46.5t50.5 -17.5q41 0 111 35.5t134 77.5
t135.5 77.5t115.5 35.5q79 0 118 -47t39 -113q0 -53 -24 -132t-64.5 -160t-103.5 -149t-131 -90q66 -44 61 -181q-2 -74 8 -94q24 5 43 24q15 -3 15 -18zM738 910q119 32 226 155q26 -10 26 -30q0 -45 -89 -93.5t-145 -48.5q-18 0 -18 17z" />
    <glyph glyph-name="racute" unicode="&#x155;" horiz-adv-x="273" 
d="M72 -10q-29 0 -50.5 24t-21.5 56q0 27 71.5 162.5t71.5 148.5q0 14 -21 28q-26 17 -35.5 35.5t-9.5 51.5q0 74 23.5 111.5t55.5 37.5t49 -29q-42 -59 -81 -136q-7 -14 -7 -25q0 -12 9 -15q10 -3 25 -8t21.5 -7t16.5 -5.5t14 -6.5t9.5 -7t7 -9t3 -11.5t1.5 -15.5
q0 -32 -75 -192q-47 -98 -56 -139q51 31 133 155t136 255q21 2 21 -12q0 -21 -30 -91.5t-74 -150.5t-102 -142.5t-105 -62.5zM165 690q119 32 226 155q26 -10 26 -30q0 -45 -89 -93.5t-145 -48.5q-18 0 -18 17z" />
    <glyph glyph-name="Rcommaaccent" unicode="&#x156;" horiz-adv-x="858" 
d="M702 -125q0 -22 -29 -42t-65 -20q-35 0 -52 27.5t-16.5 67.5t1.5 86q6 113 -12 141q-8 -1 -23 -1q-58 -150 -129.5 -232.5t-176.5 -82.5q-99 0 -150 68t-50 171q1 84 32.5 163t94 133.5t139.5 54.5q54 0 82 -38t28 -96q0 -96 -53 -179.5t-130 -83.5q-33 0 -39 23
q61 50 104 138t43 154q0 39 -18 54q-78 -22 -129.5 -122t-51.5 -209q0 -70 25.5 -122.5t76.5 -73.5q33 18 62 45.5t56 72t45.5 79t44.5 102t38.5 103t40.5 116.5q49 137 58 161q41 109 103 109q25 0 31 -18q-6 -5 -12 -13t-11 -19.5t-8.5 -19.5t-7.5 -20.5t-5 -14.5
q-20 -58 -57.5 -178.5t-57.5 -176.5q12 -5 20 -14q88 53 168.5 224t81.5 304q0 67 -26 94q-39 0 -92.5 -29.5t-107.5 -71.5t-109 -84t-113 -71.5t-105 -29.5q-55 0 -81.5 32t-26.5 82q0 23 9.5 38.5t26.5 16.5q9 -29 25.5 -46.5t50.5 -17.5q41 0 111 35.5t134 77.5
t135.5 77.5t115.5 35.5q79 0 118 -47t39 -113q0 -53 -24 -132t-64.5 -160t-103.5 -149t-131 -90q66 -44 61 -181q-2 -74 8 -94q24 5 43 24q15 -3 15 -18zM412 -197q13 11 35 11q18 0 29.5 -11.5t11.5 -33.5q0 -46 -45 -100t-75 -54q-14 0 -17 13q22 19 45.5 67.5t15.5 107.5
z" />
    <glyph glyph-name="rcommaaccent" unicode="&#x157;" horiz-adv-x="273" 
d="M72 -10q-29 0 -50.5 24t-21.5 56q0 27 71.5 162.5t71.5 148.5q0 14 -21 28q-26 17 -35.5 35.5t-9.5 51.5q0 74 23.5 111.5t55.5 37.5t49 -29q-42 -59 -81 -136q-7 -14 -7 -25q0 -12 9 -15q10 -3 25 -8t21.5 -7t16.5 -5.5t14 -6.5t9.5 -7t7 -9t3 -11.5t1.5 -15.5
q0 -32 -75 -192q-47 -98 -56 -139q51 31 133 155t136 255q21 2 21 -12q0 -21 -30 -91.5t-74 -150.5t-102 -142.5t-105 -62.5zM-95 -85q13 11 35 11q18 0 29.5 -11.5t11.5 -33.5q0 -46 -45 -100t-75 -54q-14 0 -17 13q22 19 45.5 67.5t15.5 107.5z" />
    <glyph glyph-name="Rcaron" unicode="&#x158;" horiz-adv-x="858" 
d="M702 -125q0 -22 -29 -42t-65 -20q-35 0 -52 27.5t-16.5 67.5t1.5 86q6 113 -12 141q-8 -1 -23 -1q-58 -150 -129.5 -232.5t-176.5 -82.5q-99 0 -150 68t-50 171q1 84 32.5 163t94 133.5t139.5 54.5q54 0 82 -38t28 -96q0 -96 -53 -179.5t-130 -83.5q-33 0 -39 23
q61 50 104 138t43 154q0 39 -18 54q-78 -22 -129.5 -122t-51.5 -209q0 -70 25.5 -122.5t76.5 -73.5q33 18 62 45.5t56 72t45.5 79t44.5 102t38.5 103t40.5 116.5q49 137 58 161q41 109 103 109q25 0 31 -18q-6 -5 -12 -13t-11 -19.5t-8.5 -19.5t-7.5 -20.5t-5 -14.5
q-20 -58 -57.5 -178.5t-57.5 -176.5q12 -5 20 -14q88 53 168.5 224t81.5 304q0 67 -26 94q-39 0 -92.5 -29.5t-107.5 -71.5t-109 -84t-113 -71.5t-105 -29.5q-55 0 -81.5 32t-26.5 82q0 23 9.5 38.5t26.5 16.5q9 -29 25.5 -46.5t50.5 -17.5q41 0 111 35.5t134 77.5
t135.5 77.5t115.5 35.5q79 0 118 -47t39 -113q0 -53 -24 -132t-64.5 -160t-103.5 -149t-131 -90q66 -44 61 -181q-2 -74 8 -94q24 5 43 24q15 -3 15 -18zM738 1065q21 0 41 -22.5t34 -62.5q45 36 89.5 58t67.5 22q10 0 11 -10q-26 -14 -52.5 -32.5t-49 -38t-37 -34t-31 -32
t-18.5 -19.5q-11 0 -15 4t-5 13q-5 38 -9 56.5t-14.5 45t-27.5 42.5q6 10 16 10z" />
    <glyph glyph-name="rcaron" unicode="&#x159;" horiz-adv-x="273" 
d="M72 -10q-29 0 -50.5 24t-21.5 56q0 27 71.5 162.5t71.5 148.5q0 14 -21 28q-26 17 -35.5 35.5t-9.5 51.5q0 74 23.5 111.5t55.5 37.5t49 -29q-42 -59 -81 -136q-7 -14 -7 -25q0 -12 9 -15q10 -3 25 -8t21.5 -7t16.5 -5.5t14 -6.5t9.5 -7t7 -9t3 -11.5t1.5 -15.5
q0 -32 -75 -192q-47 -98 -56 -139q51 31 133 155t136 255q21 2 21 -12q0 -21 -30 -91.5t-74 -150.5t-102 -142.5t-105 -62.5zM190 845q21 0 41 -22.5t34 -62.5q45 36 89.5 58t67.5 22q10 0 11 -10q-26 -14 -52.5 -32.5t-49 -38t-37 -34t-31 -32t-18.5 -19.5q-11 0 -15 4
t-5 13q-5 38 -9 56.5t-14.5 45t-27.5 42.5q6 10 16 10z" />
    <glyph glyph-name="Sacute" unicode="&#x15a;" horiz-adv-x="617" 
d="M521 136q0 -129 -75 -222.5t-203 -93.5q-123 0 -183 70t-60 175q0 111 63.5 199t162.5 88q66 0 101.5 -50.5t35.5 -120.5q0 -72 -33.5 -124.5t-91.5 -52.5q-35 0 -49 23q33 33 56 91t23 110q0 64 -38 84q-50 -13 -86 -89.5t-36 -165.5q0 -77 35 -131.5t106 -64.5
q71 16 120.5 96t49.5 160q0 73 -19 143.5t-42 117.5t-42 113.5t-19 132.5q0 96 52.5 153.5t118.5 57.5q80 0 124 -41t56 -104q-2 44 -2 70q0 177 74 177q23 0 43 -15t28 -41q-25 -13 -45 -34t-32 -39t-24 -51t-16.5 -49t-14.5 -54q-14 -55 -28 -90q-16 -37 -41.5 -59.5
t-51.5 -22.5q-25 0 -44 19q62 70 64 168q0 98 -62 133q-40 -2 -68.5 -45t-28.5 -109q0 -61 19 -127t42 -116t42 -123t19 -146zM513 1012q119 32 226 155q26 -10 26 -30q0 -45 -89 -93.5t-145 -48.5q-18 0 -18 17z" />
    <glyph glyph-name="sacute" unicode="&#x15b;" horiz-adv-x="248" 
d="M36 -10q-53 0 -82 24.5t-29 57.5q0 19 9 32t25 14q38 -67 66 -85q58 55 68 346q1 14 -7 25.5t-8 15.5q0 1 2 7q53 133 81.5 178t65.5 45q26 0 44.5 -23t26.5 -58q-28 -13 -40.5 -19t-40 -21t-41 -27t-25.5 -29t-12 -34q0 -13 16.5 -99.5t15.5 -140.5q0 -48 -11 -90
q93 133 177 340q21 2 21 -13q0 -10 -14 -56t-43 -112t-66.5 -128t-90.5 -106t-108 -44zM193 690q119 32 226 155q26 -10 26 -30q0 -45 -89 -93.5t-145 -48.5q-18 0 -18 17z" />
    <glyph glyph-name="Scircumflex" unicode="&#x15c;" horiz-adv-x="617" 
d="M521 136q0 -129 -75 -222.5t-203 -93.5q-123 0 -183 70t-60 175q0 111 63.5 199t162.5 88q66 0 101.5 -50.5t35.5 -120.5q0 -72 -33.5 -124.5t-91.5 -52.5q-35 0 -49 23q33 33 56 91t23 110q0 64 -38 84q-50 -13 -86 -89.5t-36 -165.5q0 -77 35 -131.5t106 -64.5
q71 16 120.5 96t49.5 160q0 73 -19 143.5t-42 117.5t-42 113.5t-19 132.5q0 96 52.5 153.5t118.5 57.5q80 0 124 -41t56 -104q-2 44 -2 70q0 177 74 177q23 0 43 -15t28 -41q-25 -13 -45 -34t-32 -39t-24 -51t-16.5 -49t-14.5 -54q-14 -55 -28 -90q-16 -37 -41.5 -59.5
t-51.5 -22.5q-25 0 -44 19q62 70 64 168q0 98 -62 133q-40 -2 -68.5 -45t-28.5 -109q0 -61 19 -127t42 -116t42 -123t19 -146zM677 993q-21 0 -41 22.5t-34 62.5q-45 -36 -89.5 -58t-67.5 -22q-10 0 -11 10q26 14 52.5 32.5t49 38t37 34t31 32t18.5 19.5q11 0 15 -4t5 -13
q5 -38 9 -56.5t14.5 -45t27.5 -42.5q-6 -10 -16 -10z" />
    <glyph glyph-name="scircumflex" unicode="&#x15d;" horiz-adv-x="248" 
d="M36 -10q-53 0 -82 24.5t-29 57.5q0 19 9 32t25 14q38 -67 66 -85q58 55 68 346q1 14 -7 25.5t-8 15.5q0 1 2 7q53 133 81.5 178t65.5 45q26 0 44.5 -23t26.5 -58q-28 -13 -40.5 -19t-40 -21t-41 -27t-25.5 -29t-12 -34q0 -13 16.5 -99.5t15.5 -140.5q0 -48 -11 -90
q93 133 177 340q21 2 21 -13q0 -10 -14 -56t-43 -112t-66.5 -128t-90.5 -106t-108 -44zM379 669q-21 0 -41 22.5t-34 62.5q-45 -36 -89.5 -58t-67.5 -22q-10 0 -11 10q26 14 52.5 32.5t49 38t37 34t31 32t18.5 19.5q11 0 15 -4t5 -13q5 -38 9 -56.5t14.5 -45t27.5 -42.5
q-6 -10 -16 -10z" />
    <glyph glyph-name="Scedilla" unicode="&#x15e;" horiz-adv-x="617" 
d="M154 -391q-43 0 -64.5 13.5t-21.5 34.5q0 20 20 38q43 -38 99 -51q18 14 31.5 38.5t13.5 44.5q0 15 -10 24q-41 -10 -57 -30q-33 0 -33 18q0 10 33 90q-84 21 -124.5 85.5t-40.5 150.5q0 111 63.5 199t162.5 88q66 0 101.5 -50.5t35.5 -120.5q0 -72 -33.5 -124.5
t-91.5 -52.5q-35 0 -49 23q33 33 56 91t23 110q0 64 -38 84q-50 -13 -86 -89.5t-36 -165.5q0 -77 35 -131.5t106 -64.5q71 16 120.5 96t49.5 160q0 73 -19 143.5t-42 117.5t-42 113.5t-19 132.5q0 96 52.5 153.5t118.5 57.5q80 0 124 -41t56 -104q-2 44 -2 70q0 177 74 177
q23 0 43 -15t28 -41q-25 -13 -45 -34t-32 -39t-24 -51t-16.5 -49t-14.5 -54q-14 -55 -28 -90q-16 -37 -41.5 -59.5t-51.5 -22.5q-25 0 -44 19q62 70 64 168q0 98 -62 133q-40 -2 -68.5 -45t-28.5 -109q0 -61 19 -127t42 -116t42 -123t19 -146q0 -129 -75 -222.5t-203 -93.5
q-24 0 -45 3q-10 -25 -24 -59q24 8 45 8q32 0 50 -18t18 -45q0 -39 -35 -69.5t-98 -30.5z" />
    <glyph glyph-name="scedilla" unicode="&#x15f;" horiz-adv-x="248" 
d="M-49 -225q-43 0 -64.5 13.5t-21.5 34.5q0 20 20 38q43 -38 99 -51q18 14 31.5 38.5t13.5 44.5q0 15 -10 24q-41 -10 -57 -30q-33 0 -33 18q0 15 38 101q-42 23 -42 66q0 19 9 32t25 14q38 -67 66 -85q58 55 68 346q1 14 -7 25.5t-8 15.5q0 1 2 7q53 133 81.5 178t65.5 45
q26 0 44.5 -23t26.5 -58q-28 -13 -40.5 -19t-40 -21t-41 -27t-25.5 -29t-12 -34q0 -13 16.5 -99.5t15.5 -140.5q0 -48 -11 -90q93 133 177 340q21 2 21 -13q0 -10 -14 -56t-43 -112t-66.5 -128t-90.5 -106t-108 -44q-15 0 -39 4q-9 -24 -26 -64q24 8 45 8q32 0 50 -18
t18 -45q0 -39 -35 -69.5t-98 -30.5z" />
    <glyph glyph-name="Scaron" unicode="&#x160;" horiz-adv-x="617" 
d="M521 136q0 -129 -75 -222.5t-203 -93.5q-123 0 -183 70t-60 175q0 111 63.5 199t162.5 88q66 0 101.5 -50.5t35.5 -120.5q0 -72 -33.5 -124.5t-91.5 -52.5q-35 0 -49 23q33 33 56 91t23 110q0 64 -38 84q-50 -13 -86 -89.5t-36 -165.5q0 -77 35 -131.5t106 -64.5
q71 16 120.5 96t49.5 160q0 73 -19 143.5t-42 117.5t-42 113.5t-19 132.5q0 96 52.5 153.5t118.5 57.5q80 0 124 -41t56 -104q-2 44 -2 70q0 177 74 177q23 0 43 -15t28 -41q-25 -13 -45 -34t-32 -39t-24 -51t-16.5 -49t-14.5 -54q-14 -55 -28 -90q-16 -37 -41.5 -59.5
t-51.5 -22.5q-25 0 -44 19q62 70 64 168q0 98 -62 133q-40 -2 -68.5 -45t-28.5 -109q0 -61 19 -127t42 -116t42 -123t19 -146zM513 1167q21 0 41 -22.5t34 -62.5q45 36 89.5 58t67.5 22q10 0 11 -10q-26 -14 -52.5 -32.5t-49 -38t-37 -34t-31 -32t-18.5 -19.5q-11 0 -15 4
t-5 13q-5 38 -9 56.5t-14.5 45t-27.5 42.5q6 10 16 10z" />
    <glyph glyph-name="scaron" unicode="&#x161;" horiz-adv-x="248" 
d="M36 -10q-53 0 -82 24.5t-29 57.5q0 19 9 32t25 14q38 -67 66 -85q58 55 68 346q1 14 -7 25.5t-8 15.5q0 1 2 7q53 133 81.5 178t65.5 45q26 0 44.5 -23t26.5 -58q-28 -13 -40.5 -19t-40 -21t-41 -27t-25.5 -29t-12 -34q0 -13 16.5 -99.5t15.5 -140.5q0 -48 -11 -90
q93 133 177 340q21 2 21 -13q0 -10 -14 -56t-43 -112t-66.5 -128t-90.5 -106t-108 -44zM153 843q21 0 41 -22.5t34 -62.5q45 36 89.5 58t67.5 22q10 0 11 -10q-26 -14 -52.5 -32.5t-49 -38t-37 -34t-31 -32t-18.5 -19.5q-11 0 -15 4t-5 13q-5 38 -9 56.5t-14.5 45
t-27.5 42.5q6 10 16 10z" />
    <glyph glyph-name="uni0163" unicode="&#x163;" horiz-adv-x="214" 
d="M-55 -225q-43 0 -64.5 13.5t-21.5 34.5q0 20 20 38q43 -38 99 -51q18 14 31.5 38.5t13.5 44.5q0 15 -10 24q-41 -10 -57 -30q-33 0 -33 18q0 12 46 121q-15 20 -15 43q0 73 132 394q-25 1 -53 5q-1 4 -1 8q0 19 18 20q16 1 50 1q43 101 55 126q75 3 75 -39q0 -19 -32 -87
q12 0 35 -0.5t34 -0.5q4 -7 4 -12q0 -21 -88 -24q-53 -130 -121 -318q-15 -44 -15 -67q-1 -16 6 -29q48 36 121 153t129 250q21 2 21 -12q0 -19 -37 -99.5t-72 -145.5q-51 -91 -98 -146.5t-79 -55.5q-24 0 -43 12q-5 -12 -15.5 -37.5t-14.5 -34.5q24 8 45 8q32 0 50 -18
t18 -45q0 -39 -35 -69.5t-98 -30.5z" />
    <glyph glyph-name="Tcaron" unicode="&#x164;" horiz-adv-x="580" 
d="M153 -181q-72 0 -112.5 44t-40.5 115q0 69 38 110.5t89 41.5q28 0 40 -13t10 -28q-37 -15 -61 -48.5t-24 -82.5q0 -41 16.5 -68.5t41.5 -35.5q48 18 81.5 65t72.5 140q50 122 148.5 392.5t103.5 282.5q-12 3 -98.5 29.5t-139.5 33.5q-59 -22 -110.5 -158t-51.5 -248
q0 -94 42 -108q49 39 78.5 150.5t29.5 193.5q0 25 -3 36q10 13 31 13q30 0 46 -31.5t16 -81.5q0 -67 -23 -138t-70 -124t-105 -53q-67 0 -101 51t-33 133q0 89 36.5 180.5t109.5 157t163 65.5q30 0 159.5 -8.5t164.5 -8.5q59 0 78 18q15 -10 15 -30q0 -86 -131 -86
q-14 0 -38 2q14 -26 8 -41q-15 -43 -71 -204.5t-96.5 -272t-70.5 -178.5q-50 -111 -102 -159t-136 -48zM574 1066q21 0 41 -22.5t34 -62.5q45 36 89.5 58t67.5 22q10 0 11 -10q-26 -14 -52.5 -32.5t-49 -38t-37 -34t-31 -32t-18.5 -19.5q-11 0 -15 4t-5 13q-5 38 -9 56.5
t-14.5 45t-27.5 42.5q6 10 16 10z" />
    <glyph glyph-name="tcaron" unicode="&#x165;" horiz-adv-x="241" 
d="M301 771q21 15 45 15q16 0 26 -13.5t10 -38.5q0 -62 -48.5 -131.5t-82.5 -69.5q-11 0 -16 10q78 93 78 168q0 32 -12 60zM38 -10q-32 0 -58 23t-26 56q0 73 132 394q-25 1 -53 5q-1 4 -1 8q0 19 18 20q16 1 50 1q43 101 55 126q75 3 75 -39q0 -19 -32 -87q12 0 35 -0.5
t34 -0.5q4 -7 4 -12q0 -21 -88 -24q-53 -130 -121 -318q-15 -44 -15 -67q-1 -24 12 -37q51 27 103 119q14 2 14 -11q0 -36 -48 -96t-90 -60z" />
    <glyph glyph-name="Tbar" unicode="&#x166;" horiz-adv-x="580" 
d="M153 -181q-72 0 -112.5 44t-40.5 115q0 69 38 110.5t89 41.5q28 0 40 -13t10 -28q-37 -15 -61 -48.5t-24 -82.5q0 -41 16.5 -68.5t41.5 -35.5q48 18 81.5 65t72.5 140q22 52 63 161q-36 1 -71 5q-4 13 3 24t27 13q14 2 58 4q35 92 94.5 256.5t77.5 211.5
q-12 3 -98.5 29.5t-139.5 33.5q-59 -22 -110.5 -158t-51.5 -248q0 -94 42 -108q49 39 78.5 150.5t29.5 193.5q0 25 -3 36q10 13 31 13q30 0 46 -31.5t16 -81.5q0 -67 -23 -138t-70 -124t-105 -53q-67 0 -101 51t-33 133q0 89 36.5 180.5t109.5 157t163 65.5q30 0 159.5 -8.5
t164.5 -8.5q59 0 78 18q15 -10 15 -30q0 -86 -131 -86q-14 0 -38 2q14 -26 8 -41q-17 -46 -67 -191.5t-78 -223.5q52 -2 74 -4q12 -36 -18 -39q-23 -2 -73 -4q-46 -128 -76 -193q-50 -111 -102 -159t-136 -48z" />
    <glyph glyph-name="tbar" unicode="&#x167;" horiz-adv-x="214" 
d="M215 192q-51 -91 -98 -146.5t-79 -55.5t-58 23t-26 56q0 52 78 258h-60q-1 3 -1 10q0 27 34 27q8 0 21.5 -0.5t19.5 -0.5q10 26 40 100q-25 1 -53 5q-1 4 -1 8q0 19 18 20q16 1 50 1q43 101 55 126q75 3 75 -39q0 -19 -32 -87q12 0 35 -0.5t34 -0.5q4 -7 4 -12
q0 -21 -88 -24q-10 -24 -40 -101q56 3 92 5q1 -4 1 -13q0 -30 -40 -30q-23 0 -67 2q-18 -47 -67 -181q-15 -44 -15 -67q-1 -16 6 -29q48 36 121 153t129 250q21 2 21 -12q0 -19 -37 -99.5t-72 -145.5z" />
    <glyph glyph-name="Utilde" unicode="&#x168;" horiz-adv-x="736" 
d="M571 -210q-110 0 -110 137q0 69 28 175q-49 -143 -100 -212.5t-113 -69.5q-39 0 -64.5 27t-25.5 80q0 58 30.5 136.5t88.5 198.5q97 200 123 272q31 87 31 145q0 82 -46 108q-68 -5 -129.5 -57.5t-101 -126t-63 -153.5t-23.5 -145q0 -91 41 -107q40 47 65.5 131.5
t25.5 157.5q0 32 -6 56q8 10 25 10q27 0 48.5 -25t21.5 -75q0 -55 -24.5 -122.5t-74 -120.5t-108.5 -53q-54 0 -82 41t-28 105q0 121 48 243.5t133 205t180 82.5q72 0 131 -54t59 -136q0 -42 -26.5 -121.5t-48 -130t-73.5 -166.5q-56 -126 -85.5 -204.5t-29.5 -124.5
q0 -22 7 -33q47 12 135.5 190t180.5 406q114 283 107 360q20 6 41 6q58 0 58 -48q0 -47 -29 -132t-86 -228q-49 -121 -74.5 -188t-52 -163t-26.5 -155q0 -75 48 -75q40 0 59 41q15 0 15 -18q0 -24 -27.5 -47t-72.5 -23zM524 934q-9 -1 -14 5t-5 16q0 28 27 57.5t67 29.5
q19 0 70 -34q2 -2 11.5 -8.5t13 -8.5t11 -6t13.5 -5.5t12 -1.5q18 9 36 42q9 1 13 -4t4 -16q0 -28 -26.5 -53t-54.5 -25q-21 0 -68 33q-50 34 -73 34q-22 -20 -37 -55z" />
    <glyph glyph-name="utilde" unicode="&#x169;" horiz-adv-x="393" 
d="M166 139q-82 -152 -142 -152q-29 0 -53.5 17t-24.5 50q0 46 33 134.5t69.5 173.5t40.5 111q-25 -7 -43 -7q-26 0 -26 17q0 7 3 14q16 -1 45 2t40 3q23 0 42.5 -16t19.5 -50q0 -25 -69.5 -185.5t-69.5 -204.5q0 -7 1 -10q28 1 73.5 63.5t91.5 156.5q41 84 96 241
q17 4 37 4q39 0 39 -26q0 -43 -64 -211q-18 -47 -52 -126t-41 -99q51 25 131.5 147t138.5 263q21 4 21 -12q0 -19 -37 -99.5t-72 -145.5q-113 -202 -192 -202q-24 0 -44 17t-20 42q0 20 28 90zM151 587q-9 -1 -14 5t-5 16q0 28 27 57.5t67 29.5q19 0 70 -34q2 -2 11.5 -8.5
t13 -8.5t11 -6t13.5 -5.5t12 -1.5q18 9 36 42q9 1 13 -4t4 -16q0 -28 -26.5 -53t-54.5 -25q-21 0 -68 33q-50 34 -73 34q-22 -20 -37 -55z" />
    <glyph glyph-name="Umacron" unicode="&#x16a;" horiz-adv-x="736" 
d="M571 -210q-110 0 -110 137q0 69 28 175q-49 -143 -100 -212.5t-113 -69.5q-39 0 -64.5 27t-25.5 80q0 58 30.5 136.5t88.5 198.5q97 200 123 272q31 87 31 145q0 82 -46 108q-68 -5 -129.5 -57.5t-101 -126t-63 -153.5t-23.5 -145q0 -91 41 -107q40 47 65.5 131.5
t25.5 157.5q0 32 -6 56q8 10 25 10q27 0 48.5 -25t21.5 -75q0 -55 -24.5 -122.5t-74 -120.5t-108.5 -53q-54 0 -82 41t-28 105q0 121 48 243.5t133 205t180 82.5q72 0 131 -54t59 -136q0 -42 -26.5 -121.5t-48 -130t-73.5 -166.5q-56 -126 -85.5 -204.5t-29.5 -124.5
q0 -22 7 -33q47 12 135.5 190t180.5 406q114 283 107 360q20 6 41 6q58 0 58 -48q0 -47 -29 -132t-86 -228q-49 -121 -74.5 -188t-52 -163t-26.5 -155q0 -75 48 -75q40 0 59 41q15 0 15 -18q0 -24 -27.5 -47t-72.5 -23zM790 1015q-3 -38 -12.5 -50.5t-48.5 -12.5
q-31 0 -191 5q7 37 16.5 47.5t43.5 10.5q19 0 59.5 -0.5t73.5 -0.5t59 1z" />
    <glyph glyph-name="umacron" unicode="&#x16b;" horiz-adv-x="393" 
d="M166 139q-82 -152 -142 -152q-29 0 -53.5 17t-24.5 50q0 46 33 134.5t69.5 173.5t40.5 111q-25 -7 -43 -7q-26 0 -26 17q0 7 3 14q16 -1 45 2t40 3q23 0 42.5 -16t19.5 -50q0 -25 -69.5 -185.5t-69.5 -204.5q0 -7 1 -10q28 1 73.5 63.5t91.5 156.5q41 84 96 241
q17 4 37 4q39 0 39 -26q0 -43 -64 -211q-18 -47 -52 -126t-41 -99q51 25 131.5 147t138.5 263q21 4 21 -12q0 -19 -37 -99.5t-72 -145.5q-113 -202 -192 -202q-24 0 -44 17t-20 42q0 20 28 90zM384 668q-3 -38 -12.5 -50.5t-48.5 -12.5q-31 0 -191 5q7 37 16.5 47.5
t43.5 10.5q19 0 59.5 -0.5t73.5 -0.5t59 1z" />
    <glyph glyph-name="Ubreve" unicode="&#x16c;" horiz-adv-x="736" 
d="M571 -210q-110 0 -110 137q0 69 28 175q-49 -143 -100 -212.5t-113 -69.5q-39 0 -64.5 27t-25.5 80q0 58 30.5 136.5t88.5 198.5q97 200 123 272q31 87 31 145q0 82 -46 108q-68 -5 -129.5 -57.5t-101 -126t-63 -153.5t-23.5 -145q0 -91 41 -107q40 47 65.5 131.5
t25.5 157.5q0 32 -6 56q8 10 25 10q27 0 48.5 -25t21.5 -75q0 -55 -24.5 -122.5t-74 -120.5t-108.5 -53q-54 0 -82 41t-28 105q0 121 48 243.5t133 205t180 82.5q72 0 131 -54t59 -136q0 -42 -26.5 -121.5t-48 -130t-73.5 -166.5q-56 -126 -85.5 -204.5t-29.5 -124.5
q0 -22 7 -33q47 12 135.5 190t180.5 406q114 283 107 360q20 6 41 6q58 0 58 -48q0 -47 -29 -132t-86 -228q-49 -121 -74.5 -188t-52 -163t-26.5 -155q0 -75 48 -75q40 0 59 41q15 0 15 -18q0 -24 -27.5 -47t-72.5 -23zM568 1045q5 4 12 4q17 0 16 -18q0 -42 7 -60
q30 -4 45 -4q91 0 121 79q2 1 6 1q15 0 15 -22q0 -46 -43 -80t-104 -34q-84 0 -84 69q0 25 9 65z" />
    </font>
</defs>
</svg>
