<svg xmlns="http://www.w3.org/2000/svg" xmlns:xlink="http://www.w3.org/1999/xlink" width="197.801" height="158" viewBox="0 0 197.801 158"><defs><linearGradient id="a" x1="0.5" y1="0.132" x2="0.5" y2="0.943" gradientUnits="objectBoundingBox"><stop offset="0" stop-color="#6bc6b6"/><stop offset="0.444" stop-color="#3ba3db"/><stop offset="0.802" stop-color="#605aa6"/><stop offset="1" stop-color="#6155a3"/></linearGradient><linearGradient id="b" x1="0.5" y1="1.261" x2="0.5" y2="0.259" gradientUnits="objectBoundingBox"><stop offset="0" stop-color="#da77ae"/><stop offset="1" stop-color="#5c3386"/></linearGradient><linearGradient id="c" x1="0.5" y1="0.981" x2="0.5" y2="0.146" xlink:href="#b"/></defs><g transform="translate(1208.567 1712.528)"><g transform="translate(-1208.567 -1712.528)"><path d="M-.426.266-.447.224.447-.224l.021.042Z" transform="translate(60.927 70.636)" fill="#fff"/><path d="M-1014.072-1690.9c-7.716-9.719-15.839-10.994-22.337-9.033-6.093,1.835-10.756,6.513-12.317,9.747l-20.188,44.682-8.318,18.423-13.865,30.677-2.031,4.5-6.575,14.543-.049.106-.645,1.442-.006.007a36.953,36.953,0,0,1-9.943,12.646,36.735,36.735,0,0,1-23.339,8.326,36.87,36.87,0,0,1-33.058-20.517l-1.176-2.626-35.053-78.139-4.117-9.173a36.585,36.585,0,0,1-1.478-10.349,36.886,36.886,0,0,1,36.881-36.888,36.632,36.632,0,0,1,10.8,1.61c-13-.833-19.53,4.573-22.366,10.917-2.6,5.8-2.121,12.4-.7,15.7l20.517,44.619,8.27,17.982,14.817,32.225.007.028a6.924,6.924,0,0,0,.385.833l.014.021.218.476.056-.021a6.5,6.5,0,0,0,5.427,2.92,6.5,6.5,0,0,0,5.9-3.747c.035-.07.07-.147.1-.217l7.269-15.685,1.862-4.019,6.176-13.332,3-6.463,27.806-60.024,2.227-4.8a36.857,36.857,0,0,1,32.267-19.018A36.869,36.869,0,0,1-1014.072-1690.9Z" transform="translate(1208.567 1712.528)" fill="url(#a)"/><path d="M-1092.993-1627.661l-3,6.463-6.176,13.333a36.1,36.1,0,0,0-1.863,4.019l-5.923,12.784-16.134-35.324L-1134-1644.11l-19.613-43.946s-3.683-8.725-12.689-10.923c2.836-6.344,9.363-11.75,22.366-10.917h.014a36.947,36.947,0,0,1,22.667,19.789l.161.357Z" transform="translate(1191.613 1711.507)" fill="url(#b)"/><path d="M-944.98-1667.731a36.844,36.844,0,0,1-1.646,10.93l-.014.035-3.977,8.635-.007.007-35.439,76.92a36.889,36.889,0,0,1-34.781,24.585,36.741,36.741,0,0,1-23.716-8.634,36.941,36.941,0,0,0,9.943-12.646l.007-.007.644-1.442.049-.106,6.575-14.543a6.534,6.534,0,0,0,1.6,4.573,6.589,6.589,0,0,0,6.133,2.164,6.517,6.517,0,0,0,3.151-1.5,6.375,6.375,0,0,0,.98-1.064l.007-.008.2-.118.231-.148,15.622-33.436,8.606-18.416,20.25-43.344s4.18-8.487-.056-16.735c6.5-1.961,14.62-.686,22.337,9.033l.014.014A36.752,36.752,0,0,1-944.98-1667.731Z" transform="translate(1142.78 1704.62)" fill="url(#c)"/></g></g></svg>