<svg xmlns="http://www.w3.org/2000/svg" xmlns:xlink="http://www.w3.org/1999/xlink" width="385.835" height="80.507" viewBox="0 0 385.835 80.507"><defs><linearGradient id="a" x1="0.5" y1="0.132" x2="0.5" y2="0.943" gradientUnits="objectBoundingBox"><stop offset="0" stop-color="#6bc6b6"/><stop offset="0.444" stop-color="#3ba3db"/><stop offset="0.802" stop-color="#605aa6"/><stop offset="1" stop-color="#6155a3"/></linearGradient><linearGradient id="b" x1="0.5" y1="1.261" x2="0.5" y2="0.259" gradientUnits="objectBoundingBox"><stop offset="0" stop-color="#da77ae"/><stop offset="1" stop-color="#5c3386"/></linearGradient><linearGradient id="c" x1="0.5" y1="0.981" x2="0.5" y2="0.146" xlink:href="#b"/><linearGradient id="d" x1="1.159" y1="0.583" x2="-0.494" y2="0.34" gradientUnits="objectBoundingBox"><stop offset="0" stop-color="#da77ae" stop-opacity="0"/><stop offset="1" stop-color="#5c3386"/></linearGradient></defs><g transform="translate(1208.567 1712.528)"><g transform="translate(-828.221 -1688.15)"><path d="M39.982-1632.029h-.756v3.99H38.6v-3.99h-.756v-.612h2.137Z" transform="translate(-37.845 1632.64)" fill="#fff"/><path d="M47.657-1628.761l-.723-2.414v3.137h-.579v-4.6H47l.828,2.791.828-2.791h.591v4.6h-.585v-3.145l-.718,2.421Z" transform="translate(-43.758 1632.64)" fill="#fff"/></g><g transform="translate(-1208.567 -1712.528)"><path d="M-.437.245-.447.224.447-.224.458-.2Z" transform="translate(31.044 35.992)" fill="#fff"/><path d="M-1109.464-1701.51c-3.932-4.952-8.071-5.6-11.381-4.6a10.928,10.928,0,0,0-6.276,4.966l-10.286,22.767-4.239,9.387-7.065,15.631-1.035,2.294-3.35,7.41-.025.054-.328.735,0,0a18.829,18.829,0,0,1-5.066,6.444,18.718,18.718,0,0,1-11.892,4.242,18.787,18.787,0,0,1-16.844-10.454l-.6-1.338-17.861-39.815-2.1-4.674a18.645,18.645,0,0,1-.753-5.273,18.8,18.8,0,0,1,18.792-18.8,18.666,18.666,0,0,1,5.5.82c-6.626-.424-9.951,2.33-11.4,5.563a10.937,10.937,0,0,0-.357,8l10.454,22.735,4.214,9.162,7.55,16.42,0,.014a3.509,3.509,0,0,0,.2.425l.007.01.111.243.028-.011a3.31,3.31,0,0,0,2.765,1.488,3.315,3.315,0,0,0,3-1.909c.018-.036.036-.075.05-.111l3.7-7.992.949-2.048,3.147-6.793,1.527-3.293,14.168-30.584,1.135-2.448a18.78,18.78,0,0,1,16.441-9.69A18.786,18.786,0,0,1-1109.464-1701.51Z" transform="translate(1208.567 1712.528)" fill="url(#a)"/><path d="M-1128.947-1668.036l-1.527,3.293-3.147,6.794a18.4,18.4,0,0,0-.949,2.048l-3.018,6.514-8.221-18-4.032-9.031-9.994-22.392a10.287,10.287,0,0,0-6.465-5.566c1.445-3.233,4.771-5.987,11.4-5.562h.007a18.826,18.826,0,0,1,11.549,10.083l.082.182Z" transform="translate(1179.198 1710.758)" fill="url(#b)"/><path d="M-993.82-1680.032a18.772,18.772,0,0,1-.839,5.569l-.007.018-2.026,4.4,0,0-18.057,39.194a18.8,18.8,0,0,1-17.722,12.527,18.72,18.72,0,0,1-12.084-4.4,18.825,18.825,0,0,0,5.066-6.444l0,0,.328-.735.025-.054,3.35-7.41a3.33,3.33,0,0,0,.813,2.33,3.357,3.357,0,0,0,3.125,1.1,3.32,3.32,0,0,0,1.606-.764,3.247,3.247,0,0,0,.5-.542l0,0,.1-.06.118-.075,7.96-17.037,4.385-9.383,10.318-22.086a10.278,10.278,0,0,0-.028-8.527c3.311-1,7.45-.35,11.381,4.6l.007.007A18.727,18.727,0,0,1-993.82-1680.032Z" transform="translate(1094.606 1698.828)" fill="url(#c)"/></g><path d="M-862.978-1597.877V-1632.7h4.825v34.821Z" transform="translate(-240.132 -55.47)" fill="#fff"/><path d="M-810.76-1597.877h-4.925l-4.457-13.978q-.45.05-1.45.05h-2.1v13.928h-4.725V-1632.7h7.511a8.68,8.68,0,0,1,6.342,2.263,8.676,8.676,0,0,1,2.313,6.492v3.582q0,5.174-3.731,7.014Zm-12.934-30.443v12.585h2.736a3.773,3.773,0,0,0,2.935-1.144,4.781,4.781,0,0,0,1.044-3.333v-3.631a4.783,4.783,0,0,0-1.044-3.333,3.776,3.776,0,0,0-2.935-1.144Z" transform="translate(-264.145 -55.47)" fill="#fff"/><path d="M-750.308-1628.072h-5.721v30.194h0a4.726,4.726,0,0,1-4.726-4.726v-25.469h-5.72v-4.626h16.167Z" transform="translate(-307.187 -55.47)" fill="#fff"/><path d="M-691.659-1632.7h4.676v27.16a7.88,7.88,0,0,1-2.313,5.895,7.889,7.889,0,0,1-5.745,2.263,7.711,7.711,0,0,1-5.621-2.189,7.768,7.768,0,0,1-2.239-5.82V-1632.7h4.775v27.21a4.011,4.011,0,0,0,.871,2.736,2.976,2.976,0,0,0,2.363.995,3,3,0,0,0,2.338-.995,3.941,3.941,0,0,0,.9-2.736Z" transform="translate(-351.361 -55.47)" fill="#fff"/><path d="M-631.872-1632.7l7.125,34.821h-4.925l-1.432-7.81h-6.546l-1.439,7.81H-643.4l6.564-34.821Zm-2.376,8.556-2.7,14.675h5.744Z" transform="translate(-392.704 -55.47)" fill="#fff"/><path d="M-560.3-1597.877h-12.187V-1632.7h4.726v30.244h7.461Z" transform="translate(-441.975 -55.47)" fill="#fff"/><path d="M-475.731-1597.877l-8.307-24.323v24.323h-4.178V-1632.7h4.477l8.009,23.452V-1632.7h4.178v34.821Z" transform="translate(-500.533 -55.47)" fill="#fff"/><path d="M-414.863-1597.877v-30a4.825,4.825,0,0,1,4.825-4.825h0v34.821Z" transform="translate(-551.503 -55.47)" fill="#fff"/><path d="M-373.48-1613.436v-3.731h7.959v10.247a8.1,8.1,0,0,1-2.388,6.094,8.176,8.176,0,0,1-5.92,2.313,7.976,7.976,0,0,1-5.82-2.239,8.033,8.033,0,0,1-2.288-6.019v-19.151a8.144,8.144,0,0,1,2.363-6.094,8.088,8.088,0,0,1,5.895-2.313,8.063,8.063,0,0,1,5.845,2.239,7.988,7.988,0,0,1,2.313,6.019v3.93h-4.726v-3.781a4.151,4.151,0,0,0-.97-2.935,3.271,3.271,0,0,0-2.512-1.045,3.25,3.25,0,0,0-2.537,1.045,4.219,4.219,0,0,0-.945,2.935v19.1a4.243,4.243,0,0,0,.97,2.959,3.29,3.29,0,0,0,2.562,1.069,3.291,3.291,0,0,0,2.562-1.069,4.243,4.243,0,0,0,.97-2.959v-6.616Z" transform="translate(-574.383 -54.337)" fill="#fff"/><path d="M-300.4-1597.877V-1613.8h-6.715v15.918h-4.726V-1632.7h4.726v14.326h6.715V-1632.7h4.726v34.821Z" transform="translate(-623.088 -55.47)" fill="#fff"/><path d="M-231.284-1628.072h-5.721v30.194h0a4.726,4.726,0,0,1-4.726-4.726v-25.469h-5.72v-4.626h16.167Z" transform="translate(-667.829 -55.47)" fill="#fff"/><path d="M-151.765-1606.77v-19.151a8.144,8.144,0,0,1,2.363-6.094,8.089,8.089,0,0,1,5.895-2.313,8.062,8.062,0,0,1,5.845,2.239,7.988,7.988,0,0,1,2.313,6.019v19.151a8.1,8.1,0,0,1-2.388,6.094,8.176,8.176,0,0,1-5.919,2.313,7.975,7.975,0,0,1-5.82-2.239A8.033,8.033,0,0,1-151.765-1606.77Zm4.726-19.151v19.052a4.236,4.236,0,0,0,.945,2.91,3.213,3.213,0,0,0,2.537,1.07,3.235,3.235,0,0,0,2.512-1.07,4.168,4.168,0,0,0,.97-2.91v-19.052a4.151,4.151,0,0,0-.97-2.935,3.272,3.272,0,0,0-2.512-1.045,3.25,3.25,0,0,0-2.537,1.045A4.218,4.218,0,0,0-147.039-1625.921Z" transform="translate(-734.316 -54.337)" fill="#fff"/><path d="M-71.243-1632.7h4.676v27.16a7.88,7.88,0,0,1-2.313,5.895,7.889,7.889,0,0,1-5.745,2.263,7.71,7.71,0,0,1-5.621-2.189,7.768,7.768,0,0,1-2.239-5.82V-1632.7h4.775v27.21a4.011,4.011,0,0,0,.871,2.736,2.976,2.976,0,0,0,2.363.995,3,3,0,0,0,2.338-.995,3.941,3.941,0,0,0,.9-2.736Z" transform="translate(-782.455 -55.47)" fill="#fff"/><path d="M-4.11-1628.072H-9.28v30.194h0a4.726,4.726,0,0,1-4.726-4.726v-25.469h-5.72v-4.626H-4.11Z" transform="translate(-826.063 -55.47)" fill="#fff"/><g transform="translate(-1123.398 -1647.595)"><path d="M-923.311-1488.368h-1.3l-1.9-4.563a4.728,4.728,0,0,1-.475.015h-1.242v4.548h-1.23v-10.865h2.589a3.283,3.283,0,0,1,2.2.691,2.424,2.424,0,0,1,.808,1.948v1.056a2.248,2.248,0,0,1-1.542,2.3Zm-4.922-9.918v4.5h1.341a1.837,1.837,0,0,0,1.313-.443,1.657,1.657,0,0,0,.468-1.265v-1.087a1.656,1.656,0,0,0-.468-1.265,1.837,1.837,0,0,0-1.313-.443Z" transform="translate(929.463 1499.388)" fill="#fff"/><path d="M-900.2-1488.368h-4.591v-10.865h4.5v.994h-3.269v3.741h2.718v.931h-2.718v4.206h3.36Z" transform="translate(912.32 1499.388)" fill="#fff"/><path d="M-882.882-1499.233l2.466,10.865h-1.106l-.616-2.763H-884.9l-.624,2.763h-1.219l2.493-10.865Zm-.625,1.962-1.195,5.287h2.373Z" transform="translate(899.776 1499.388)" fill="#fff"/><path d="M-856.938-1488.368h-4.224v-10.865h1.23v9.872h2.993Z" transform="translate(882.004 1499.388)" fill="#fff"/><path d="M-827.6-1491.018v-1.506h1.194v1.537a2.206,2.206,0,0,1-.771,1.754,2.867,2.867,0,0,1-1.947.667,2.938,2.938,0,0,1-1.965-.652,2.179,2.179,0,0,1-.771-1.754v-6.317a2.224,2.224,0,0,1,.79-1.778,2.945,2.945,0,0,1,1.983-.675,2.842,2.842,0,0,1,1.928.652,2.186,2.186,0,0,1,.753,1.739v1.412H-827.6v-1.35a1.424,1.424,0,0,0-.413-1.079,1.514,1.514,0,0,0-1.093-.4,1.546,1.546,0,0,0-1.1.4,1.407,1.407,0,0,0-.422,1.079v6.271a1.4,1.4,0,0,0,.422,1.086,1.562,1.562,0,0,0,1.1.388,1.529,1.529,0,0,0,1.093-.388A1.417,1.417,0,0,0-827.6-1491.018Z" transform="translate(861.641 1499.741)" fill="#fff"/><path d="M-803.079-1488.368H-807.3v-10.865h1.23v9.872h2.994Z" transform="translate(844.58 1499.388)" fill="#fff"/><path d="M-785.873-1499.233h1.23v8.584a2.19,2.19,0,0,1-.8,1.769,2.975,2.975,0,0,1-1.974.667,2.939,2.939,0,0,1-1.965-.652,2.178,2.178,0,0,1-.771-1.754v-8.615h1.249v8.568a1.4,1.4,0,0,0,.422,1.086,1.563,1.563,0,0,0,1.1.388,1.531,1.531,0,0,0,1.093-.388,1.418,1.418,0,0,0,.413-1.086Z" transform="translate(832.663 1499.388)" fill="#fff"/><path d="M-765.179-1488.368v-10.865h2.589a3.171,3.171,0,0,1,2.13.675,2.349,2.349,0,0,1,.789,1.886v.279a2.283,2.283,0,0,1-1.469,2.3,2.373,2.373,0,0,1,1.221.869,2.5,2.5,0,0,1,.432,1.49v.776a2.362,2.362,0,0,1-.818,1.894,3.178,3.178,0,0,1-2.139.7Zm1.23-9.965v3.88h1.249a1.837,1.837,0,0,0,1.313-.443,1.656,1.656,0,0,0,.468-1.265v-.466a1.658,1.658,0,0,0-.468-1.265,1.838,1.838,0,0,0-1.313-.442Zm0,4.718v4.362h1.432a1.838,1.838,0,0,0,1.313-.443,1.657,1.657,0,0,0,.468-1.265v-.947a1.657,1.657,0,0,0-.468-1.265,1.837,1.837,0,0,0-1.313-.443Z" transform="translate(815.311 1499.388)" fill="#fff"/><path d="M-740.817-1491.747v.652a1.535,1.535,0,0,0,.441,1.157,1.591,1.591,0,0,0,1.157.427,1.678,1.678,0,0,0,1.166-.4,1.405,1.405,0,0,0,.45-1.1,2.427,2.427,0,0,0-.5-1.467,9.1,9.1,0,0,0-1.653-1.591q-2.131-1.676-2.13-3.275a2.136,2.136,0,0,1,.8-1.731,3,3,0,0,1,1.974-.66,2.842,2.842,0,0,1,1.928.652,2.186,2.186,0,0,1,.753,1.739v.559H-737.6v-.5a1.426,1.426,0,0,0-.422-1.094,1.546,1.546,0,0,0-1.1-.4,1.569,1.569,0,0,0-1.093.373,1.33,1.33,0,0,0-.413,1.04,2.043,2.043,0,0,0,.441,1.242,7.861,7.861,0,0,0,1.432,1.366,8.643,8.643,0,0,1,1.79,1.824,3.315,3.315,0,0,1,.6,1.9,2.216,2.216,0,0,1-.817,1.785,3.085,3.085,0,0,1-2.048.683,2.947,2.947,0,0,1-2-.667,2.258,2.258,0,0,1-.771-1.8v-.714Z" transform="translate(799.212 1499.741)" fill="#fff"/><path d="M-717.43-1465.144h-.991l.11-3.57h1.341Z" transform="translate(782.821 1478.182)" fill="#fff"/><path d="M-690.245-1488.368h-1.3l-1.9-4.563a4.726,4.726,0,0,1-.475.015h-1.242v4.548h-1.23v-10.865h2.589a3.283,3.283,0,0,1,2.2.691,2.424,2.424,0,0,1,.808,1.948v1.056a2.248,2.248,0,0,1-1.542,2.3Zm-4.922-9.918v4.5h1.341a1.837,1.837,0,0,0,1.313-.443,1.656,1.656,0,0,0,.468-1.265v-1.087a1.656,1.656,0,0,0-.468-1.265,1.837,1.837,0,0,0-1.313-.443Z" transform="translate(767.518 1499.388)" fill="#fff"/><path d="M-667.133-1488.368h-4.591v-10.865h4.5v.994h-3.269v3.741h2.718v.931h-2.718v4.206h3.36Z" transform="translate(750.374 1499.388)" fill="#fff"/><path d="M-649.815-1499.233l2.466,10.865h-1.107l-.615-2.763h-2.757l-.624,2.763h-1.219l2.492-10.865Zm-.626,1.962-1.194,5.287h2.373Z" transform="translate(737.83 1499.388)" fill="#fff"/><path d="M-623.871-1488.368H-628.1v-10.865h1.23v9.872h2.994Z" transform="translate(720.058 1499.388)" fill="#fff"/><path d="M-593.6-1488.368h-4.591v-10.865h4.5v.994h-3.269v3.741h2.718v.931h-2.718v4.206h3.36Z" transform="translate(699.277 1499.388)" fill="#fff"/><path d="M-573.633-1499.233l-2.492,5.211,2.676,5.654h-1.378l-1.987-4.214-2.016,4.214h-1.3l2.668-5.6-2.484-5.268h1.359l1.812,3.828,1.824-3.828Z" transform="translate(686.733 1499.388)" fill="#fff"/><path d="M-554.018-1488.368v-10.865h2.589a3.283,3.283,0,0,1,2.2.691,2.424,2.424,0,0,1,.808,1.948v1.211a2.443,2.443,0,0,1-.826,1.963,3.3,3.3,0,0,1-2.222.706h-1.322v4.346Zm1.23-9.918v4.641h1.341a1.837,1.837,0,0,0,1.313-.443,1.656,1.656,0,0,0,.468-1.265v-1.227a1.656,1.656,0,0,0-.468-1.265,1.837,1.837,0,0,0-1.313-.443Z" transform="translate(668.586 1499.388)" fill="#fff"/><path d="M-525.356-1488.368h-4.591v-10.865h4.5v.994h-3.269v3.741H-526v.931h-2.718v4.206h3.361Z" transform="translate(651.86 1499.388)" fill="#fff"/><path d="M-503.334-1488.368h-1.3l-1.9-4.563a4.726,4.726,0,0,1-.475.015h-1.242v4.548h-1.23v-10.865h2.589a3.284,3.284,0,0,1,2.2.691,2.424,2.424,0,0,1,.808,1.948v1.056a2.248,2.248,0,0,1-1.543,2.3Zm-4.922-9.918v4.5h1.341a1.837,1.837,0,0,0,1.313-.443,1.656,1.656,0,0,0,.468-1.265v-1.087a1.656,1.656,0,0,0-.468-1.265,1.837,1.837,0,0,0-1.313-.443Z" transform="translate(637.643 1499.388)" fill="#fff"/><path d="M-484.513-1488.368v-10.865h1.286v10.865Z" transform="translate(620.291 1499.388)" fill="#fff"/><path d="M-468.187-1488.368h-4.591v-10.865h4.5v.994h-3.269v3.741h2.718v.931h-2.718v4.206h3.361Z" transform="translate(612.137 1499.388)" fill="#fff"/><path d="M-447.654-1488.368l-3.544-8.526v8.526h-1.12v-10.865h1.194l3.471,8.35v-8.35h1.12v10.865Z" transform="translate(597.92 1499.388)" fill="#fff"/><path d="M-422.482-1491.018v-1.506h1.194v1.537a2.206,2.206,0,0,1-.771,1.754,2.867,2.867,0,0,1-1.946.667,2.938,2.938,0,0,1-1.965-.652,2.179,2.179,0,0,1-.771-1.754v-6.317a2.224,2.224,0,0,1,.79-1.778,2.944,2.944,0,0,1,1.983-.675,2.842,2.842,0,0,1,1.928.652,2.186,2.186,0,0,1,.753,1.739v1.412h-1.194v-1.35a1.424,1.424,0,0,0-.413-1.079,1.514,1.514,0,0,0-1.092-.4,1.547,1.547,0,0,0-1.1.4,1.406,1.406,0,0,0-.422,1.079v6.271a1.4,1.4,0,0,0,.422,1.086,1.563,1.563,0,0,0,1.1.388,1.53,1.53,0,0,0,1.092-.388A1.417,1.417,0,0,0-422.482-1491.018Z" transform="translate(580.149 1499.741)" fill="#fff"/><path d="M-397.6-1488.368h-4.591v-10.865h4.5v.994h-3.269v3.741h2.718v.931h-2.718v4.206h3.36Z" transform="translate(563.089 1499.388)" fill="#fff"/><path d="M-382.04-1491.747v.652a1.535,1.535,0,0,0,.441,1.157,1.591,1.591,0,0,0,1.157.427,1.678,1.678,0,0,0,1.166-.4,1.4,1.4,0,0,0,.45-1.1,2.427,2.427,0,0,0-.5-1.467,9.112,9.112,0,0,0-1.653-1.591q-2.131-1.676-2.13-3.275a2.136,2.136,0,0,1,.8-1.731,3,3,0,0,1,1.974-.66,2.842,2.842,0,0,1,1.928.652,2.186,2.186,0,0,1,.753,1.739v.559h-1.175v-.5a1.426,1.426,0,0,0-.422-1.094,1.547,1.547,0,0,0-1.1-.4,1.57,1.57,0,0,0-1.093.373,1.329,1.329,0,0,0-.413,1.04,2.043,2.043,0,0,0,.441,1.242,7.86,7.86,0,0,0,1.432,1.366,8.649,8.649,0,0,1,1.791,1.824,3.315,3.315,0,0,1,.6,1.9,2.216,2.216,0,0,1-.818,1.785,3.084,3.084,0,0,1-2.047.683,2.948,2.948,0,0,1-2-.667,2.258,2.258,0,0,1-.771-1.8v-.714Z" transform="translate(549.917 1499.741)" fill="#fff"/><path d="M-358.653-1465.144h-.992l.11-3.57h1.341Z" transform="translate(533.526 1478.182)" fill="#fff"/><path d="M-336.772-1499.233l2.466,10.865h-1.107l-.616-2.763h-2.756l-.624,2.763h-1.219l2.493-10.865Zm-.626,1.962-1.195,5.287h2.373Z" transform="translate(520.313 1499.388)" fill="#fff"/><path d="M-310.389-1488.368l-3.544-8.526v8.526h-1.12v-10.865h1.194l3.471,8.35v-8.35h1.12v10.865Z" transform="translate(502.542 1499.388)" fill="#fff"/><path d="M-289.442-1488.368v-4.377l-2.442-6.488h1.322l1.764,5.211,1.793-5.211h1.273l-2.461,6.519v4.346Z" transform="translate(486.443 1499.388)" fill="#fff"/><path d="M-267.345-1488.368l-1.973-10.865h1.3l1.488,8.413,1.524-8.413h1.037l1.5,8.275,1.449-8.275h1.061l-1.961,10.865h-1.139l-1.511-8.033-1.512,8.033Z" transform="translate(470.763 1499.388)" fill="#fff"/><path d="M-229.462-1488.368v-5.231h-3.122v5.231h-1.23v-10.865h1.23v4.641h3.122v-4.641h1.248v10.865Z" transform="translate(446.093 1499.388)" fill="#fff"/><path d="M-203.647-1488.368h-4.591v-10.865h4.5v.994h-3.269v3.741h2.718v.931h-2.718v4.206h3.361Z" transform="translate(428.322 1499.388)" fill="#fff"/><path d="M-181.626-1488.368h-1.3l-1.9-4.563a4.725,4.725,0,0,1-.475.015h-1.242v4.548h-1.23v-10.865h2.589a3.284,3.284,0,0,1,2.2.691,2.424,2.424,0,0,1,.808,1.948v1.056a2.248,2.248,0,0,1-1.543,2.3Zm-4.921-9.918v4.5h1.341a1.837,1.837,0,0,0,1.313-.443,1.656,1.656,0,0,0,.468-1.265v-1.087a1.656,1.656,0,0,0-.468-1.265,1.837,1.837,0,0,0-1.313-.443Z" transform="translate(414.105 1499.388)" fill="#fff"/><path d="M-158.514-1488.368h-4.591v-10.865h4.5v.994h-3.269v3.741h2.718v.931h-2.718v4.206h3.361Z" transform="translate(396.961 1499.388)" fill="#fff"/><path d="M-141.655-1465.144h-.991l.11-3.57h1.341Z" transform="translate(382.745 1478.182)" fill="#fff"/><path d="M-119.774-1499.233l2.466,10.865h-1.107l-.615-2.763h-2.757l-.624,2.763h-1.219l2.492-10.865Zm-.626,1.962-1.194,5.287h2.373Z" transform="translate(369.532 1499.388)" fill="#fff"/><path d="M-93.39-1488.368l-3.544-8.526v8.526h-1.12v-10.865h1.193l3.471,8.35v-8.35h1.12v10.865Z" transform="translate(351.761 1499.388)" fill="#fff"/><path d="M-72.444-1488.368v-4.377l-2.442-6.488h1.322l1.764,5.211,1.793-5.211h1.272l-2.461,6.519v4.346Z" transform="translate(335.662 1499.388)" fill="#fff"/><path d="M-45.988-1498.24h-2.24v9.872h-1.249v-9.872h-2.24v-.994h5.73Z" transform="translate(319.564 1499.388)" fill="#fff"/><path d="M-27.828-1488.368v-10.865h1.286v10.865Z" transform="translate(302.964 1499.388)" fill="#fff"/><path d="M-12.546-1490.153l-2.372-6.492v8.276h-1.175v-10.865h1.267l2.626,7.186,2.626-7.186H-8.38v10.865H-9.556v-8.391l-2.429,6.595Z" transform="translate(294.81 1499.388)" fill="#fff"/><path d="M20.994-1488.368H16.4v-10.865h4.5v.994H17.633v3.741h2.718v.931H17.633v4.206h3.36Z" transform="translate(272.23 1499.388)" fill="#fff"/></g><path d="M-927.773-1602.632l-5.3-30.066h5.017l4.185,24.772,3.385-20.064a5.648,5.648,0,0,1,5.57-4.709h0l-7.19,34.821h0A5.754,5.754,0,0,1-927.773-1602.632Z" transform="translate(-191.426 -55.47)" fill="#fff"/><path d="M-925.139-1615.444l-3.537,7.678-4.4-24.931h5.02Z" transform="translate(-191.426 -55.47)" opacity="0.54" fill="url(#d)"/></g></svg>